{"glyphs":{"0":{"ha":699,"x_min":65,"x_max":661,"o":"m 433 951 q 223 851 306 951 q 103 599 140 750 q 65 290 65 447 q 123 58 65 138 q 293 -21 181 -21 q 503 80 419 -21 q 624 333 586 181 q 661 640 661 485 q 603 872 661 792 q 433 951 546 951 m 425 821 q 497 683 497 821 q 474 426 497 560 q 406 201 450 292 q 300 110 361 110 q 247 142 265 110 q 229 249 229 175 q 252 503 229 369 q 319 729 275 638 q 425 821 364 821 z "},"1":{"ha":532,"x_min":63,"x_max":494,"o":"m 494 935 l 364 0 l 199 0 l 301 747 l 124 629 l 63 749 l 343 935 l 494 935 z "},"2":{"ha":583,"x_min":-21,"x_max":569,"o":"m 335 951 q 508 888 447 951 q 569 722 569 824 q 533 566 569 643 q 416 391 497 489 q 178 133 335 293 l 506 136 l 467 0 l -21 0 l -3 129 q 250 414 172 321 q 363 575 328 507 q 397 713 397 643 q 374 790 397 764 q 311 817 351 817 q 235 794 271 817 q 154 722 200 771 l 64 803 q 189 914 122 876 q 335 951 256 951 z "},"3":{"ha":588,"x_min":-54,"x_max":564,"o":"m 338 951 q 503 891 443 951 q 564 736 564 831 q 349 493 564 547 q 517 314 517 468 q 477 151 517 228 q 363 26 438 74 q 188 -21 288 -21 q 47 13 106 -21 q -54 115 -12 47 l 50 194 q 113 131 81 151 q 188 111 146 111 q 301 167 257 111 q 344 319 344 224 q 317 402 344 378 q 235 426 289 426 l 172 426 l 213 550 l 251 550 q 357 599 317 550 q 397 724 397 647 q 374 797 397 772 q 310 822 351 822 q 149 742 236 822 l 76 835 q 201 923 138 894 q 338 951 265 951 z "},"4":{"ha":638,"x_min":11,"x_max":608,"o":"m 608 347 l 589 217 l 503 217 l 472 0 l 311 0 l 340 217 l 11 217 l 29 335 l 331 954 l 468 899 l 208 347 l 360 347 l 413 585 l 554 585 l 521 347 l 608 347 z "},"5":{"ha":607,"x_min":-18,"x_max":614,"o":"m 576 807 l 296 807 l 263 569 q 382 603 322 603 q 513 544 465 603 q 561 375 561 485 q 522 183 561 274 q 404 35 482 92 q 215 -21 326 -21 q 76 14 132 -21 q -18 111 21 49 l 88 194 q 147 133 115 153 q 221 113 179 113 q 349 190 307 113 q 392 368 392 268 q 370 455 392 429 q 307 481 349 481 q 204 447 260 481 l 88 447 l 156 935 l 614 935 l 576 807 z "},"6":{"ha":658,"x_min":60,"x_max":646,"o":"m 440 621 q 572 563 524 621 q 619 394 619 504 q 583 194 619 289 q 472 39 546 99 q 297 -21 399 -21 q 118 56 176 -21 q 60 272 60 132 q 110 592 60 435 q 257 850 161 749 q 479 951 353 951 q 646 890 571 951 l 571 790 q 475 825 522 825 q 349 742 407 825 q 257 515 290 660 q 440 621 338 621 m 304 107 q 389 154 356 107 q 438 269 422 201 q 453 399 453 336 q 385 497 453 497 q 238 383 313 497 q 226 247 226 290 q 245 140 226 174 q 304 107 264 107 z "},"7":{"ha":524,"x_min":33,"x_max":583,"o":"m 583 933 l 565 814 l 175 -18 l 33 33 l 392 801 l 78 801 l 97 933 l 583 933 z "},"8":{"ha":658,"x_min":21,"x_max":651,"o":"m 481 496 q 575 410 544 460 q 606 294 606 361 q 563 127 606 199 q 447 17 521 56 q 278 -21 372 -21 q 89 46 157 -21 q 21 214 21 113 q 67 373 21 304 q 215 490 113 442 q 125 667 125 557 q 163 817 125 753 q 267 917 201 882 q 414 951 333 951 q 586 896 521 951 q 651 746 651 840 q 612 604 651 664 q 481 496 572 544 m 404 831 q 315 784 343 831 q 286 669 286 738 q 304 599 286 625 q 365 551 322 572 l 383 543 q 467 630 443 583 q 490 738 490 676 q 404 831 490 831 m 290 107 q 399 157 358 107 q 439 292 439 207 q 417 370 439 340 q 336 428 394 400 l 310 440 q 188 219 188 364 q 214 135 188 164 q 290 107 240 107 z "},"9":{"ha":639,"x_min":31,"x_max":628,"o":"m 388 951 q 567 878 506 951 q 628 676 628 806 q 497 235 628 426 q 54 -36 367 43 l 31 83 q 289 213 194 135 q 431 429 383 290 q 344 356 386 381 q 253 332 303 332 q 117 397 169 332 q 65 568 65 461 q 103 757 65 669 q 213 898 140 844 q 388 951 286 951 m 308 456 q 450 557 376 456 q 457 694 457 632 q 438 795 457 764 q 378 826 419 826 q 269 747 304 826 q 233 571 233 667 q 308 456 233 456 z "},"\r":{"ha":263,"x_min":0,"x_max":0,"o":""}," ":{"ha":263,"x_min":0,"x_max":0,"o":""},"A":{"ha":681,"x_min":-54,"x_max":632,"o":"m 451 0 l 438 225 l 201 225 l 126 0 l -54 0 l 317 960 l 529 960 l 632 0 l 451 0 m 244 358 l 429 358 l 401 831 l 244 358 z "},"Á":{"ha":681,"x_min":-54,"x_max":632,"o":"m 451 0 l 438 225 l 201 225 l 126 0 l -54 0 l 317 960 l 529 960 l 632 0 l 451 0 m 244 358 l 429 358 l 401 831 l 244 358 m 554 1282 l 617 1154 l 338 1043 l 296 1125 l 554 1282 z "},"Ă":{"ha":681,"x_min":-54,"x_max":647,"o":"m 451 0 l 438 225 l 201 225 l 126 0 l -54 0 l 317 960 l 529 960 l 632 0 l 451 0 m 244 358 l 429 358 l 401 831 l 244 358 m 435 1049 q 306 1105 349 1049 q 269 1247 264 1161 l 363 1263 q 442 1171 369 1171 q 509 1197 481 1171 q 553 1267 538 1224 l 647 1242 q 574 1101 629 1154 q 435 1049 519 1049 z "},"Ắ":{"ha":681,"x_min":-54,"x_max":668,"o":"m 668 1425 l 464 1232 l 404 1286 l 583 1511 l 668 1425 m 442 1147 q 509 1174 481 1147 q 553 1243 538 1200 l 647 1218 q 574 1078 629 1131 q 435 1025 519 1025 q 306 1081 349 1025 q 269 1224 264 1138 l 363 1239 q 442 1147 369 1147 m 317 960 l 529 960 l 632 0 l 451 0 l 438 225 l 201 225 l 126 0 l -54 0 l 317 960 m 244 358 l 429 358 l 401 831 l 244 358 z "},"Ặ":{"ha":681,"x_min":-54,"x_max":647,"o":"m 451 0 l 438 225 l 201 225 l 126 0 l -54 0 l 317 960 l 529 960 l 632 0 l 451 0 m 244 358 l 429 358 l 401 831 l 244 358 m 435 1049 q 306 1105 349 1049 q 269 1247 264 1161 l 363 1263 q 442 1171 369 1171 q 509 1197 481 1171 q 553 1267 538 1224 l 647 1242 q 574 1101 629 1154 q 435 1049 519 1049 m 271 -94 q 338 -119 314 -94 q 363 -185 363 -143 q 330 -269 363 -237 q 249 -301 297 -301 q 181 -277 206 -301 q 157 -211 157 -253 q 190 -127 157 -160 q 271 -94 224 -94 z "},"Ằ":{"ha":681,"x_min":-54,"x_max":649,"o":"m 514 1281 l 442 1232 l 290 1431 l 397 1508 l 514 1281 m 436 1025 q 308 1081 350 1025 q 271 1224 265 1138 l 364 1239 q 443 1147 371 1147 q 510 1174 482 1147 q 554 1243 539 1200 l 649 1218 q 576 1078 631 1131 q 436 1025 521 1025 m 317 960 l 529 960 l 632 0 l 451 0 l 438 225 l 201 225 l 126 0 l -54 0 l 317 960 m 244 358 l 429 358 l 401 831 l 244 358 z "},"Ẳ":{"ha":681,"x_min":-54,"x_max":650,"o":"m 451 0 l 438 225 l 201 225 l 126 0 l -54 0 l 317 960 l 529 960 l 632 0 l 451 0 m 244 358 l 429 358 l 401 831 l 244 358 m 438 1025 q 309 1081 351 1025 q 272 1224 267 1138 l 365 1239 q 444 1147 372 1147 q 512 1174 483 1147 q 556 1243 540 1200 l 650 1218 q 577 1078 632 1131 q 438 1025 522 1025 m 419 1344 q 487 1365 465 1350 q 508 1411 508 1379 q 471 1449 508 1449 q 439 1444 453 1449 q 404 1431 425 1440 l 382 1513 q 435 1537 408 1529 q 499 1544 463 1544 q 593 1510 558 1544 q 628 1422 628 1476 q 515 1288 628 1310 l 507 1225 l 406 1225 l 419 1344 z "},"Ẵ":{"ha":681,"x_min":-54,"x_max":685,"o":"m 403 1346 q 370 1332 385 1346 q 336 1288 356 1318 l 258 1333 q 328 1430 289 1393 q 411 1467 368 1467 q 455 1457 436 1467 q 494 1429 474 1447 q 507 1419 497 1426 q 526 1408 517 1411 q 543 1404 535 1404 q 574 1417 558 1404 q 608 1461 589 1431 l 685 1417 q 615 1319 654 1354 q 533 1285 575 1285 q 492 1294 510 1285 q 451 1321 475 1303 q 403 1346 421 1346 m 439 1147 q 506 1174 478 1147 q 550 1243 535 1200 l 644 1218 q 572 1078 626 1131 q 432 1025 517 1025 q 303 1081 346 1025 q 267 1224 261 1138 l 360 1239 q 439 1147 367 1147 m 317 960 l 529 960 l 632 0 l 451 0 l 438 225 l 201 225 l 126 0 l -54 0 l 317 960 m 244 358 l 429 358 l 401 831 l 244 358 z "},"Ǎ":{"ha":681,"x_min":-54,"x_max":672,"o":"m 451 0 l 438 225 l 201 225 l 126 0 l -54 0 l 317 960 l 529 960 l 632 0 l 451 0 m 244 358 l 429 358 l 401 831 l 244 358 m 608 1285 l 672 1214 l 486 1044 l 383 1044 l 244 1222 l 313 1285 l 447 1168 l 608 1285 z "},"Â":{"ha":681,"x_min":-54,"x_max":651,"o":"m 451 0 l 438 225 l 201 225 l 126 0 l -54 0 l 317 960 l 529 960 l 632 0 l 451 0 m 244 358 l 429 358 l 401 831 l 244 358 m 288 1053 l 224 1124 l 410 1293 l 513 1293 l 651 1115 l 583 1053 l 449 1168 l 288 1053 z "},"Ấ":{"ha":681,"x_min":-54,"x_max":826,"o":"m 826 1378 l 622 1185 l 563 1239 l 742 1464 l 826 1378 m 403 1240 l 506 1240 l 644 1063 l 576 1000 l 442 1115 l 281 1000 l 217 1071 l 403 1240 m 317 960 l 529 960 l 632 0 l 451 0 l 438 225 l 201 225 l 126 0 l -54 0 l 317 960 m 244 358 l 429 358 l 401 831 l 244 358 z "},"Ậ":{"ha":681,"x_min":-54,"x_max":651,"o":"m 451 0 l 438 225 l 201 225 l 126 0 l -54 0 l 317 960 l 529 960 l 632 0 l 451 0 m 244 358 l 429 358 l 401 831 l 244 358 m 288 1053 l 224 1124 l 410 1293 l 513 1293 l 651 1115 l 583 1053 l 449 1168 l 288 1053 m 271 -94 q 338 -119 314 -94 q 363 -185 363 -143 q 330 -269 363 -237 q 249 -301 297 -301 q 181 -277 206 -301 q 157 -211 157 -253 q 190 -127 157 -160 q 271 -94 224 -94 z "},"Ầ":{"ha":681,"x_min":-54,"x_max":644,"o":"m 344 1233 l 272 1185 l 121 1383 l 228 1461 l 344 1233 m 281 1000 l 217 1071 l 403 1240 l 506 1240 l 644 1063 l 576 1000 l 442 1115 l 281 1000 m 317 960 l 529 960 l 632 0 l 451 0 l 438 225 l 201 225 l 126 0 l -54 0 l 317 960 m 244 358 l 429 358 l 401 831 l 244 358 z "},"Ẩ":{"ha":681,"x_min":-54,"x_max":808,"o":"m 451 0 l 438 225 l 201 225 l 126 0 l -54 0 l 317 960 l 529 960 l 632 0 l 451 0 m 244 358 l 429 358 l 401 831 l 244 358 m 279 1000 l 215 1071 l 401 1240 l 504 1240 l 643 1063 l 575 1000 l 440 1115 l 279 1000 m 600 1279 q 667 1299 646 1285 q 689 1346 689 1314 q 651 1383 689 1383 q 619 1379 633 1383 q 585 1365 606 1375 l 563 1447 q 616 1472 589 1464 q 679 1479 643 1479 q 774 1445 739 1479 q 808 1357 808 1411 q 696 1222 808 1244 l 688 1160 l 586 1160 l 600 1279 z "},"Ẫ":{"ha":681,"x_min":-54,"x_max":690,"o":"m 408 1342 q 376 1328 390 1342 q 342 1283 361 1314 l 264 1329 q 334 1426 294 1389 q 417 1463 374 1463 q 460 1453 442 1463 q 500 1425 479 1443 q 513 1415 503 1422 q 531 1403 522 1407 q 549 1400 540 1400 q 579 1413 564 1400 q 614 1457 594 1426 l 690 1413 q 620 1315 660 1350 q 539 1281 581 1281 q 498 1290 515 1281 q 457 1317 481 1299 q 408 1342 426 1342 m 406 1240 l 508 1240 l 647 1063 l 579 1000 l 444 1115 l 283 1000 l 219 1071 l 406 1240 m 317 960 l 529 960 l 632 0 l 451 0 l 438 225 l 201 225 l 126 0 l -54 0 l 317 960 m 244 358 l 429 358 l 401 831 l 244 358 z "},"Ȁ":{"ha":681,"x_min":-54,"x_max":632,"o":"m 451 0 l 438 225 l 201 225 l 126 0 l -54 0 l 317 960 l 529 960 l 632 0 l 451 0 m 244 358 l 429 358 l 401 831 l 244 358 m 325 1349 l 401 1088 l 301 1050 l 193 1294 l 325 1349 m 518 1347 l 583 1092 l 485 1057 l 385 1296 l 518 1347 z "},"Ä":{"ha":681,"x_min":-54,"x_max":671,"o":"m 451 0 l 438 225 l 201 225 l 126 0 l -54 0 l 317 960 l 529 960 l 632 0 l 451 0 m 244 358 l 429 358 l 401 831 l 244 358 m 311 1076 q 253 1099 275 1076 q 232 1156 232 1121 q 261 1230 232 1200 q 332 1260 290 1260 q 391 1238 369 1260 q 413 1181 413 1215 q 383 1106 413 1136 q 311 1076 353 1076 m 571 1076 q 513 1099 535 1076 q 490 1156 490 1121 q 520 1230 490 1200 q 590 1260 550 1260 q 649 1238 628 1260 q 671 1181 671 1215 q 642 1106 671 1135 q 571 1076 613 1076 z "},"Ǟ":{"ha":681,"x_min":-54,"x_max":661,"o":"m 451 0 l 438 225 l 201 225 l 126 0 l -54 0 l 317 960 l 529 960 l 632 0 l 451 0 m 244 358 l 429 358 l 401 831 l 244 358 m 301 1038 q 244 1060 265 1038 q 222 1117 222 1082 q 251 1191 222 1161 q 322 1221 281 1221 q 381 1199 360 1221 q 403 1142 403 1176 q 373 1067 403 1097 q 301 1038 343 1038 m 561 1038 q 503 1060 525 1038 q 481 1117 481 1082 q 510 1191 481 1161 q 581 1221 540 1221 q 640 1199 618 1221 q 661 1142 661 1176 q 632 1067 661 1096 q 561 1038 603 1038 m 626 1283 l 290 1283 l 308 1406 l 646 1406 l 626 1283 z "},"Ȧ":{"ha":681,"x_min":-54,"x_max":632,"o":"m 451 0 l 438 225 l 201 225 l 126 0 l -54 0 l 317 960 l 529 960 l 632 0 l 451 0 m 244 358 l 429 358 l 401 831 l 244 358 m 444 1069 q 377 1094 401 1069 q 353 1160 353 1118 q 385 1244 353 1213 q 467 1276 418 1276 q 534 1252 510 1276 q 558 1186 558 1228 q 525 1102 558 1135 q 444 1069 492 1069 z "},"Ạ":{"ha":681,"x_min":-54,"x_max":632,"o":"m 451 0 l 438 225 l 201 225 l 126 0 l -54 0 l 317 960 l 529 960 l 632 0 l 451 0 m 244 358 l 429 358 l 401 831 l 244 358 m 271 -94 q 338 -119 314 -94 q 363 -185 363 -143 q 330 -269 363 -237 q 249 -301 297 -301 q 181 -277 206 -301 q 157 -211 157 -253 q 190 -127 157 -160 q 271 -94 224 -94 z "},"Ǡ":{"ha":681,"x_min":-54,"x_max":651,"o":"m 451 0 l 438 225 l 201 225 l 126 0 l -54 0 l 317 960 l 529 960 l 632 0 l 451 0 m 244 358 l 429 358 l 401 831 l 244 358 m 433 1026 q 366 1051 390 1026 q 342 1117 342 1075 q 374 1201 342 1169 q 456 1233 407 1233 q 523 1209 499 1233 q 547 1143 547 1185 q 514 1059 547 1092 q 433 1026 481 1026 m 632 1285 l 296 1285 l 314 1407 l 651 1407 l 632 1285 z "},"À":{"ha":681,"x_min":-54,"x_max":632,"o":"m 451 0 l 438 225 l 201 225 l 126 0 l -54 0 l 317 960 l 529 960 l 632 0 l 451 0 m 244 358 l 429 358 l 401 831 l 244 358 m 386 1279 l 610 1124 l 557 1044 l 310 1154 l 386 1279 z "},"Ả":{"ha":681,"x_min":-54,"x_max":632,"o":"m 451 0 l 438 225 l 201 225 l 126 0 l -54 0 l 317 960 l 529 960 l 632 0 l 451 0 m 244 358 l 429 358 l 401 831 l 244 358 m 401 1181 q 469 1201 447 1186 q 490 1247 490 1215 q 453 1285 490 1285 q 421 1281 435 1285 q 386 1267 407 1276 l 364 1349 q 417 1373 390 1365 q 481 1381 444 1381 q 575 1347 540 1381 q 610 1258 610 1313 q 497 1124 610 1146 l 489 1061 l 388 1061 l 401 1181 z "},"Ȃ":{"ha":681,"x_min":-54,"x_max":632,"o":"m 451 0 l 438 225 l 201 225 l 126 0 l -54 0 l 317 960 l 529 960 l 632 0 l 451 0 m 244 358 l 429 358 l 401 831 l 244 358 m 249 1092 q 329 1243 272 1188 q 468 1299 386 1299 q 595 1240 553 1299 q 632 1086 638 1182 l 536 1072 q 456 1176 529 1176 q 342 1067 376 1176 l 249 1092 z "},"Ɑ":{"ha":789,"x_min":57,"x_max":783,"o":"m 674 183 q 672 154 672 172 q 679 119 672 132 q 703 96 686 106 l 651 -18 q 514 83 546 -7 q 428 7 475 33 q 324 -19 382 -19 q 128 74 200 -19 q 57 336 57 167 q 107 662 57 515 q 247 894 157 808 q 450 979 336 979 q 542 955 504 979 q 608 885 581 931 l 633 960 l 783 960 l 674 183 m 363 114 q 503 201 439 114 l 581 763 q 531 824 557 804 q 469 844 506 844 q 344 773 397 844 q 264 584 292 701 q 236 331 236 467 q 270 166 236 218 q 363 114 304 114 z "},"Ā":{"ha":681,"x_min":-54,"x_max":632,"o":"m 451 0 l 438 225 l 201 225 l 126 0 l -54 0 l 317 960 l 529 960 l 632 0 l 451 0 m 244 358 l 429 358 l 401 831 l 244 358 m 608 1093 l 272 1093 l 290 1215 l 628 1215 l 608 1093 z "},"Ą":{"ha":681,"x_min":-54,"x_max":632,"o":"m 551 0 q 427 -85 460 -44 q 394 -168 394 -126 q 447 -215 394 -215 q 514 -208 475 -215 l 489 -319 q 411 -329 456 -329 q 308 -291 347 -329 q 268 -189 268 -253 q 310 -69 268 -122 q 450 29 353 -15 l 438 225 l 201 225 l 126 0 l -54 0 l 317 960 l 529 960 l 632 0 l 551 0 m 244 358 l 429 358 l 401 831 l 244 358 z "},"Å":{"ha":681,"x_min":-54,"x_max":632,"o":"m 451 0 l 438 225 l 201 225 l 126 0 l -54 0 l 317 960 l 529 960 l 632 0 l 451 0 m 244 358 l 429 358 l 401 831 l 244 358 m 474 1354 q 573 1314 536 1354 q 610 1210 610 1274 q 562 1082 610 1133 q 438 1031 514 1031 q 338 1071 375 1031 q 301 1175 301 1111 q 350 1303 301 1251 q 474 1354 399 1354 m 467 1268 q 418 1242 436 1268 q 400 1178 400 1217 q 412 1133 400 1149 q 446 1117 424 1117 q 494 1143 476 1117 q 511 1207 511 1169 q 467 1268 511 1268 z "},"Ǻ":{"ha":681,"x_min":-54,"x_max":632,"o":"m 451 0 l 438 225 l 201 225 l 126 0 l -54 0 l 317 960 l 529 960 l 632 0 l 451 0 m 244 358 l 429 358 l 401 831 l 244 358 m 465 1336 q 565 1296 528 1336 q 601 1192 601 1256 q 553 1064 601 1115 q 429 1013 506 1013 q 330 1053 367 1013 q 293 1157 293 1093 q 342 1285 293 1233 q 465 1336 390 1336 m 458 1250 q 410 1224 428 1250 q 392 1160 392 1199 q 403 1115 392 1131 q 438 1099 415 1099 q 485 1125 468 1099 q 503 1189 503 1151 q 458 1250 503 1250 m 565 1583 l 628 1456 l 349 1344 l 307 1426 l 565 1583 z "},"Ⱥ":{"ha":681,"x_min":-54,"x_max":632,"o":"m 469 0 l 451 225 l 322 225 l 206 -100 l 144 -82 l 254 225 l 190 225 l 113 0 l -54 0 l 318 960 l 517 960 l 547 1044 l 608 1026 l 542 840 l 632 0 l 469 0 m 233 351 l 300 351 l 417 681 l 404 844 l 233 351 m 367 351 l 442 351 l 429 525 l 367 351 z "},"Ã":{"ha":681,"x_min":-54,"x_max":667,"o":"m 451 0 l 438 225 l 201 225 l 126 0 l -54 0 l 317 960 l 529 960 l 632 0 l 451 0 m 244 358 l 429 358 l 401 831 l 244 358 m 514 1072 q 474 1082 492 1072 q 433 1110 456 1092 q 405 1130 417 1124 q 382 1136 393 1136 q 349 1122 364 1136 q 315 1075 335 1107 l 238 1122 q 308 1223 269 1185 q 390 1261 347 1261 q 433 1251 415 1261 q 475 1222 451 1242 q 501 1202 492 1208 q 524 1196 511 1196 q 553 1210 539 1196 q 589 1256 568 1224 l 667 1210 q 597 1108 636 1144 q 514 1072 557 1072 z "},"Æ":{"ha":956,"x_min":-64,"x_max":956,"o":"m 917 828 l 608 828 l 615 551 l 890 551 l 869 421 l 619 421 l 626 133 l 885 133 l 864 0 l 467 0 l 464 225 l 213 225 l 121 0 l -64 0 l 369 960 l 956 960 l 917 828 m 267 358 l 463 358 l 457 826 l 267 358 z "},"Ǽ":{"ha":956,"x_min":-64,"x_max":956,"o":"m 917 828 l 608 828 l 615 551 l 890 551 l 869 421 l 619 421 l 626 133 l 885 133 l 864 0 l 467 0 l 464 225 l 213 225 l 121 0 l -64 0 l 369 960 l 956 960 l 917 828 m 267 358 l 463 358 l 457 826 l 267 358 m 764 1282 l 826 1154 l 547 1043 l 506 1125 l 764 1282 z "},"Ǣ":{"ha":956,"x_min":-64,"x_max":956,"o":"m 917 828 l 608 828 l 615 551 l 890 551 l 869 421 l 619 421 l 626 133 l 885 133 l 864 0 l 467 0 l 464 225 l 213 225 l 121 0 l -64 0 l 369 960 l 956 960 l 917 828 m 267 358 l 463 358 l 457 826 l 267 358 m 818 1093 l 482 1093 l 500 1215 l 838 1215 l 818 1093 z "},"B":{"ha":707,"x_min":31,"x_max":700,"o":"m 494 507 q 661 319 661 468 q 565 88 661 175 q 281 0 468 0 l 31 0 l 167 960 l 414 960 q 624 903 547 960 q 700 747 700 847 q 644 591 700 651 q 494 507 588 531 m 322 829 l 285 564 l 363 564 q 482 608 442 564 q 522 733 522 651 q 413 829 522 829 l 322 829 m 300 133 q 442 186 400 133 q 483 324 483 239 q 453 412 483 385 q 357 439 422 439 l 267 439 l 224 133 l 300 133 z "},"Ḃ":{"ha":707,"x_min":31,"x_max":700,"o":"m 494 507 q 661 319 661 468 q 565 88 661 175 q 281 0 468 0 l 31 0 l 167 960 l 414 960 q 624 903 547 960 q 700 747 700 847 q 644 591 700 651 q 494 507 588 531 m 322 829 l 285 564 l 363 564 q 482 608 442 564 q 522 733 522 651 q 413 829 522 829 l 322 829 m 300 133 q 442 186 400 133 q 483 324 483 239 q 453 412 483 385 q 357 439 422 439 l 267 439 l 224 133 l 300 133 m 447 1069 q 380 1094 404 1069 q 356 1160 356 1118 q 388 1244 356 1213 q 469 1276 421 1276 q 537 1252 513 1276 q 561 1186 561 1228 q 528 1102 561 1135 q 447 1069 494 1069 z "},"Ḅ":{"ha":707,"x_min":31,"x_max":700,"o":"m 494 507 q 661 319 661 468 q 565 88 661 175 q 281 0 468 0 l 31 0 l 167 960 l 414 960 q 624 903 547 960 q 700 747 700 847 q 644 591 700 651 q 494 507 588 531 m 322 829 l 285 564 l 363 564 q 482 608 442 564 q 522 733 522 651 q 413 829 522 829 l 322 829 m 300 133 q 442 186 400 133 q 483 324 483 239 q 453 412 483 385 q 357 439 422 439 l 267 439 l 224 133 l 300 133 m 285 -94 q 352 -119 328 -94 q 376 -185 376 -143 q 344 -269 376 -237 q 263 -301 311 -301 q 195 -277 219 -301 q 171 -211 171 -253 q 204 -127 171 -160 q 285 -94 238 -94 z "},"Ꞵ":{"ha":703,"x_min":-10,"x_max":683,"o":"m 492 507 q 658 319 658 474 q 617 155 658 228 q 501 41 575 82 q 332 0 426 0 q 208 17 272 0 l 165 -286 l -10 -286 l 167 960 l 397 960 q 607 903 531 960 q 683 744 683 847 q 630 588 683 649 q 492 507 576 528 m 321 133 q 439 188 397 133 q 481 324 481 243 q 450 412 481 385 q 357 439 419 439 l 321 439 l 350 564 l 368 564 q 469 608 432 564 q 506 732 506 651 q 400 829 506 829 l 322 829 l 226 146 q 321 133 272 133 z "},"Ɓ":{"ha":858,"x_min":64,"x_max":851,"o":"m 646 507 q 813 319 813 468 q 716 88 813 175 q 432 0 619 0 l 182 0 l 300 829 l 267 829 q 201 746 201 829 q 214 661 201 706 l 96 617 q 64 750 64 683 q 121 903 64 846 q 276 960 178 960 l 565 960 q 775 903 699 960 q 851 747 851 847 q 795 591 851 651 q 646 507 739 531 m 474 829 l 436 564 l 514 564 q 633 608 593 564 q 674 733 674 651 q 564 829 674 829 l 474 829 m 451 133 q 593 186 551 133 q 635 324 635 239 q 604 412 635 385 q 508 439 574 439 l 418 439 l 375 133 l 451 133 z "},"Ƀ":{"ha":717,"x_min":-1,"x_max":710,"o":"m 504 507 q 671 319 671 468 q 574 88 671 175 q 290 0 478 0 l 40 0 l 74 239 l -1 239 l 14 342 l 89 342 l 176 960 l 424 960 q 633 903 557 960 q 710 747 710 847 q 653 591 710 651 q 504 507 597 531 m 332 829 l 294 564 l 372 564 q 492 608 451 564 q 532 733 532 651 q 422 829 532 829 l 332 829 m 310 133 q 451 186 410 133 q 493 324 493 239 q 463 412 493 385 q 367 439 432 439 l 276 439 l 263 342 l 399 342 l 383 239 l 249 239 l 233 133 l 310 133 z "},"Ƃ":{"ha":675,"x_min":32,"x_max":649,"o":"m 361 607 q 573 541 497 607 q 649 353 649 475 q 613 181 649 261 q 497 51 576 101 q 293 0 417 0 l 32 0 l 167 960 l 643 960 l 604 822 l 321 822 l 290 607 l 361 607 m 297 133 q 426 196 388 133 q 465 349 465 258 q 436 447 465 415 q 347 479 407 479 l 272 479 l 224 133 l 297 133 z "},"C":{"ha":658,"x_min":56,"x_max":717,"o":"m 492 979 q 619 953 565 979 q 717 876 672 926 l 622 783 q 560 829 592 814 q 490 844 528 844 q 344 765 401 844 q 262 567 288 685 q 236 328 236 449 q 270 171 236 221 q 367 121 304 121 q 445 138 411 121 q 535 196 479 156 l 600 90 q 338 -21 481 -21 q 132 72 208 -21 q 56 338 56 165 q 103 648 56 501 q 250 887 151 794 q 492 979 349 979 z "},"Ć":{"ha":658,"x_min":56,"x_max":717,"o":"m 492 979 q 619 953 565 979 q 717 876 672 926 l 622 783 q 560 829 592 814 q 490 844 528 844 q 344 765 401 844 q 262 567 288 685 q 236 328 236 449 q 270 171 236 221 q 367 121 304 121 q 445 138 411 121 q 535 196 479 156 l 600 90 q 338 -21 481 -21 q 132 72 208 -21 q 56 338 56 165 q 103 648 56 501 q 250 887 151 794 q 492 979 349 979 m 619 1282 l 682 1154 l 403 1043 l 361 1125 l 619 1282 z "},"Č":{"ha":658,"x_min":56,"x_max":738,"o":"m 492 979 q 619 953 565 979 q 717 876 672 926 l 622 783 q 560 829 592 814 q 490 844 528 844 q 344 765 401 844 q 262 567 288 685 q 236 328 236 449 q 270 171 236 221 q 367 121 304 121 q 445 138 411 121 q 535 196 479 156 l 600 90 q 338 -21 481 -21 q 132 72 208 -21 q 56 338 56 165 q 103 648 56 501 q 250 887 151 794 q 492 979 349 979 m 674 1285 l 738 1214 l 551 1044 l 449 1044 l 310 1222 l 378 1285 l 513 1168 l 674 1285 z "},"Ç":{"ha":658,"x_min":56,"x_max":717,"o":"m 490 844 q 344 765 401 844 q 262 567 288 685 q 236 328 236 449 q 270 171 236 221 q 367 121 304 121 q 445 138 411 121 q 535 196 479 156 l 600 90 q 375 -18 496 -6 l 367 -78 q 442 -112 417 -83 q 467 -187 467 -140 q 422 -299 467 -250 q 285 -347 376 -347 q 165 -308 210 -347 l 215 -231 q 282 -249 249 -249 q 327 -235 310 -249 q 344 -194 344 -221 q 324 -158 344 -168 q 249 -147 303 -147 l 279 -15 q 115 96 175 6 q 56 338 56 186 q 103 648 56 501 q 250 887 151 794 q 492 979 349 979 q 619 953 565 979 q 717 876 672 926 l 622 783 q 560 829 592 814 q 490 844 528 844 z "},"Ĉ":{"ha":658,"x_min":56,"x_max":717,"o":"m 492 979 q 619 953 565 979 q 717 876 672 926 l 622 783 q 560 829 592 814 q 490 844 528 844 q 344 765 401 844 q 262 567 288 685 q 236 328 236 449 q 270 171 236 221 q 367 121 304 121 q 445 138 411 121 q 535 196 479 156 l 600 90 q 338 -21 481 -21 q 132 72 208 -21 q 56 338 56 165 q 103 648 56 501 q 250 887 151 794 q 492 979 349 979 m 353 1053 l 289 1124 l 475 1293 l 578 1293 l 717 1115 l 649 1053 l 514 1168 l 353 1053 z "},"Ċ":{"ha":658,"x_min":56,"x_max":717,"o":"m 492 979 q 619 953 565 979 q 717 876 672 926 l 622 783 q 560 829 592 814 q 490 844 528 844 q 344 765 401 844 q 262 567 288 685 q 236 328 236 449 q 270 171 236 221 q 367 121 304 121 q 445 138 411 121 q 535 196 479 156 l 600 90 q 338 -21 481 -21 q 132 72 208 -21 q 56 338 56 165 q 103 648 56 501 q 250 887 151 794 q 492 979 349 979 m 510 1069 q 442 1094 467 1069 q 418 1160 418 1118 q 451 1244 418 1213 q 532 1276 483 1276 q 599 1252 575 1276 q 624 1186 624 1228 q 590 1102 624 1135 q 510 1069 557 1069 z "},"Ꭓ":{"ha":635,"x_min":-83,"x_max":704,"o":"m 704 960 l 424 415 l 558 -200 l 378 -200 l 303 294 l 108 -200 l -83 -200 l 217 415 l 99 960 l 281 960 l 338 528 l 517 960 l 704 960 z "},"Ƈ":{"ha":653,"x_min":56,"x_max":935,"o":"m 789 1168 q 935 1115 871 1168 l 871 1014 q 799 1039 832 1039 q 726 949 738 1039 l 717 876 l 629 789 q 560 831 593 817 q 490 844 526 844 q 344 765 401 844 q 262 567 288 685 q 236 328 236 449 q 270 171 236 221 q 367 121 304 121 q 445 138 411 121 q 535 196 479 156 l 600 90 q 338 -21 481 -21 q 132 72 208 -21 q 56 338 56 165 q 103 646 56 499 q 245 886 151 793 q 471 979 339 979 q 578 956 531 979 l 583 989 q 649 1119 597 1069 q 789 1168 700 1168 z "},"Ȼ":{"ha":658,"x_min":56,"x_max":717,"o":"m 622 783 q 564 828 593 813 l 313 132 q 367 121 339 121 q 445 138 411 121 q 535 196 479 156 l 600 90 q 338 -21 481 -21 q 261 -11 294 -21 l 229 -100 l 165 -82 l 200 14 q 94 136 132 54 q 56 338 56 218 q 103 648 56 501 q 250 887 151 794 q 492 979 349 979 q 547 975 521 979 l 572 1044 l 636 1026 l 611 957 q 717 876 667 933 l 622 783 m 500 844 l 490 844 q 344 765 401 844 q 262 567 288 685 q 236 328 236 449 q 263 186 236 239 l 500 844 z "},"D":{"ha":760,"x_min":31,"x_max":735,"o":"m 389 960 q 642 885 549 960 q 735 629 735 811 q 620 174 735 349 q 261 0 506 0 l 31 0 l 167 960 l 389 960 m 322 828 l 224 132 l 292 132 q 447 207 388 132 q 533 396 507 282 q 558 632 558 510 q 517 784 558 740 q 394 828 475 828 l 322 828 z "},"Ǳ":{"ha":1331,"x_min":31,"x_max":1378,"o":"m 389 960 q 642 885 549 960 q 735 629 735 811 q 620 174 735 349 q 261 0 506 0 l 31 0 l 167 960 l 389 960 m 322 828 l 224 132 l 292 132 q 447 207 388 132 q 533 396 507 282 q 558 632 558 510 q 517 784 558 740 q 394 828 475 828 l 322 828 m 694 0 l 715 136 l 1168 818 l 843 818 l 864 960 l 1378 960 l 1357 822 l 903 144 l 1272 144 l 1231 0 l 694 0 z "},"Ǆ":{"ha":1331,"x_min":31,"x_max":1378,"o":"m 389 960 q 642 885 549 960 q 735 629 735 811 q 620 174 735 349 q 261 0 506 0 l 31 0 l 167 960 l 389 960 m 322 828 l 224 132 l 292 132 q 447 207 388 132 q 533 396 507 282 q 558 632 558 510 q 517 784 558 740 q 394 828 475 828 l 322 828 m 694 0 l 715 136 l 1168 818 l 843 818 l 864 960 l 1378 960 l 1357 822 l 903 144 l 1272 144 l 1231 0 l 694 0 m 1304 1285 l 1368 1214 l 1182 1044 l 1079 1044 l 940 1222 l 1008 1285 l 1143 1168 l 1304 1285 z "},"Ɖ":{"ha":769,"x_min":25,"x_max":744,"o":"m 399 960 q 651 885 558 960 q 744 629 744 811 q 630 174 744 349 q 271 0 515 0 l 40 0 l 101 432 l 25 432 l 43 549 l 118 549 l 176 960 l 399 960 m 301 132 q 457 207 397 132 q 542 396 517 282 q 568 632 568 510 q 526 784 568 740 q 404 828 485 828 l 332 828 l 293 549 l 447 549 l 429 432 l 276 432 l 233 132 l 301 132 z "},"Ð":{"ha":769,"x_min":25,"x_max":744,"o":"m 399 960 q 651 885 558 960 q 744 629 744 811 q 630 174 744 349 q 271 0 515 0 l 40 0 l 101 432 l 25 432 l 43 549 l 118 549 l 176 960 l 399 960 m 301 132 q 457 207 397 132 q 542 396 517 282 q 568 632 568 510 q 526 784 568 740 q 404 828 485 828 l 332 828 l 293 549 l 447 549 l 429 432 l 276 432 l 233 132 l 301 132 z "},"Ď":{"ha":760,"x_min":31,"x_max":735,"o":"m 389 960 q 642 885 549 960 q 735 629 735 811 q 620 174 735 349 q 261 0 506 0 l 31 0 l 167 960 l 389 960 m 322 828 l 224 132 l 292 132 q 447 207 388 132 q 533 396 507 282 q 558 632 558 510 q 517 784 558 740 q 394 828 475 828 l 322 828 m 628 1285 l 692 1214 l 506 1044 l 403 1044 l 264 1222 l 332 1285 l 467 1168 l 628 1285 z "},"Ḓ":{"ha":760,"x_min":31,"x_max":735,"o":"m 389 960 q 642 885 549 960 q 735 629 735 811 q 620 174 735 349 q 261 0 506 0 l 31 0 l 167 960 l 389 960 m 322 828 l 224 132 l 292 132 q 447 207 388 132 q 533 396 507 282 q 558 632 558 510 q 517 784 558 740 q 394 828 475 828 l 322 828 m 107 -336 l 44 -265 l 231 -92 l 333 -92 l 472 -272 l 400 -336 l 271 -215 l 107 -336 z "},"Đ":{"ha":769,"x_min":25,"x_max":744,"o":"m 399 960 q 651 885 558 960 q 744 629 744 811 q 630 174 744 349 q 271 0 515 0 l 40 0 l 101 432 l 25 432 l 43 549 l 118 549 l 176 960 l 399 960 m 301 132 q 457 207 397 132 q 542 396 517 282 q 568 632 568 510 q 526 784 568 740 q 404 828 485 828 l 332 828 l 293 549 l 447 549 l 429 432 l 276 432 l 233 132 l 301 132 z "},"Ḋ":{"ha":760,"x_min":31,"x_max":735,"o":"m 389 960 q 642 885 549 960 q 735 629 735 811 q 620 174 735 349 q 261 0 506 0 l 31 0 l 167 960 l 389 960 m 322 828 l 224 132 l 292 132 q 447 207 388 132 q 533 396 507 282 q 558 632 558 510 q 517 784 558 740 q 394 828 475 828 l 322 828 m 464 1069 q 397 1094 421 1069 q 372 1160 372 1118 q 405 1244 372 1213 q 486 1276 438 1276 q 553 1252 529 1276 q 578 1186 578 1228 q 544 1102 578 1135 q 464 1069 511 1069 z "},"Ḍ":{"ha":760,"x_min":31,"x_max":735,"o":"m 389 960 q 642 885 549 960 q 735 629 735 811 q 620 174 735 349 q 261 0 506 0 l 31 0 l 167 960 l 389 960 m 322 828 l 224 132 l 292 132 q 447 207 388 132 q 533 396 507 282 q 558 632 558 510 q 517 784 558 740 q 394 828 475 828 l 322 828 m 278 -94 q 345 -119 321 -94 q 369 -185 369 -143 q 337 -269 369 -237 q 256 -301 304 -301 q 188 -277 213 -301 q 164 -211 164 -253 q 197 -127 164 -160 q 278 -94 231 -94 z "},"Ɗ":{"ha":910,"x_min":64,"x_max":886,"o":"m 540 960 q 793 885 700 960 q 886 629 886 811 q 772 174 886 349 q 413 0 657 0 l 182 0 l 300 829 l 267 829 q 201 746 201 829 q 214 661 201 706 l 96 617 q 64 750 64 683 q 121 903 64 846 q 276 960 178 960 l 540 960 m 443 132 q 599 207 539 132 q 684 396 658 282 q 710 632 710 510 q 668 784 710 740 q 546 828 626 828 l 474 828 l 375 132 l 443 132 z "},"Ḏ":{"ha":760,"x_min":31,"x_max":735,"o":"m 389 960 q 642 885 549 960 q 735 629 735 811 q 620 174 735 349 q 261 0 506 0 l 31 0 l 167 960 l 389 960 m 322 828 l 224 132 l 292 132 q 447 207 388 132 q 533 396 507 282 q 558 632 558 510 q 517 784 558 740 q 394 828 475 828 l 322 828 m 119 -129 l 456 -129 l 438 -251 l 100 -251 l 119 -129 z "},"Ƌ":{"ha":675,"x_min":11,"x_max":675,"o":"m 674 958 l 539 0 l 311 0 q 89 67 167 0 q 11 268 11 135 q 107 519 11 429 q 364 608 203 608 l 450 608 l 481 822 l 182 822 l 200 960 l 675 960 l 674 958 m 383 133 l 432 479 l 360 479 q 236 426 278 479 q 194 274 194 372 q 226 167 194 201 q 332 133 258 133 l 383 133 z "},"ǲ":{"ha":1263,"x_min":31,"x_max":1283,"o":"m 389 960 q 642 885 549 960 q 735 629 735 811 q 620 174 735 349 q 261 0 506 0 l 31 0 l 167 960 l 389 960 m 322 828 l 224 132 l 292 132 q 447 207 388 132 q 533 396 507 282 q 558 632 558 510 q 517 784 558 740 q 394 828 475 828 l 322 828 m 1283 735 l 1265 611 l 926 135 l 1207 135 l 1171 0 l 713 0 l 731 124 l 1069 600 l 818 600 l 839 735 l 1283 735 z "},"ǅ":{"ha":1263,"x_min":31,"x_max":1313,"o":"m 389 960 q 642 885 549 960 q 735 629 735 811 q 620 174 735 349 q 261 0 506 0 l 31 0 l 167 960 l 389 960 m 322 828 l 224 132 l 292 132 q 447 207 388 132 q 533 396 507 282 q 558 632 558 510 q 517 784 558 740 q 394 828 475 828 l 322 828 m 1283 735 l 1265 611 l 926 135 l 1207 135 l 1171 0 l 713 0 l 731 124 l 1069 600 l 818 600 l 839 735 l 1283 735 m 1253 1103 l 1313 1033 l 1128 861 l 1025 861 l 889 1033 l 956 1103 l 1086 985 l 1253 1103 z "},"E":{"ha":596,"x_min":31,"x_max":636,"o":"m 636 960 l 596 828 l 322 828 l 283 553 l 526 553 l 507 422 l 265 422 l 224 133 l 522 133 l 501 0 l 31 0 l 167 960 l 636 960 z "},"É":{"ha":596,"x_min":31,"x_max":636,"o":"m 636 960 l 596 828 l 322 828 l 283 553 l 526 553 l 507 422 l 265 422 l 224 133 l 522 133 l 501 0 l 31 0 l 167 960 l 636 960 m 533 1282 l 596 1154 l 317 1043 l 275 1125 l 533 1282 z "},"Ĕ":{"ha":596,"x_min":31,"x_max":636,"o":"m 636 960 l 596 828 l 322 828 l 283 553 l 526 553 l 507 422 l 265 422 l 224 133 l 522 133 l 501 0 l 31 0 l 167 960 l 636 960 m 414 1049 q 285 1105 328 1049 q 249 1247 243 1161 l 342 1263 q 421 1171 349 1171 q 488 1197 460 1171 q 532 1267 517 1224 l 626 1242 q 553 1101 608 1154 q 414 1049 499 1049 z "},"Ě":{"ha":596,"x_min":31,"x_max":651,"o":"m 636 960 l 596 828 l 322 828 l 283 553 l 526 553 l 507 422 l 265 422 l 224 133 l 522 133 l 501 0 l 31 0 l 167 960 l 636 960 m 588 1285 l 651 1214 l 465 1044 l 363 1044 l 224 1222 l 292 1285 l 426 1168 l 588 1285 z "},"Ȩ":{"ha":596,"x_min":31,"x_max":636,"o":"m 322 828 l 283 553 l 526 553 l 507 422 l 265 422 l 224 133 l 522 133 l 501 0 l 314 0 l 301 -78 q 376 -112 351 -83 q 401 -187 401 -140 q 356 -299 401 -250 q 219 -347 311 -347 q 100 -308 144 -347 l 150 -231 q 217 -249 183 -249 q 262 -235 244 -249 q 279 -194 279 -221 q 258 -158 279 -168 q 183 -147 238 -147 l 217 0 l 31 0 l 167 960 l 636 960 l 596 828 l 322 828 z "},"Ê":{"ha":596,"x_min":31,"x_max":636,"o":"m 636 960 l 596 828 l 322 828 l 283 553 l 526 553 l 507 422 l 265 422 l 224 133 l 522 133 l 501 0 l 31 0 l 167 960 l 636 960 m 267 1053 l 203 1124 l 389 1293 l 492 1293 l 631 1115 l 563 1053 l 428 1168 l 267 1053 z "},"Ế":{"ha":596,"x_min":31,"x_max":806,"o":"m 721 1464 l 806 1378 l 601 1185 l 542 1239 l 721 1464 m 260 1000 l 196 1071 l 382 1240 l 485 1240 l 624 1063 l 556 1000 l 421 1115 l 260 1000 m 636 960 l 596 828 l 322 828 l 283 553 l 526 553 l 507 422 l 265 422 l 224 133 l 522 133 l 501 0 l 31 0 l 167 960 l 636 960 z "},"Ệ":{"ha":596,"x_min":31,"x_max":636,"o":"m 636 960 l 596 828 l 322 828 l 283 553 l 526 553 l 507 422 l 265 422 l 224 133 l 522 133 l 501 0 l 31 0 l 167 960 l 636 960 m 267 1053 l 203 1124 l 389 1293 l 492 1293 l 631 1115 l 563 1053 l 428 1168 l 267 1053 m 250 -94 q 317 -119 293 -94 q 342 -185 342 -143 q 309 -269 342 -237 q 228 -301 276 -301 q 160 -277 185 -301 q 136 -211 136 -253 q 169 -127 136 -160 q 250 -94 203 -94 z "},"Ề":{"ha":596,"x_min":31,"x_max":636,"o":"m 207 1461 l 324 1233 l 251 1185 l 100 1383 l 207 1461 m 260 1000 l 196 1071 l 382 1240 l 485 1240 l 624 1063 l 556 1000 l 421 1115 l 260 1000 m 636 960 l 596 828 l 322 828 l 283 553 l 526 553 l 507 422 l 265 422 l 224 133 l 522 133 l 501 0 l 31 0 l 167 960 l 636 960 z "},"Ể":{"ha":596,"x_min":31,"x_max":788,"o":"m 636 960 l 596 828 l 322 828 l 283 553 l 526 553 l 507 422 l 265 422 l 224 133 l 522 133 l 501 0 l 31 0 l 167 960 l 636 960 m 258 1000 l 194 1071 l 381 1240 l 483 1240 l 622 1063 l 554 1000 l 419 1115 l 258 1000 m 579 1279 q 647 1299 625 1285 q 668 1346 668 1314 q 631 1383 668 1383 q 599 1379 613 1383 q 564 1365 585 1375 l 542 1447 q 595 1472 568 1464 q 658 1479 622 1479 q 753 1445 718 1479 q 788 1357 788 1411 q 675 1222 788 1244 l 667 1160 l 565 1160 l 579 1279 z "},"Ễ":{"ha":596,"x_min":31,"x_max":669,"o":"m 518 1281 q 477 1290 494 1281 q 436 1317 460 1299 q 388 1342 406 1342 q 355 1328 369 1342 q 321 1283 340 1314 l 243 1329 q 313 1426 274 1389 q 396 1463 353 1463 q 440 1453 421 1463 q 479 1425 458 1443 q 492 1415 482 1422 q 510 1403 501 1407 q 528 1400 519 1400 q 558 1413 543 1400 q 593 1457 574 1426 l 669 1413 q 599 1315 639 1350 q 518 1281 560 1281 m 263 1000 l 199 1071 l 385 1240 l 488 1240 l 626 1063 l 558 1000 l 424 1115 l 263 1000 m 636 960 l 596 828 l 322 828 l 283 553 l 526 553 l 507 422 l 265 422 l 224 133 l 522 133 l 501 0 l 31 0 l 167 960 l 636 960 z "},"Ȅ":{"ha":596,"x_min":31,"x_max":636,"o":"m 636 960 l 596 828 l 322 828 l 283 553 l 526 553 l 507 422 l 265 422 l 224 133 l 522 133 l 501 0 l 31 0 l 167 960 l 636 960 m 304 1349 l 381 1088 l 281 1050 l 172 1294 l 304 1349 m 497 1347 l 563 1092 l 464 1057 l 364 1296 l 497 1347 z "},"Ë":{"ha":596,"x_min":31,"x_max":650,"o":"m 636 960 l 596 828 l 322 828 l 283 553 l 526 553 l 507 422 l 265 422 l 224 133 l 522 133 l 501 0 l 31 0 l 167 960 l 636 960 m 290 1076 q 233 1099 254 1076 q 211 1156 211 1121 q 240 1230 211 1200 q 311 1260 269 1260 q 370 1238 349 1260 q 392 1181 392 1215 q 362 1106 392 1136 q 290 1076 332 1076 m 550 1076 q 492 1099 514 1076 q 469 1156 469 1121 q 499 1230 469 1200 q 569 1260 529 1260 q 628 1238 607 1260 q 650 1181 650 1215 q 621 1106 650 1135 q 550 1076 592 1076 z "},"Ė":{"ha":596,"x_min":31,"x_max":636,"o":"m 636 960 l 596 828 l 322 828 l 283 553 l 526 553 l 507 422 l 265 422 l 224 133 l 522 133 l 501 0 l 31 0 l 167 960 l 636 960 m 424 1069 q 356 1094 381 1069 q 332 1160 332 1118 q 365 1244 332 1213 q 446 1276 397 1276 q 513 1252 489 1276 q 538 1186 538 1228 q 504 1102 538 1135 q 424 1069 471 1069 z "},"Ẹ":{"ha":596,"x_min":31,"x_max":636,"o":"m 636 960 l 596 828 l 322 828 l 283 553 l 526 553 l 507 422 l 265 422 l 224 133 l 522 133 l 501 0 l 31 0 l 167 960 l 636 960 m 250 -94 q 317 -119 293 -94 q 342 -185 342 -143 q 309 -269 342 -237 q 228 -301 276 -301 q 160 -277 185 -301 q 136 -211 136 -253 q 169 -127 136 -160 q 250 -94 203 -94 z "},"È":{"ha":596,"x_min":31,"x_max":636,"o":"m 636 960 l 596 828 l 322 828 l 283 553 l 526 553 l 507 422 l 265 422 l 224 133 l 522 133 l 501 0 l 31 0 l 167 960 l 636 960 m 365 1279 l 589 1124 l 536 1044 l 289 1154 l 365 1279 z "},"Ẻ":{"ha":596,"x_min":31,"x_max":636,"o":"m 636 960 l 596 828 l 322 828 l 283 553 l 526 553 l 507 422 l 265 422 l 224 133 l 522 133 l 501 0 l 31 0 l 167 960 l 636 960 m 381 1181 q 448 1201 426 1186 q 469 1247 469 1215 q 432 1285 469 1285 q 400 1281 414 1285 q 365 1267 386 1276 l 343 1349 q 397 1373 369 1365 q 460 1381 424 1381 q 554 1347 519 1381 q 589 1258 589 1313 q 476 1124 589 1146 l 468 1061 l 367 1061 l 381 1181 z "},"Ȇ":{"ha":596,"x_min":31,"x_max":636,"o":"m 636 960 l 596 828 l 322 828 l 283 553 l 526 553 l 507 422 l 265 422 l 224 133 l 522 133 l 501 0 l 31 0 l 167 960 l 636 960 m 228 1092 q 308 1243 251 1188 q 447 1299 365 1299 q 574 1240 532 1299 q 611 1086 617 1182 l 515 1072 q 435 1176 508 1176 q 321 1067 356 1176 l 228 1092 z "},"Ē":{"ha":596,"x_min":31,"x_max":636,"o":"m 636 960 l 596 828 l 322 828 l 283 553 l 526 553 l 507 422 l 265 422 l 224 133 l 522 133 l 501 0 l 31 0 l 167 960 l 636 960 m 588 1093 l 251 1093 l 269 1215 l 607 1215 l 588 1093 z "},"Ę":{"ha":596,"x_min":31,"x_max":636,"o":"m 322 828 l 283 553 l 526 553 l 507 422 l 265 422 l 224 133 l 522 133 l 501 0 l 458 0 q 334 -85 367 -44 q 301 -168 301 -126 q 354 -215 301 -215 q 421 -208 382 -215 l 396 -319 q 318 -329 363 -329 q 215 -291 254 -329 q 175 -189 175 -253 q 205 -86 175 -133 q 301 0 235 -39 l 31 0 l 167 960 l 636 960 l 596 828 l 322 828 z "},"Ɛ":{"ha":613,"x_min":18,"x_max":671,"o":"m 425 979 q 567 948 508 979 q 671 856 625 917 l 574 767 q 504 826 539 807 q 431 846 469 846 q 332 799 368 846 q 296 682 296 751 q 325 601 296 629 q 406 574 354 574 l 478 574 l 438 440 l 383 440 q 248 390 296 440 q 200 243 200 339 q 310 118 200 118 q 401 140 358 118 q 488 203 444 161 l 569 110 q 283 -19 453 -19 q 91 48 164 -19 q 18 228 18 115 q 86 426 18 351 q 272 513 154 500 q 160 574 197 529 q 122 690 122 619 q 164 841 122 775 q 275 943 206 907 q 425 979 344 979 z "},"Ǝ":{"ha":592,"x_min":-15,"x_max":592,"o":"m 124 960 l 592 960 l 457 0 l -15 0 l 4 133 l 300 133 l 342 422 l 97 422 l 117 553 l 360 553 l 399 828 l 106 828 l 124 960 z "},"Ʃ":{"ha":582,"x_min":-15,"x_max":628,"o":"m 628 960 l 610 825 l 281 825 l 439 510 l 429 424 l 196 136 l 515 136 l 496 0 l -15 0 l 4 133 l 282 481 l 100 826 l 118 960 l 628 960 z "},"Ɇ":{"ha":596,"x_min":31,"x_max":636,"o":"m 596 828 l 550 828 l 451 553 l 526 553 l 507 422 l 404 422 l 300 133 l 522 133 l 501 0 l 251 0 l 215 -100 l 153 -82 l 182 0 l 31 0 l 167 960 l 529 960 l 560 1044 l 622 1026 l 599 960 l 636 960 l 596 828 m 382 553 l 482 828 l 322 828 l 283 553 l 382 553 m 231 133 l 335 422 l 265 422 l 224 133 l 231 133 z "},"Ẽ":{"ha":596,"x_min":31,"x_max":646,"o":"m 636 960 l 596 828 l 322 828 l 283 553 l 526 553 l 507 422 l 265 422 l 224 133 l 522 133 l 501 0 l 31 0 l 167 960 l 636 960 m 493 1072 q 453 1082 471 1072 q 413 1110 435 1092 q 384 1130 396 1124 q 361 1136 372 1136 q 328 1122 343 1136 q 294 1075 314 1107 l 217 1122 q 288 1223 249 1185 q 369 1261 326 1261 q 413 1251 394 1261 q 454 1222 431 1242 q 481 1202 471 1208 q 503 1196 490 1196 q 533 1210 518 1196 q 568 1256 547 1224 l 646 1210 q 576 1108 615 1144 q 493 1072 536 1072 z "},"Ʒ":{"ha":610,"x_min":-25,"x_max":625,"o":"m 606 829 l 353 553 q 518 489 463 547 q 574 328 574 431 q 528 145 574 224 q 403 24 482 67 q 229 -19 325 -19 q 76 15 136 -19 q -25 115 15 49 l 79 200 q 146 136 113 156 q 229 117 179 117 q 347 172 301 117 q 393 321 393 228 q 362 414 393 386 q 268 442 331 442 l 156 442 l 157 443 l 172 551 l 415 825 l 114 825 l 135 960 l 625 960 l 606 829 z "},"Ǯ":{"ha":610,"x_min":-25,"x_max":629,"o":"m 606 829 l 353 553 q 518 489 463 547 q 574 328 574 431 q 528 145 574 224 q 403 24 482 67 q 229 -19 325 -19 q 76 15 136 -19 q -25 115 15 49 l 79 200 q 146 136 113 156 q 229 117 179 117 q 347 172 301 117 q 393 321 393 228 q 362 414 393 386 q 268 442 331 442 l 156 442 l 157 443 l 172 551 l 415 825 l 114 825 l 135 960 l 625 960 l 606 829 m 565 1285 l 629 1214 l 443 1044 l 340 1044 l 201 1222 l 269 1285 l 404 1168 l 565 1285 z "},"Ƹ":{"ha":613,"x_min":13,"x_max":639,"o":"m 618 825 l 303 825 l 488 550 l 471 442 l 368 442 q 239 390 283 442 q 194 244 194 338 q 301 117 194 117 q 394 138 351 117 q 483 203 436 158 l 567 111 q 441 13 510 46 q 283 -19 372 -19 q 85 50 157 -19 q 13 239 13 119 q 52 403 13 332 q 162 515 92 475 q 321 554 232 554 l 131 829 l 150 960 l 639 960 l 618 825 z "},"F":{"ha":550,"x_min":31,"x_max":622,"o":"m 622 960 l 583 828 l 322 828 l 281 535 l 513 535 l 492 403 l 263 403 l 206 0 l 31 0 l 167 960 l 622 960 z "},"Ḟ":{"ha":550,"x_min":31,"x_max":622,"o":"m 622 960 l 583 828 l 322 828 l 281 535 l 513 535 l 492 403 l 263 403 l 206 0 l 31 0 l 167 960 l 622 960 m 415 1069 q 348 1094 372 1069 q 324 1160 324 1118 q 356 1244 324 1213 q 438 1276 389 1276 q 505 1252 481 1276 q 529 1186 529 1228 q 496 1102 529 1135 q 415 1069 463 1069 z "},"Ƒ":{"ha":550,"x_min":-203,"x_max":622,"o":"m 322 828 l 281 535 l 513 535 l 492 403 l 263 403 l 206 0 l 194 -79 q 113 -244 178 -187 q -49 -301 49 -301 q -137 -286 -101 -301 q -203 -244 -174 -271 l -132 -142 q -94 -162 -108 -156 q -58 -168 -79 -168 q -6 -146 -26 -168 q 21 -83 15 -124 l 31 0 l 167 960 l 622 960 l 583 828 l 322 828 z "},"G":{"ha":742,"x_min":53,"x_max":754,"o":"m 511 979 q 754 867 660 979 l 654 778 q 585 831 618 815 q 507 846 553 846 q 350 765 413 846 q 259 559 288 683 q 231 304 231 435 q 262 161 231 207 q 354 115 293 115 q 481 154 417 115 l 515 410 l 408 410 l 411 542 l 701 542 l 638 76 q 342 -19 493 -19 q 126 68 200 -19 q 53 326 53 156 q 105 642 53 493 q 260 885 157 792 q 511 979 364 979 z "},"Ǵ":{"ha":742,"x_min":53,"x_max":754,"o":"m 511 979 q 754 867 660 979 l 654 778 q 585 831 618 815 q 507 846 553 846 q 350 765 413 846 q 259 559 288 683 q 231 304 231 435 q 262 161 231 207 q 354 115 293 115 q 481 154 417 115 l 515 410 l 408 410 l 411 542 l 701 542 l 638 76 q 342 -19 493 -19 q 126 68 200 -19 q 53 326 53 156 q 105 642 53 493 q 260 885 157 792 q 511 979 364 979 m 631 1282 l 693 1154 l 414 1043 l 372 1125 l 631 1282 z "},"Ɣ":{"ha":658,"x_min":81,"x_max":744,"o":"m 383 107 q 417 -10 407 38 q 428 -106 428 -58 q 378 -251 428 -200 q 240 -301 329 -301 q 132 -263 169 -301 q 94 -161 94 -225 q 121 -40 94 -103 q 206 111 147 22 l 81 960 l 258 960 l 314 229 l 564 960 l 744 960 l 383 107 m 297 -108 q 282 13 297 -57 q 226 -146 226 -92 q 233 -172 226 -162 q 254 -182 240 -182 q 297 -108 297 -182 z "},"Ğ":{"ha":742,"x_min":53,"x_max":754,"o":"m 511 979 q 754 867 660 979 l 654 778 q 585 831 618 815 q 507 846 553 846 q 350 765 413 846 q 259 559 288 683 q 231 304 231 435 q 262 161 231 207 q 354 115 293 115 q 481 154 417 115 l 515 410 l 408 410 l 411 542 l 701 542 l 638 76 q 342 -19 493 -19 q 126 68 200 -19 q 53 326 53 156 q 105 642 53 493 q 260 885 157 792 q 511 979 364 979 m 511 1049 q 383 1105 425 1049 q 346 1247 340 1161 l 439 1263 q 518 1171 446 1171 q 585 1197 557 1171 q 629 1267 614 1224 l 724 1242 q 651 1101 706 1154 q 511 1049 596 1049 z "},"Ǧ":{"ha":742,"x_min":53,"x_max":754,"o":"m 511 979 q 754 867 660 979 l 654 778 q 585 831 618 815 q 507 846 553 846 q 350 765 413 846 q 259 559 288 683 q 231 304 231 435 q 262 161 231 207 q 354 115 293 115 q 481 154 417 115 l 515 410 l 408 410 l 411 542 l 701 542 l 638 76 q 342 -19 493 -19 q 126 68 200 -19 q 53 326 53 156 q 105 642 53 493 q 260 885 157 792 q 511 979 364 979 m 685 1285 l 749 1214 l 563 1044 l 460 1044 l 321 1222 l 389 1285 l 524 1168 l 685 1285 z "},"Ĝ":{"ha":742,"x_min":53,"x_max":754,"o":"m 511 979 q 754 867 660 979 l 654 778 q 585 831 618 815 q 507 846 553 846 q 350 765 413 846 q 259 559 288 683 q 231 304 231 435 q 262 161 231 207 q 354 115 293 115 q 481 154 417 115 l 515 410 l 408 410 l 411 542 l 701 542 l 638 76 q 342 -19 493 -19 q 126 68 200 -19 q 53 326 53 156 q 105 642 53 493 q 260 885 157 792 q 511 979 364 979 m 364 1053 l 300 1124 l 486 1293 l 589 1293 l 728 1115 l 660 1053 l 525 1168 l 364 1053 z "},"Ģ":{"ha":742,"x_min":53,"x_max":754,"o":"m 511 979 q 754 867 660 979 l 654 778 q 585 831 618 815 q 507 846 553 846 q 350 765 413 846 q 259 559 288 683 q 231 304 231 435 q 262 161 231 207 q 354 115 293 115 q 481 154 417 115 l 515 410 l 408 410 l 411 542 l 701 542 l 638 76 q 342 -19 493 -19 q 126 68 200 -19 q 53 326 53 156 q 105 642 53 493 q 260 885 157 792 q 511 979 364 979 m 322 -101 q 382 -124 360 -101 q 404 -181 404 -147 q 394 -233 404 -208 q 356 -308 385 -257 l 288 -429 l 203 -429 l 258 -267 q 228 -203 228 -240 q 255 -130 228 -158 q 322 -101 282 -101 z "},"Ġ":{"ha":742,"x_min":53,"x_max":754,"o":"m 511 979 q 754 867 660 979 l 654 778 q 585 831 618 815 q 507 846 553 846 q 350 765 413 846 q 259 559 288 683 q 231 304 231 435 q 262 161 231 207 q 354 115 293 115 q 481 154 417 115 l 515 410 l 408 410 l 411 542 l 701 542 l 638 76 q 342 -19 493 -19 q 126 68 200 -19 q 53 326 53 156 q 105 642 53 493 q 260 885 157 792 q 511 979 364 979 m 521 1069 q 453 1094 478 1069 q 429 1160 429 1118 q 462 1244 429 1213 q 543 1276 494 1276 q 610 1252 586 1276 q 635 1186 635 1228 q 601 1102 635 1135 q 521 1069 568 1069 z "},"Ɠ":{"ha":693,"x_min":54,"x_max":975,"o":"m 829 1168 q 975 1115 914 1168 l 911 1014 q 839 1039 872 1039 q 767 949 778 1039 l 756 867 l 665 783 q 588 831 624 817 q 507 846 553 846 q 351 765 413 846 q 260 559 289 683 q 232 304 232 435 q 354 115 232 115 q 481 154 419 115 l 517 410 l 410 410 l 413 542 l 703 542 l 638 76 q 343 -19 493 -19 q 127 68 200 -19 q 54 326 54 156 q 105 642 54 493 q 255 885 156 792 q 494 979 354 979 q 617 949 569 979 l 624 989 q 689 1119 638 1069 q 829 1168 740 1168 z "},"Ɂ":{"ha":575,"x_min":79,"x_max":599,"o":"m 185 450 l 250 474 q 375 562 333 504 q 417 715 417 619 q 392 812 417 778 q 318 846 367 846 q 238 825 278 846 q 151 764 199 804 l 79 858 q 205 949 140 918 q 344 979 269 979 q 530 910 461 979 q 599 725 599 842 q 544 518 599 596 q 382 399 489 440 l 349 386 l 296 0 l 121 0 l 185 450 z "},"Ǥ":{"ha":757,"x_min":53,"x_max":754,"o":"m 675 354 l 754 354 l 739 239 l 660 239 l 638 76 q 342 -19 493 -19 q 126 68 200 -19 q 53 326 53 156 q 105 642 53 493 q 260 885 157 792 q 511 979 364 979 q 754 867 660 979 l 654 778 q 585 831 618 815 q 507 846 553 846 q 350 765 413 846 q 259 559 288 683 q 231 304 231 435 q 262 161 231 207 q 354 115 293 115 q 485 157 421 115 l 496 239 l 388 239 l 403 354 l 511 354 l 522 432 l 411 432 l 411 551 l 701 551 l 675 354 z "},"Ȝ":{"ha":576,"x_min":-17,"x_max":582,"o":"m 350 979 q 520 919 458 979 q 582 761 582 860 q 360 497 582 551 q 532 318 532 478 q 377 18 532 135 q -17 -149 222 -99 l -8 -15 q 256 112 164 38 q 347 315 347 186 q 317 399 347 372 q 222 426 288 426 l 146 426 l 186 560 l 246 560 q 358 608 315 560 q 400 738 400 657 q 381 818 400 790 q 317 846 361 846 q 233 825 275 846 q 142 763 192 804 l 74 860 q 350 979 201 979 z "},"H":{"ha":760,"x_min":31,"x_max":760,"o":"m 206 0 l 31 0 l 167 960 l 340 960 l 286 572 l 531 572 l 585 960 l 760 960 l 625 0 l 450 0 l 511 431 l 267 431 l 206 0 z "},"Ħ":{"ha":767,"x_min":35,"x_max":807,"o":"m 807 810 l 792 701 l 728 701 l 629 0 l 454 0 l 515 431 l 271 431 l 210 0 l 35 0 l 135 701 l 68 701 l 83 810 l 150 810 l 171 960 l 344 960 l 324 810 l 568 810 l 589 960 l 764 960 l 743 810 l 807 810 m 535 572 l 553 701 l 308 701 l 290 572 l 535 572 z "},"Ȟ":{"ha":760,"x_min":31,"x_max":760,"o":"m 206 0 l 31 0 l 167 960 l 340 960 l 286 572 l 531 572 l 585 960 l 760 960 l 625 0 l 450 0 l 511 431 l 267 431 l 206 0 m 647 1285 l 711 1214 l 525 1044 l 422 1044 l 283 1222 l 351 1285 l 486 1168 l 647 1285 z "},"Ĥ":{"ha":760,"x_min":31,"x_max":760,"o":"m 206 0 l 31 0 l 167 960 l 340 960 l 286 572 l 531 572 l 585 960 l 760 960 l 625 0 l 450 0 l 511 431 l 267 431 l 206 0 m 326 1053 l 263 1124 l 449 1293 l 551 1293 l 690 1115 l 622 1053 l 488 1168 l 326 1053 z "},"Ḥ":{"ha":760,"x_min":31,"x_max":760,"o":"m 206 0 l 31 0 l 167 960 l 340 960 l 286 572 l 531 572 l 585 960 l 760 960 l 625 0 l 450 0 l 511 431 l 267 431 l 206 0 m 314 -94 q 381 -119 357 -94 q 406 -185 406 -143 q 373 -269 406 -237 q 292 -301 340 -301 q 224 -277 249 -301 q 200 -211 200 -253 q 233 -127 200 -160 q 314 -94 267 -94 z "},"Ɦ":{"ha":910,"x_min":64,"x_max":911,"o":"m 911 960 l 776 0 l 601 0 l 663 431 l 418 431 l 357 0 l 182 0 l 300 829 l 267 829 q 201 746 201 829 q 214 661 201 706 l 96 617 q 64 750 64 683 q 121 903 64 846 q 276 960 178 960 l 492 960 l 438 572 l 682 572 l 736 960 l 911 960 z "},"Ɥ":{"ha":707,"x_min":60,"x_max":707,"o":"m 707 960 l 572 0 l 399 0 l 450 368 q 362 311 406 329 q 264 293 318 293 q 114 355 168 293 q 60 517 60 417 q 64 571 60 544 l 118 960 l 289 960 l 236 568 q 233 531 233 540 q 326 431 233 431 q 469 501 404 431 l 533 960 l 707 960 z "},"Ƕ":{"ha":1083,"x_min":31,"x_max":1040,"o":"m 696 -19 q 534 40 589 -19 q 479 182 479 99 q 482 215 479 193 l 511 431 l 267 431 l 206 0 l 31 0 l 167 960 l 340 960 l 286 572 l 531 572 l 585 960 l 760 960 l 656 210 q 653 181 653 188 q 711 110 653 110 q 842 263 807 110 q 878 599 878 415 q 874 735 878 679 l 1032 735 q 1040 600 1040 668 q 965 148 1040 315 q 696 -19 889 -19 z "},"I":{"ha":340,"x_min":31,"x_max":340,"o":"m 340 960 l 206 0 l 31 0 l 167 960 l 340 960 z "},"Ĳ":{"ha":707,"x_min":31,"x_max":711,"o":"m 340 960 l 206 0 l 31 0 l 167 960 l 340 960 m 594 129 q 539 -43 579 24 q 442 -146 499 -110 q 301 -212 385 -182 l 268 -90 q 352 -33 322 -62 q 397 37 382 -4 q 421 144 413 78 l 536 960 l 711 960 l 594 129 z "},"Í":{"ha":340,"x_min":31,"x_max":446,"o":"m 340 960 l 206 0 l 31 0 l 167 960 l 340 960 m 383 1282 l 446 1154 l 167 1043 l 125 1125 l 383 1282 z "},"Ĭ":{"ha":340,"x_min":31,"x_max":476,"o":"m 340 960 l 206 0 l 31 0 l 167 960 l 340 960 m 264 1049 q 135 1105 178 1049 q 99 1247 93 1161 l 192 1263 q 271 1171 199 1171 q 338 1197 310 1171 q 382 1267 367 1224 l 476 1242 q 403 1101 458 1154 q 264 1049 349 1049 z "},"Ǐ":{"ha":340,"x_min":31,"x_max":501,"o":"m 340 960 l 206 0 l 31 0 l 167 960 l 340 960 m 438 1285 l 501 1214 l 315 1044 l 213 1044 l 74 1222 l 142 1285 l 276 1168 l 438 1285 z "},"Î":{"ha":340,"x_min":31,"x_max":481,"o":"m 340 960 l 206 0 l 31 0 l 167 960 l 340 960 m 117 1053 l 53 1124 l 239 1293 l 342 1293 l 481 1115 l 413 1053 l 278 1168 l 117 1053 z "},"Ȉ":{"ha":340,"x_min":22,"x_max":413,"o":"m 340 960 l 206 0 l 31 0 l 167 960 l 340 960 m 154 1349 l 231 1088 l 131 1050 l 22 1294 l 154 1349 m 347 1347 l 413 1092 l 314 1057 l 214 1296 l 347 1347 z "},"Ï":{"ha":340,"x_min":31,"x_max":500,"o":"m 340 960 l 206 0 l 31 0 l 167 960 l 340 960 m 140 1076 q 83 1099 104 1076 q 61 1156 61 1121 q 90 1230 61 1200 q 161 1260 119 1260 q 220 1238 199 1260 q 242 1181 242 1215 q 212 1106 242 1136 q 140 1076 182 1076 m 400 1076 q 342 1099 364 1076 q 319 1156 319 1121 q 349 1230 319 1200 q 419 1260 379 1260 q 478 1238 457 1260 q 500 1181 500 1215 q 471 1106 500 1135 q 400 1076 442 1076 z "},"Ḯ":{"ha":340,"x_min":31,"x_max":500,"o":"m 340 960 l 206 0 l 31 0 l 167 960 l 340 960 m 404 1463 l 489 1376 l 285 1183 l 225 1238 l 404 1463 m 131 1039 q 73 1061 94 1039 q 51 1119 51 1083 q 81 1194 51 1164 q 151 1224 111 1224 q 210 1201 189 1224 q 232 1143 232 1179 q 203 1069 232 1099 q 131 1039 174 1039 m 399 1039 q 341 1061 363 1039 q 319 1119 319 1083 q 349 1194 319 1164 q 419 1224 378 1224 q 478 1201 457 1224 q 500 1143 500 1179 q 470 1069 500 1099 q 399 1039 440 1039 z "},"İ":{"ha":340,"x_min":31,"x_max":388,"o":"m 340 960 l 206 0 l 31 0 l 167 960 l 340 960 m 274 1069 q 206 1094 231 1069 q 182 1160 182 1118 q 215 1244 182 1213 q 296 1276 247 1276 q 363 1252 339 1276 q 388 1186 388 1228 q 354 1102 388 1135 q 274 1069 321 1069 z "},"Ị":{"ha":340,"x_min":-12,"x_max":340,"o":"m 340 960 l 206 0 l 31 0 l 167 960 l 340 960 m 101 -94 q 169 -119 144 -94 q 193 -185 193 -143 q 160 -269 193 -237 q 79 -301 128 -301 q 12 -277 36 -301 q -12 -211 -12 -253 q 21 -127 -12 -160 q 101 -94 54 -94 z "},"Ì":{"ha":340,"x_min":31,"x_max":439,"o":"m 340 960 l 206 0 l 31 0 l 167 960 l 340 960 m 215 1279 l 439 1124 l 386 1044 l 139 1154 l 215 1279 z "},"Ỉ":{"ha":340,"x_min":31,"x_max":439,"o":"m 340 960 l 206 0 l 31 0 l 167 960 l 340 960 m 231 1181 q 298 1201 276 1186 q 319 1247 319 1215 q 282 1285 319 1285 q 250 1281 264 1285 q 215 1267 236 1276 l 193 1349 q 247 1373 219 1365 q 310 1381 274 1381 q 404 1347 369 1381 q 439 1258 439 1313 q 326 1124 439 1146 l 318 1061 l 217 1061 l 231 1181 z "},"Ȋ":{"ha":340,"x_min":31,"x_max":461,"o":"m 340 960 l 206 0 l 31 0 l 167 960 l 340 960 m 78 1092 q 158 1243 101 1188 q 297 1299 215 1299 q 424 1240 382 1299 q 461 1086 467 1182 l 365 1072 q 285 1176 358 1176 q 171 1067 206 1176 l 78 1092 z "},"Ī":{"ha":340,"x_min":31,"x_max":457,"o":"m 340 960 l 206 0 l 31 0 l 167 960 l 340 960 m 438 1093 l 101 1093 l 119 1215 l 457 1215 l 438 1093 z "},"Į":{"ha":340,"x_min":-119,"x_max":340,"o":"m 340 960 l 206 0 l 164 0 q 40 -85 72 -44 q 7 -168 7 -126 q 60 -215 7 -215 q 126 -208 88 -215 l 101 -319 q 24 -329 68 -329 q -80 -291 -40 -329 q -119 -189 -119 -253 q -83 -78 -119 -128 q 32 14 -47 -28 l 167 960 l 340 960 z "},"Ɩ":{"ha":435,"x_min":44,"x_max":394,"o":"m 394 33 q 233 -21 322 -21 q 94 26 144 -21 q 44 161 44 74 q 47 206 44 175 l 57 281 l 154 960 l 326 960 l 232 281 l 231 281 l 219 190 q 218 171 218 183 q 268 113 218 113 q 306 118 290 113 q 349 138 322 124 l 394 33 z "},"Ɨ":{"ha":372,"x_min":19,"x_max":390,"o":"m 390 565 l 372 433 l 286 433 l 225 0 l 50 0 l 111 433 l 19 433 l 38 565 l 131 565 l 186 960 l 360 960 l 304 565 l 390 565 z "},"Ĩ":{"ha":340,"x_min":31,"x_max":496,"o":"m 340 960 l 206 0 l 31 0 l 167 960 l 340 960 m 343 1072 q 303 1082 321 1072 q 263 1110 285 1092 q 234 1130 246 1124 q 211 1136 222 1136 q 178 1122 193 1136 q 144 1075 164 1107 l 67 1122 q 138 1223 99 1185 q 219 1261 176 1261 q 263 1251 244 1261 q 304 1222 281 1242 q 331 1202 321 1208 q 353 1196 340 1196 q 383 1210 368 1196 q 418 1256 397 1224 l 496 1210 q 426 1108 465 1144 q 343 1072 386 1072 z "},"J":{"ha":367,"x_min":-72,"x_max":371,"o":"m 254 129 q 199 -43 239 24 q 101 -146 158 -110 q -39 -212 44 -182 l -72 -90 q 12 -33 -18 -62 q 57 37 42 -4 q 81 144 72 78 l 196 960 l 371 960 l 254 129 z "},"Ĵ":{"ha":367,"x_min":-72,"x_max":511,"o":"m 254 129 q 199 -43 239 24 q 101 -146 158 -110 q -39 -212 44 -182 l -72 -90 q 12 -33 -18 -62 q 57 37 42 -4 q 81 144 72 78 l 196 960 l 371 960 l 254 129 m 147 1053 l 83 1124 l 269 1293 l 372 1293 l 511 1115 l 443 1053 l 308 1168 l 147 1053 z "},"Ʝ":{"ha":417,"x_min":-156,"x_max":419,"o":"m 283 -14 q 390 -68 344 -36 l 343 -143 q 265 -107 317 -126 q 177 -252 239 -203 q 11 -301 115 -301 q -112 -262 -68 -301 q -156 -156 -156 -224 q -100 -25 -156 -72 q 40 22 -44 22 q 113 19 76 22 l 244 960 l 419 960 l 283 -14 m 6 -201 q 69 -169 47 -201 q 99 -72 90 -137 q 39 -68 74 -68 q -22 -90 0 -68 q -43 -149 -43 -112 q 6 -201 -43 -201 z "},"Ɉ":{"ha":383,"x_min":-71,"x_max":399,"o":"m 381 407 l 294 407 l 256 129 q 200 -43 240 24 q 103 -146 160 -110 q -37 -212 46 -182 l -71 -90 q 13 -33 -17 -62 q 58 37 43 -4 q 82 144 74 78 l 119 407 l 28 407 l 46 543 l 139 543 l 197 960 l 372 960 l 314 543 l 399 543 l 381 407 z "},"K":{"ha":721,"x_min":31,"x_max":783,"o":"m 31 0 l 167 960 l 340 960 l 206 0 l 31 0 m 478 0 l 283 513 l 603 960 l 783 960 l 464 513 l 669 0 l 478 0 z "},"Ǩ":{"ha":721,"x_min":31,"x_max":783,"o":"m 31 0 l 167 960 l 340 960 l 206 0 l 31 0 m 478 0 l 283 513 l 603 960 l 783 960 l 464 513 l 669 0 l 478 0 m 640 1285 l 704 1214 l 518 1044 l 415 1044 l 276 1222 l 344 1285 l 479 1168 l 640 1285 z "},"Ķ":{"ha":721,"x_min":31,"x_max":783,"o":"m 31 0 l 167 960 l 340 960 l 206 0 l 31 0 m 478 0 l 283 513 l 603 960 l 783 960 l 464 513 l 669 0 l 478 0 m 301 -101 q 361 -124 339 -101 q 383 -181 383 -147 q 374 -233 383 -208 q 335 -308 364 -257 l 267 -429 l 182 -429 l 238 -267 q 207 -203 207 -240 q 234 -130 207 -158 q 301 -101 261 -101 z "},"Ƙ":{"ha":749,"x_min":31,"x_max":826,"o":"m 283 513 l 508 856 q 594 951 550 922 q 700 979 638 979 q 826 926 776 979 l 757 832 q 713 847 738 847 q 676 835 692 847 q 642 792 660 822 l 464 513 l 669 0 l 478 0 l 283 513 m 31 0 l 167 960 l 340 960 l 206 0 l 31 0 z "},"L":{"ha":569,"x_min":31,"x_max":533,"o":"m 340 960 l 226 146 l 533 146 l 493 0 l 31 0 l 167 960 l 340 960 z "},"Ǉ":{"ha":907,"x_min":31,"x_max":911,"o":"m 340 960 l 226 146 l 533 146 l 493 0 l 31 0 l 167 960 l 340 960 m 794 129 q 739 -43 779 24 q 642 -146 699 -110 q 501 -212 585 -182 l 468 -90 q 552 -33 522 -62 q 597 37 582 -4 q 621 144 613 78 l 736 960 l 911 960 l 794 129 z "},"Ĺ":{"ha":569,"x_min":31,"x_max":533,"o":"m 340 960 l 226 146 l 533 146 l 493 0 l 31 0 l 167 960 l 340 960 m 383 1282 l 446 1154 l 167 1043 l 125 1125 l 383 1282 z "},"Ƚ":{"ha":582,"x_min":19,"x_max":546,"o":"m 239 146 l 546 146 l 506 0 l 43 0 l 106 436 l 19 436 l 38 572 l 124 572 l 179 960 l 353 960 l 299 572 l 390 572 l 372 436 l 279 436 l 239 146 z "},"Ɬ":{"ha":675,"x_min":24,"x_max":639,"o":"m 639 146 l 599 0 l 136 0 l 186 356 q 65 399 106 360 q 24 507 24 439 q 69 631 24 585 q 188 678 115 678 q 232 672 210 678 l 272 960 l 446 960 l 376 465 q 497 481 419 468 l 503 379 q 363 360 429 363 l 332 146 l 639 146 m 140 515 q 201 464 140 464 l 218 575 q 192 579 206 579 q 154 563 168 579 q 140 515 140 546 z "},"Ľ":{"ha":569,"x_min":31,"x_max":536,"o":"m 340 960 l 226 146 l 533 146 l 493 0 l 31 0 l 167 960 l 340 960 m 410 975 l 536 958 l 443 683 l 356 694 l 410 975 z "},"Ḽ":{"ha":569,"x_min":13,"x_max":533,"o":"m 340 960 l 226 146 l 533 146 l 493 0 l 31 0 l 167 960 l 340 960 m 75 -336 l 13 -265 l 199 -92 l 301 -92 l 440 -272 l 368 -336 l 239 -215 l 75 -336 z "},"Ļ":{"ha":569,"x_min":31,"x_max":533,"o":"m 340 960 l 226 146 l 533 146 l 493 0 l 31 0 l 167 960 l 340 960 m 247 -101 q 307 -124 285 -101 q 329 -181 329 -147 q 319 -233 329 -208 q 281 -308 310 -257 l 213 -429 l 128 -429 l 183 -267 q 153 -203 153 -240 q 180 -130 153 -158 q 247 -101 207 -101 z "},"Ŀ":{"ha":569,"x_min":31,"x_max":576,"o":"m 340 960 l 226 146 l 533 146 l 493 0 l 31 0 l 167 960 l 340 960 m 463 440 q 395 465 419 440 q 371 531 371 489 q 403 615 371 583 q 485 647 436 647 q 552 623 528 647 q 576 557 576 599 q 543 473 576 506 q 463 440 510 440 z "},"Ḷ":{"ha":569,"x_min":31,"x_max":533,"o":"m 340 960 l 226 146 l 533 146 l 493 0 l 31 0 l 167 960 l 340 960 m 246 -94 q 313 -119 289 -94 q 338 -185 338 -143 q 305 -269 338 -237 q 224 -301 272 -301 q 156 -277 181 -301 q 132 -211 132 -253 q 165 -127 132 -160 q 246 -94 199 -94 z "},"ǈ":{"ha":874,"x_min":31,"x_max":901,"o":"m 340 960 l 226 146 l 533 146 l 493 0 l 31 0 l 167 960 l 340 960 m 431 -176 q 508 -130 479 -154 q 556 -62 536 -106 q 586 56 575 -18 l 681 735 l 849 735 l 753 51 q 699 -125 738 -58 q 609 -228 661 -192 q 469 -301 557 -264 l 431 -176 m 788 894 q 720 919 744 894 q 696 985 696 943 q 728 1069 696 1038 q 810 1101 761 1101 q 877 1077 853 1101 q 901 1011 901 1053 q 868 927 901 960 q 788 894 835 894 z "},"Ł":{"ha":608,"x_min":14,"x_max":572,"o":"m 265 146 l 572 146 l 532 0 l 69 0 l 117 335 l 64 296 l 14 386 l 136 467 l 206 960 l 379 960 l 328 593 l 490 700 l 539 610 l 310 460 l 265 146 z "},"M":{"ha":913,"x_min":4,"x_max":879,"o":"m 806 0 l 636 0 l 674 400 q 725 807 690 578 l 504 106 l 335 106 l 296 806 q 242 397 276 596 l 174 0 l 4 0 l 199 960 l 413 960 l 443 275 l 650 960 l 879 960 l 806 0 z "},"Ḿ":{"ha":913,"x_min":4,"x_max":879,"o":"m 806 0 l 636 0 l 674 400 q 725 807 690 578 l 504 106 l 335 106 l 296 806 q 242 397 276 596 l 174 0 l 4 0 l 199 960 l 413 960 l 443 275 l 650 960 l 879 960 l 806 0 m 661 1282 l 724 1154 l 444 1043 l 403 1125 l 661 1282 z "},"Ṁ":{"ha":913,"x_min":4,"x_max":879,"o":"m 806 0 l 636 0 l 674 400 q 725 807 690 578 l 504 106 l 335 106 l 296 806 q 242 397 276 596 l 174 0 l 4 0 l 199 960 l 413 960 l 443 275 l 650 960 l 879 960 l 806 0 m 551 1069 q 484 1094 508 1069 q 460 1160 460 1118 q 492 1244 460 1213 q 574 1276 525 1276 q 641 1252 617 1276 q 665 1186 665 1228 q 632 1102 665 1135 q 551 1069 599 1069 z "},"Ɯ":{"ha":1038,"x_min":46,"x_max":1039,"o":"m 1039 960 l 904 0 l 751 0 l 751 90 q 661 6 706 32 q 565 -19 617 -19 q 468 13 507 -19 q 413 101 429 46 q 211 -19 325 -19 q 89 36 132 -19 q 46 175 46 92 q 49 219 46 204 l 154 960 l 328 960 l 224 219 q 222 193 222 210 q 237 137 222 157 q 278 117 251 117 q 341 142 311 117 q 406 224 371 168 l 406 229 l 508 960 l 683 960 l 581 229 q 578 196 578 204 q 592 138 578 158 q 633 117 607 117 q 697 143 667 117 q 760 226 726 169 l 864 960 l 1039 960 z "},"N":{"ha":757,"x_min":32,"x_max":757,"o":"m 622 0 l 407 0 l 265 811 q 260 610 265 703 q 239 394 256 517 l 186 0 l 32 0 l 167 960 l 382 960 l 524 149 q 527 338 524 263 q 543 508 531 414 l 603 960 l 757 960 l 622 0 z "},"Ǌ":{"ha":1124,"x_min":32,"x_max":1128,"o":"m 622 0 l 407 0 l 265 811 q 260 610 265 703 q 239 394 256 517 l 186 0 l 32 0 l 167 960 l 382 960 l 524 149 q 527 338 524 263 q 543 508 531 414 l 603 960 l 757 960 l 622 0 m 1011 129 q 956 -43 996 24 q 858 -146 915 -110 q 718 -212 801 -182 l 685 -90 q 769 -33 739 -62 q 814 37 799 -4 q 838 144 829 78 l 953 960 l 1128 960 l 1011 129 z "},"Ń":{"ha":757,"x_min":32,"x_max":757,"o":"m 622 0 l 407 0 l 265 811 q 260 610 265 703 q 239 394 256 517 l 186 0 l 32 0 l 167 960 l 382 960 l 524 149 q 527 338 524 263 q 543 508 531 414 l 603 960 l 757 960 l 622 0 m 597 1282 l 660 1154 l 381 1043 l 339 1125 l 597 1282 z "},"Ň":{"ha":757,"x_min":32,"x_max":757,"o":"m 622 0 l 407 0 l 265 811 q 260 610 265 703 q 239 394 256 517 l 186 0 l 32 0 l 167 960 l 382 960 l 524 149 q 527 338 524 263 q 543 508 531 414 l 603 960 l 757 960 l 622 0 m 651 1285 l 715 1214 l 529 1044 l 426 1044 l 288 1222 l 356 1285 l 490 1168 l 651 1285 z "},"Ṋ":{"ha":757,"x_min":32,"x_max":757,"o":"m 622 0 l 407 0 l 265 811 q 260 610 265 703 q 239 394 256 517 l 186 0 l 32 0 l 167 960 l 382 960 l 524 149 q 527 338 524 263 q 543 508 531 414 l 603 960 l 757 960 l 622 0 m 140 -336 l 78 -265 l 264 -92 l 367 -92 l 506 -272 l 433 -336 l 304 -215 l 140 -336 z "},"Ņ":{"ha":757,"x_min":32,"x_max":757,"o":"m 622 0 l 407 0 l 265 811 q 260 610 265 703 q 239 394 256 517 l 186 0 l 32 0 l 167 960 l 382 960 l 524 149 q 527 338 524 263 q 543 508 531 414 l 603 960 l 757 960 l 622 0 m 313 -101 q 372 -124 350 -101 q 394 -181 394 -147 q 385 -233 394 -208 q 346 -308 375 -257 l 278 -429 l 193 -429 l 249 -267 q 218 -203 218 -240 q 245 -130 218 -158 q 313 -101 272 -101 z "},"Ṅ":{"ha":757,"x_min":32,"x_max":757,"o":"m 622 0 l 407 0 l 265 811 q 260 610 265 703 q 239 394 256 517 l 186 0 l 32 0 l 167 960 l 382 960 l 524 149 q 527 338 524 263 q 543 508 531 414 l 603 960 l 757 960 l 622 0 m 488 1069 q 420 1094 444 1069 q 396 1160 396 1118 q 428 1244 396 1213 q 510 1276 461 1276 q 577 1252 553 1276 q 601 1186 601 1228 q 568 1102 601 1135 q 488 1069 535 1069 z "},"Ṇ":{"ha":757,"x_min":32,"x_max":757,"o":"m 622 0 l 407 0 l 265 811 q 260 610 265 703 q 239 394 256 517 l 186 0 l 32 0 l 167 960 l 382 960 l 524 149 q 527 338 524 263 q 543 508 531 414 l 603 960 l 757 960 l 622 0 m 311 -94 q 378 -119 354 -94 q 403 -185 403 -143 q 370 -269 403 -237 q 289 -301 338 -301 q 222 -277 246 -301 q 197 -211 197 -253 q 231 -127 197 -160 q 311 -94 264 -94 z "},"Ǹ":{"ha":757,"x_min":32,"x_max":757,"o":"m 622 0 l 407 0 l 265 811 q 260 610 265 703 q 239 394 256 517 l 186 0 l 32 0 l 167 960 l 382 960 l 524 149 q 527 338 524 263 q 543 508 531 414 l 603 960 l 757 960 l 622 0 m 429 1279 l 653 1124 l 600 1044 l 353 1154 l 429 1279 z "},"Ŋ":{"ha":757,"x_min":32,"x_max":757,"o":"m 757 960 l 611 -79 q 530 -244 594 -187 q 368 -301 465 -301 q 279 -286 315 -301 q 214 -244 243 -271 l 285 -142 q 323 -162 308 -156 q 358 -168 338 -168 q 411 -146 390 -168 q 438 -83 432 -124 l 447 0 l 407 0 l 265 811 q 260 610 265 703 q 239 394 256 517 l 186 0 l 32 0 l 167 960 l 382 960 l 524 149 q 527 338 524 263 q 543 508 531 414 l 603 960 l 757 960 z "},"Ɲ":{"ha":757,"x_min":-203,"x_max":757,"o":"m 757 960 l 622 0 l 407 0 l 265 811 q 260 610 265 703 q 239 394 256 517 l 186 0 l 172 -90 q 99 -247 158 -192 q -53 -301 39 -301 q -137 -285 -103 -301 q -203 -243 -172 -269 l -132 -147 q -94 -167 -108 -161 q -58 -174 -79 -174 q -6 -150 -26 -174 q 21 -83 15 -126 l 32 0 l 167 960 l 382 960 l 524 149 q 527 338 524 263 q 543 508 531 414 l 603 960 l 757 960 z "},"ǋ":{"ha":1082,"x_min":32,"x_max":1110,"o":"m 622 0 l 407 0 l 265 811 q 260 610 265 703 q 239 394 256 517 l 186 0 l 32 0 l 167 960 l 382 960 l 524 149 q 527 338 524 263 q 543 508 531 414 l 603 960 l 757 960 l 622 0 m 639 -176 q 716 -130 688 -154 q 764 -62 744 -106 q 794 56 783 -18 l 889 735 l 1057 735 l 961 51 q 908 -125 946 -58 q 817 -228 869 -192 q 678 -301 765 -264 l 639 -176 m 996 894 q 928 919 953 894 q 904 985 904 943 q 937 1069 904 1038 q 1018 1101 969 1101 q 1085 1077 1061 1101 q 1110 1011 1110 1053 q 1076 927 1110 960 q 996 894 1043 894 z "},"Ƞ":{"ha":747,"x_min":31,"x_max":724,"o":"m 538 979 q 676 923 628 979 q 724 779 724 867 q 721 736 724 751 l 579 -286 l 406 -286 l 546 728 q 549 760 549 750 q 476 843 549 843 q 399 820 436 843 q 313 751 361 797 l 206 0 l 31 0 l 167 960 l 318 960 l 318 876 q 538 979 424 979 z "},"Ñ":{"ha":757,"x_min":32,"x_max":757,"o":"m 622 0 l 407 0 l 265 811 q 260 610 265 703 q 239 394 256 517 l 186 0 l 32 0 l 167 960 l 382 960 l 524 149 q 527 338 524 263 q 543 508 531 414 l 603 960 l 757 960 l 622 0 m 557 1072 q 517 1082 535 1072 q 476 1110 499 1092 q 448 1130 460 1124 q 425 1136 436 1136 q 392 1122 407 1136 q 358 1075 378 1107 l 281 1122 q 351 1223 313 1185 q 433 1261 390 1261 q 476 1251 458 1261 q 518 1222 494 1242 q 544 1202 535 1208 q 567 1196 554 1196 q 597 1210 582 1196 q 632 1256 611 1224 l 710 1210 q 640 1108 679 1144 q 557 1072 600 1072 z "},"O":{"ha":800,"x_min":54,"x_max":776,"o":"m 489 979 q 702 888 628 979 q 776 625 776 797 q 731 316 776 464 q 588 74 685 168 q 343 -21 490 -21 q 129 70 204 -21 q 54 332 54 161 q 100 640 54 492 q 244 883 146 788 q 489 979 342 979 m 478 844 q 337 757 392 844 q 258 545 282 669 q 233 308 233 421 q 264 161 233 207 q 354 115 294 115 q 497 203 442 115 q 575 414 551 290 q 599 651 599 538 q 569 798 599 751 q 478 844 539 844 z "},"Ȣ":{"ha":749,"x_min":36,"x_max":736,"o":"m 704 731 q 658 613 694 658 q 561 542 622 567 q 657 462 624 514 q 690 336 690 410 q 644 153 690 235 q 515 26 599 72 q 324 -19 432 -19 q 168 16 233 -19 q 69 112 103 51 q 36 249 36 172 q 90 428 36 353 q 236 542 143 504 q 167 600 190 564 q 144 693 144 636 q 147 736 144 706 l 176 960 l 353 960 l 319 728 q 317 689 317 700 q 338 622 317 643 q 406 601 360 601 q 529 735 513 601 l 561 960 l 736 960 l 704 731 m 338 115 q 462 174 415 115 q 508 331 508 232 q 478 433 508 397 q 389 468 449 468 q 266 410 313 468 q 219 254 219 351 q 338 115 219 115 z "},"Ó":{"ha":800,"x_min":54,"x_max":776,"o":"m 489 979 q 702 888 628 979 q 776 625 776 797 q 731 316 776 464 q 588 74 685 168 q 343 -21 490 -21 q 129 70 204 -21 q 54 332 54 161 q 100 640 54 492 q 244 883 146 788 q 489 979 342 979 m 478 844 q 337 757 392 844 q 258 545 282 669 q 233 308 233 421 q 264 161 233 207 q 354 115 294 115 q 497 203 442 115 q 575 414 551 290 q 599 651 599 538 q 569 798 599 751 q 478 844 539 844 m 618 1282 l 681 1154 l 401 1043 l 360 1125 l 618 1282 z "},"Ŏ":{"ha":800,"x_min":54,"x_max":776,"o":"m 489 979 q 702 888 628 979 q 776 625 776 797 q 731 316 776 464 q 588 74 685 168 q 343 -21 490 -21 q 129 70 204 -21 q 54 332 54 161 q 100 640 54 492 q 244 883 146 788 q 489 979 342 979 m 478 844 q 337 757 392 844 q 258 545 282 669 q 233 308 233 421 q 264 161 233 207 q 354 115 294 115 q 497 203 442 115 q 575 414 551 290 q 599 651 599 538 q 569 798 599 751 q 478 844 539 844 m 499 1049 q 370 1105 413 1049 q 333 1247 328 1161 l 426 1263 q 506 1171 433 1171 q 573 1197 544 1171 q 617 1267 601 1224 l 711 1242 q 638 1101 693 1154 q 499 1049 583 1049 z "},"Ǒ":{"ha":800,"x_min":54,"x_max":776,"o":"m 489 979 q 702 888 628 979 q 776 625 776 797 q 731 316 776 464 q 588 74 685 168 q 343 -21 490 -21 q 129 70 204 -21 q 54 332 54 161 q 100 640 54 492 q 244 883 146 788 q 489 979 342 979 m 478 844 q 337 757 392 844 q 258 545 282 669 q 233 308 233 421 q 264 161 233 207 q 354 115 294 115 q 497 203 442 115 q 575 414 551 290 q 599 651 599 538 q 569 798 599 751 q 478 844 539 844 m 672 1285 l 736 1214 l 550 1044 l 447 1044 l 308 1222 l 376 1285 l 511 1168 l 672 1285 z "},"Ɵ":{"ha":800,"x_min":54,"x_max":776,"o":"m 489 979 q 702 888 628 979 q 776 625 776 797 q 731 316 776 464 q 588 74 685 168 q 343 -21 490 -21 q 129 70 204 -21 q 54 332 54 161 q 100 640 54 492 q 244 883 146 788 q 489 979 342 979 m 479 847 q 333 762 390 847 q 249 543 276 676 l 600 543 q 606 651 606 594 q 575 801 606 754 q 479 847 544 847 m 351 113 q 502 203 444 113 q 586 432 560 293 l 232 432 q 225 308 225 358 q 257 159 225 206 q 351 113 289 113 z "},"Ô":{"ha":800,"x_min":54,"x_max":776,"o":"m 489 979 q 702 888 628 979 q 776 625 776 797 q 731 316 776 464 q 588 74 685 168 q 343 -21 490 -21 q 129 70 204 -21 q 54 332 54 161 q 100 640 54 492 q 244 883 146 788 q 489 979 342 979 m 478 844 q 337 757 392 844 q 258 545 282 669 q 233 308 233 421 q 264 161 233 207 q 354 115 294 115 q 497 203 442 115 q 575 414 551 290 q 599 651 599 538 q 569 798 599 751 q 478 844 539 844 m 351 1053 l 288 1124 l 474 1293 l 576 1293 l 715 1115 l 647 1053 l 513 1168 l 351 1053 z "},"Ố":{"ha":800,"x_min":54,"x_max":890,"o":"m 806 1464 l 890 1378 l 686 1185 l 626 1239 l 806 1464 m 344 1000 l 281 1071 l 467 1240 l 569 1240 l 708 1063 l 640 1000 l 506 1115 l 344 1000 m 489 979 q 702 888 628 979 q 776 625 776 797 q 731 316 776 464 q 588 74 685 168 q 343 -21 490 -21 q 129 70 204 -21 q 54 332 54 161 q 100 640 54 492 q 244 883 146 788 q 489 979 342 979 m 478 844 q 337 757 392 844 q 258 545 282 669 q 233 308 233 421 q 264 161 233 207 q 354 115 294 115 q 497 203 442 115 q 575 414 551 290 q 599 651 599 538 q 569 798 599 751 q 478 844 539 844 z "},"Ộ":{"ha":800,"x_min":54,"x_max":776,"o":"m 489 979 q 702 888 628 979 q 776 625 776 797 q 731 316 776 464 q 588 74 685 168 q 343 -21 490 -21 q 129 70 204 -21 q 54 332 54 161 q 100 640 54 492 q 244 883 146 788 q 489 979 342 979 m 478 844 q 337 757 392 844 q 258 545 282 669 q 233 308 233 421 q 264 161 233 207 q 354 115 294 115 q 497 203 442 115 q 575 414 551 290 q 599 651 599 538 q 569 798 599 751 q 478 844 539 844 m 351 1053 l 288 1124 l 474 1293 l 576 1293 l 715 1115 l 647 1053 l 513 1168 l 351 1053 m 328 -94 q 395 -119 371 -94 q 419 -185 419 -143 q 387 -269 419 -237 q 306 -301 354 -301 q 238 -277 263 -301 q 214 -211 214 -253 q 247 -127 214 -160 q 328 -94 281 -94 z "},"Ồ":{"ha":800,"x_min":54,"x_max":776,"o":"m 292 1461 l 408 1233 l 336 1185 l 185 1383 l 292 1461 m 344 1000 l 281 1071 l 467 1240 l 569 1240 l 708 1063 l 640 1000 l 506 1115 l 344 1000 m 489 979 q 702 888 628 979 q 776 625 776 797 q 731 316 776 464 q 588 74 685 168 q 343 -21 490 -21 q 129 70 204 -21 q 54 332 54 161 q 100 640 54 492 q 244 883 146 788 q 489 979 342 979 m 478 844 q 337 757 392 844 q 258 545 282 669 q 233 308 233 421 q 264 161 233 207 q 354 115 294 115 q 497 203 442 115 q 575 414 551 290 q 599 651 599 538 q 569 798 599 751 q 478 844 539 844 z "},"Ổ":{"ha":800,"x_min":54,"x_max":872,"o":"m 489 979 q 702 888 628 979 q 776 625 776 797 q 731 316 776 464 q 588 74 685 168 q 343 -21 490 -21 q 129 70 204 -21 q 54 332 54 161 q 100 640 54 492 q 244 883 146 788 q 489 979 342 979 m 478 844 q 337 757 392 844 q 258 545 282 669 q 233 308 233 421 q 264 161 233 207 q 354 115 294 115 q 497 203 442 115 q 575 414 551 290 q 599 651 599 538 q 569 798 599 751 q 478 844 539 844 m 343 1000 l 279 1071 l 465 1240 l 568 1240 l 707 1063 l 639 1000 l 504 1115 l 343 1000 m 664 1279 q 731 1299 710 1285 q 753 1346 753 1314 q 715 1383 753 1383 q 683 1379 697 1383 q 649 1365 669 1375 l 626 1447 q 680 1472 653 1464 q 743 1479 707 1479 q 838 1445 803 1479 q 872 1357 872 1411 q 760 1222 872 1244 l 751 1160 l 650 1160 l 664 1279 z "},"Ỗ":{"ha":800,"x_min":54,"x_max":776,"o":"m 603 1281 q 562 1290 579 1281 q 521 1317 544 1299 q 472 1342 490 1342 q 440 1328 454 1342 q 406 1283 425 1314 l 328 1329 q 398 1426 358 1389 q 481 1463 438 1463 q 524 1453 506 1463 q 564 1425 543 1443 q 576 1415 567 1422 q 595 1403 586 1407 q 613 1400 604 1400 q 643 1413 628 1400 q 678 1457 658 1426 l 754 1413 q 684 1315 724 1350 q 603 1281 644 1281 m 347 1000 l 283 1071 l 469 1240 l 572 1240 l 711 1063 l 643 1000 l 508 1115 l 347 1000 m 489 979 q 702 888 628 979 q 776 625 776 797 q 731 316 776 464 q 588 74 685 168 q 343 -21 490 -21 q 129 70 204 -21 q 54 332 54 161 q 100 640 54 492 q 244 883 146 788 q 489 979 342 979 m 478 844 q 337 757 392 844 q 258 545 282 669 q 233 308 233 421 q 264 161 233 207 q 354 115 294 115 q 497 203 442 115 q 575 414 551 290 q 599 651 599 538 q 569 798 599 751 q 478 844 539 844 z "},"Ȍ":{"ha":800,"x_min":54,"x_max":776,"o":"m 489 979 q 702 888 628 979 q 776 625 776 797 q 731 316 776 464 q 588 74 685 168 q 343 -21 490 -21 q 129 70 204 -21 q 54 332 54 161 q 100 640 54 492 q 244 883 146 788 q 489 979 342 979 m 478 844 q 337 757 392 844 q 258 545 282 669 q 233 308 233 421 q 264 161 233 207 q 354 115 294 115 q 497 203 442 115 q 575 414 551 290 q 599 651 599 538 q 569 798 599 751 q 478 844 539 844 m 389 1349 l 465 1088 l 365 1050 l 257 1294 l 389 1349 m 582 1347 l 647 1092 l 549 1057 l 449 1296 l 582 1347 z "},"Ö":{"ha":800,"x_min":54,"x_max":776,"o":"m 489 979 q 702 888 628 979 q 776 625 776 797 q 731 316 776 464 q 588 74 685 168 q 343 -21 490 -21 q 129 70 204 -21 q 54 332 54 161 q 100 640 54 492 q 244 883 146 788 q 489 979 342 979 m 478 844 q 337 757 392 844 q 258 545 282 669 q 233 308 233 421 q 264 161 233 207 q 354 115 294 115 q 497 203 442 115 q 575 414 551 290 q 599 651 599 538 q 569 798 599 751 q 478 844 539 844 m 375 1076 q 317 1099 339 1076 q 296 1156 296 1121 q 325 1230 296 1200 q 396 1260 354 1260 q 455 1238 433 1260 q 476 1181 476 1215 q 447 1106 476 1136 q 375 1076 417 1076 m 635 1076 q 576 1099 599 1076 q 554 1156 554 1121 q 584 1230 554 1200 q 654 1260 614 1260 q 713 1238 692 1260 q 735 1181 735 1215 q 706 1106 735 1135 q 635 1076 676 1076 z "},"Ȫ":{"ha":800,"x_min":54,"x_max":776,"o":"m 489 979 q 702 888 628 979 q 776 625 776 797 q 731 316 776 464 q 588 74 685 168 q 343 -21 490 -21 q 129 70 204 -21 q 54 332 54 161 q 100 640 54 492 q 244 883 146 788 q 489 979 342 979 m 478 844 q 337 757 392 844 q 258 545 282 669 q 233 308 233 421 q 264 161 233 207 q 354 115 294 115 q 497 203 442 115 q 575 414 551 290 q 599 651 599 538 q 569 798 599 751 q 478 844 539 844 m 365 1038 q 308 1060 329 1038 q 286 1117 286 1082 q 315 1191 286 1161 q 386 1221 344 1221 q 445 1199 424 1221 q 467 1142 467 1176 q 437 1067 467 1097 q 365 1038 407 1038 m 625 1038 q 567 1060 589 1038 q 544 1117 544 1082 q 574 1191 544 1161 q 644 1221 604 1221 q 703 1199 682 1221 q 725 1142 725 1176 q 696 1067 725 1096 q 625 1038 667 1038 m 690 1283 l 354 1283 l 372 1406 l 710 1406 l 690 1283 z "},"Ȯ":{"ha":800,"x_min":54,"x_max":776,"o":"m 489 979 q 702 888 628 979 q 776 625 776 797 q 731 316 776 464 q 588 74 685 168 q 343 -21 490 -21 q 129 70 204 -21 q 54 332 54 161 q 100 640 54 492 q 244 883 146 788 q 489 979 342 979 m 478 844 q 337 757 392 844 q 258 545 282 669 q 233 308 233 421 q 264 161 233 207 q 354 115 294 115 q 497 203 442 115 q 575 414 551 290 q 599 651 599 538 q 569 798 599 751 q 478 844 539 844 m 508 1069 q 441 1094 465 1069 q 417 1160 417 1118 q 449 1244 417 1213 q 531 1276 482 1276 q 598 1252 574 1276 q 622 1186 622 1228 q 589 1102 622 1135 q 508 1069 556 1069 z "},"Ȱ":{"ha":800,"x_min":54,"x_max":776,"o":"m 489 979 q 702 888 628 979 q 776 625 776 797 q 731 316 776 464 q 588 74 685 168 q 343 -21 490 -21 q 129 70 204 -21 q 54 332 54 161 q 100 640 54 492 q 244 883 146 788 q 489 979 342 979 m 478 844 q 337 757 392 844 q 258 545 282 669 q 233 308 233 421 q 264 161 233 207 q 354 115 294 115 q 497 203 442 115 q 575 414 551 290 q 599 651 599 538 q 569 798 599 751 q 478 844 539 844 m 497 1026 q 430 1051 454 1026 q 406 1117 406 1075 q 438 1201 406 1169 q 519 1233 471 1233 q 587 1209 563 1233 q 611 1143 611 1185 q 578 1059 611 1092 q 497 1026 544 1026 m 696 1285 l 360 1285 l 378 1407 l 715 1407 l 696 1285 z "},"Ọ":{"ha":800,"x_min":54,"x_max":776,"o":"m 489 979 q 702 888 628 979 q 776 625 776 797 q 731 316 776 464 q 588 74 685 168 q 343 -21 490 -21 q 129 70 204 -21 q 54 332 54 161 q 100 640 54 492 q 244 883 146 788 q 489 979 342 979 m 478 844 q 337 757 392 844 q 258 545 282 669 q 233 308 233 421 q 264 161 233 207 q 354 115 294 115 q 497 203 442 115 q 575 414 551 290 q 599 651 599 538 q 569 798 599 751 q 478 844 539 844 m 328 -94 q 395 -119 371 -94 q 419 -185 419 -143 q 387 -269 419 -237 q 306 -301 354 -301 q 238 -277 263 -301 q 214 -211 214 -253 q 247 -127 214 -160 q 328 -94 281 -94 z "},"Ò":{"ha":800,"x_min":54,"x_max":776,"o":"m 489 979 q 702 888 628 979 q 776 625 776 797 q 731 316 776 464 q 588 74 685 168 q 343 -21 490 -21 q 129 70 204 -21 q 54 332 54 161 q 100 640 54 492 q 244 883 146 788 q 489 979 342 979 m 478 844 q 337 757 392 844 q 258 545 282 669 q 233 308 233 421 q 264 161 233 207 q 354 115 294 115 q 497 203 442 115 q 575 414 551 290 q 599 651 599 538 q 569 798 599 751 q 478 844 539 844 m 450 1279 l 674 1124 l 621 1044 l 374 1154 l 450 1279 z "},"Ỏ":{"ha":800,"x_min":54,"x_max":776,"o":"m 489 979 q 702 888 628 979 q 776 625 776 797 q 731 316 776 464 q 588 74 685 168 q 343 -21 490 -21 q 129 70 204 -21 q 54 332 54 161 q 100 640 54 492 q 244 883 146 788 q 489 979 342 979 m 478 844 q 337 757 392 844 q 258 545 282 669 q 233 308 233 421 q 264 161 233 207 q 354 115 294 115 q 497 203 442 115 q 575 414 551 290 q 599 651 599 538 q 569 798 599 751 q 478 844 539 844 m 465 1181 q 533 1201 511 1186 q 554 1247 554 1215 q 517 1285 554 1285 q 485 1281 499 1285 q 450 1267 471 1276 l 428 1349 q 481 1373 454 1365 q 544 1381 508 1381 q 639 1347 604 1381 q 674 1258 674 1313 q 561 1124 674 1146 l 553 1061 l 451 1061 l 465 1181 z "},"Ơ":{"ha":840,"x_min":54,"x_max":892,"o":"m 892 992 q 855 863 892 911 q 750 799 818 814 q 776 625 776 728 q 731 316 776 464 q 588 74 685 168 q 343 -21 490 -21 q 129 70 204 -21 q 54 332 54 161 q 100 640 54 492 q 244 883 146 788 q 489 979 342 979 q 706 883 633 979 q 760 916 743 889 q 776 992 776 943 q 771 1056 776 1019 l 883 1071 q 892 992 892 1032 m 354 115 q 497 203 442 115 q 575 414 551 290 q 599 651 599 538 q 569 798 599 751 q 478 844 539 844 q 337 757 392 844 q 258 545 282 669 q 233 308 233 421 q 264 161 233 207 q 354 115 294 115 z "},"Ớ":{"ha":840,"x_min":54,"x_max":892,"o":"m 681 1154 l 401 1043 l 360 1125 l 618 1282 l 681 1154 m 892 992 q 855 863 892 911 q 750 799 818 814 q 776 625 776 728 q 731 316 776 464 q 588 74 685 168 q 343 -21 490 -21 q 129 70 204 -21 q 54 332 54 161 q 100 640 54 492 q 244 883 146 788 q 489 979 342 979 q 706 883 633 979 q 760 916 743 889 q 776 992 776 943 q 771 1056 776 1019 l 883 1071 q 892 992 892 1032 m 354 115 q 497 203 442 115 q 575 414 551 290 q 599 651 599 538 q 569 798 599 751 q 478 844 539 844 q 337 757 392 844 q 258 545 282 669 q 233 308 233 421 q 264 161 233 207 q 354 115 294 115 z "},"Ợ":{"ha":840,"x_min":54,"x_max":892,"o":"m 892 992 q 855 863 892 911 q 750 799 818 814 q 776 625 776 728 q 731 316 776 464 q 588 74 685 168 q 343 -21 490 -21 q 129 70 204 -21 q 54 332 54 161 q 100 640 54 492 q 244 883 146 788 q 489 979 342 979 q 706 883 633 979 q 760 916 743 889 q 776 992 776 943 q 771 1056 776 1019 l 883 1071 q 892 992 892 1032 m 354 115 q 497 203 442 115 q 575 414 551 290 q 599 651 599 538 q 569 798 599 751 q 478 844 539 844 q 337 757 392 844 q 258 545 282 669 q 233 308 233 421 q 264 161 233 207 q 354 115 294 115 m 328 -94 q 395 -119 371 -94 q 419 -185 419 -143 q 387 -269 419 -237 q 306 -301 354 -301 q 238 -277 263 -301 q 214 -211 214 -253 q 247 -127 214 -160 q 328 -94 281 -94 z "},"Ờ":{"ha":840,"x_min":54,"x_max":892,"o":"m 674 1124 l 621 1044 l 374 1154 l 450 1279 l 674 1124 m 892 992 q 855 863 892 911 q 750 799 818 814 q 776 625 776 728 q 731 316 776 464 q 588 74 685 168 q 343 -21 490 -21 q 129 70 204 -21 q 54 332 54 161 q 100 640 54 492 q 244 883 146 788 q 489 979 342 979 q 706 883 633 979 q 760 916 743 889 q 776 992 776 943 q 771 1056 776 1019 l 883 1071 q 892 992 892 1032 m 354 115 q 497 203 442 115 q 575 414 551 290 q 599 651 599 538 q 569 798 599 751 q 478 844 539 844 q 337 757 392 844 q 258 545 282 669 q 233 308 233 421 q 264 161 233 207 q 354 115 294 115 z "},"Ở":{"ha":840,"x_min":54,"x_max":892,"o":"m 517 1285 q 485 1281 499 1285 q 450 1267 471 1276 l 428 1349 q 481 1373 454 1365 q 544 1381 508 1381 q 639 1347 604 1381 q 674 1258 674 1313 q 561 1124 674 1146 l 553 1061 l 451 1061 l 465 1181 q 533 1201 511 1186 q 554 1247 554 1215 q 517 1285 554 1285 m 892 992 q 855 863 892 911 q 750 799 818 814 q 776 625 776 728 q 731 316 776 464 q 588 74 685 168 q 343 -21 490 -21 q 129 70 204 -21 q 54 332 54 161 q 100 640 54 492 q 244 883 146 788 q 489 979 342 979 q 706 883 633 979 q 760 916 743 889 q 776 992 776 943 q 771 1056 776 1019 l 883 1071 q 892 992 892 1032 m 354 115 q 497 203 442 115 q 575 414 551 290 q 599 651 599 538 q 569 798 599 751 q 478 844 539 844 q 337 757 392 844 q 258 545 282 669 q 233 308 233 421 q 264 161 233 207 q 354 115 294 115 z "},"Ỡ":{"ha":840,"x_min":54,"x_max":892,"o":"m 446 1136 q 414 1122 429 1136 q 379 1075 399 1107 l 301 1122 q 372 1223 333 1185 q 454 1261 411 1261 q 497 1251 479 1261 q 539 1222 515 1242 q 565 1202 556 1208 q 588 1196 575 1196 q 617 1210 603 1196 q 653 1256 632 1224 l 731 1210 q 660 1108 700 1144 q 578 1072 621 1072 q 538 1082 556 1072 q 497 1110 519 1092 q 469 1130 481 1124 q 446 1136 457 1136 m 892 992 q 855 863 892 911 q 750 799 818 814 q 776 625 776 728 q 731 316 776 464 q 588 74 685 168 q 343 -21 490 -21 q 129 70 204 -21 q 54 332 54 161 q 100 640 54 492 q 244 883 146 788 q 489 979 342 979 q 706 883 633 979 q 760 916 743 889 q 776 992 776 943 q 771 1056 776 1019 l 883 1071 q 892 992 892 1032 m 354 115 q 497 203 442 115 q 575 414 551 290 q 599 651 599 538 q 569 798 599 751 q 478 844 539 844 q 337 757 392 844 q 258 545 282 669 q 233 308 233 421 q 264 161 233 207 q 354 115 294 115 z "},"Ő":{"ha":800,"x_min":54,"x_max":785,"o":"m 489 979 q 702 888 628 979 q 776 625 776 797 q 731 316 776 464 q 588 74 685 168 q 343 -21 490 -21 q 129 70 204 -21 q 54 332 54 161 q 100 640 54 492 q 244 883 146 788 q 489 979 342 979 m 478 844 q 337 757 392 844 q 258 545 282 669 q 233 308 233 421 q 264 161 233 207 q 354 115 294 115 q 497 203 442 115 q 575 414 551 290 q 599 651 599 538 q 569 798 599 751 q 478 844 539 844 m 679 1349 l 785 1283 l 618 1050 l 536 1093 l 679 1349 m 488 1347 l 593 1286 l 436 1057 l 353 1097 l 488 1347 z "},"Ƣ":{"ha":1090,"x_min":54,"x_max":1065,"o":"m 869 981 q 1014 931 963 981 q 1065 799 1065 882 q 1063 757 1065 771 l 915 -286 l 742 -286 l 889 764 q 890 789 890 772 q 876 835 890 819 q 831 851 863 851 q 740 819 785 851 q 776 625 776 739 q 731 316 776 464 q 588 74 685 168 q 343 -21 490 -21 q 129 70 204 -21 q 54 332 54 161 q 100 640 54 492 q 244 883 146 788 q 489 979 342 979 q 675 913 600 979 q 869 981 764 981 m 354 115 q 497 203 442 115 q 575 414 551 290 q 599 651 599 538 q 569 798 599 751 q 478 844 539 844 q 337 757 392 844 q 258 545 282 669 q 233 308 233 421 q 264 161 233 207 q 354 115 294 115 z "},"Ȏ":{"ha":800,"x_min":54,"x_max":776,"o":"m 489 979 q 702 888 628 979 q 776 625 776 797 q 731 316 776 464 q 588 74 685 168 q 343 -21 490 -21 q 129 70 204 -21 q 54 332 54 161 q 100 640 54 492 q 244 883 146 788 q 489 979 342 979 m 478 844 q 337 757 392 844 q 258 545 282 669 q 233 308 233 421 q 264 161 233 207 q 354 115 294 115 q 497 203 442 115 q 575 414 551 290 q 599 651 599 538 q 569 798 599 751 q 478 844 539 844 m 313 1092 q 393 1243 336 1188 q 532 1299 450 1299 q 659 1240 617 1299 q 696 1086 701 1182 l 600 1072 q 519 1176 593 1176 q 406 1067 440 1176 l 313 1092 z "},"Ō":{"ha":800,"x_min":54,"x_max":776,"o":"m 489 979 q 702 888 628 979 q 776 625 776 797 q 731 316 776 464 q 588 74 685 168 q 343 -21 490 -21 q 129 70 204 -21 q 54 332 54 161 q 100 640 54 492 q 244 883 146 788 q 489 979 342 979 m 478 844 q 337 757 392 844 q 258 545 282 669 q 233 308 233 421 q 264 161 233 207 q 354 115 294 115 q 497 203 442 115 q 575 414 551 290 q 599 651 599 538 q 569 798 599 751 q 478 844 539 844 m 672 1093 l 336 1093 l 354 1215 l 692 1215 l 672 1093 z "},"Ṓ":{"ha":800,"x_min":54,"x_max":776,"o":"m 489 979 q 702 888 628 979 q 776 625 776 797 q 731 316 776 464 q 588 74 685 168 q 343 -21 490 -21 q 129 70 204 -21 q 54 332 54 161 q 100 640 54 492 q 244 883 146 788 q 489 979 342 979 m 478 844 q 337 757 392 844 q 258 545 282 669 q 233 308 233 421 q 264 161 233 207 q 354 115 294 115 q 497 203 442 115 q 575 414 551 290 q 599 651 599 538 q 569 798 599 751 q 478 844 539 844 m 672 1054 l 336 1054 l 354 1176 l 692 1176 l 672 1054 m 636 1471 l 699 1343 l 419 1232 l 378 1314 l 636 1471 z "},"Ṑ":{"ha":800,"x_min":54,"x_max":776,"o":"m 489 979 q 702 888 628 979 q 776 625 776 797 q 731 316 776 464 q 588 74 685 168 q 343 -21 490 -21 q 129 70 204 -21 q 54 332 54 161 q 100 640 54 492 q 244 883 146 788 q 489 979 342 979 m 478 844 q 337 757 392 844 q 258 545 282 669 q 233 308 233 421 q 264 161 233 207 q 354 115 294 115 q 497 203 442 115 q 575 414 551 290 q 599 651 599 538 q 569 798 599 751 q 478 844 539 844 m 671 1054 l 335 1054 l 353 1176 l 690 1176 l 671 1054 m 469 1468 l 693 1313 l 640 1233 l 393 1343 l 469 1468 z "},"Ꞷ":{"ha":1006,"x_min":58,"x_max":968,"o":"m 269 -19 q 112 49 165 -19 q 58 263 58 117 q 106 613 58 429 q 233 960 153 796 l 396 960 q 277 599 324 786 q 231 257 231 413 q 247 148 231 181 q 301 115 264 115 q 363 145 339 115 q 397 238 388 175 l 442 553 l 613 553 l 568 231 q 565 197 565 206 q 629 114 565 114 q 758 284 719 114 q 796 667 796 454 q 789 810 796 743 q 769 960 782 878 l 936 960 q 968 664 968 832 q 892 172 968 364 q 639 -19 815 -19 q 519 22 563 -19 q 471 140 476 63 q 389 21 442 61 q 269 -19 336 -19 z "},"Ǫ":{"ha":800,"x_min":54,"x_max":776,"o":"m 460 -3 q 340 -87 371 -46 q 308 -168 308 -128 q 361 -215 308 -215 q 428 -208 389 -215 l 403 -319 q 325 -329 369 -329 q 222 -291 261 -329 q 182 -189 182 -253 q 283 -15 182 -87 q 114 92 174 3 q 54 332 54 181 q 100 640 54 492 q 244 883 146 788 q 489 979 342 979 q 702 888 628 979 q 776 625 776 797 q 743 358 776 488 q 638 131 710 228 q 460 -3 567 33 m 233 308 q 264 161 233 207 q 354 115 294 115 q 497 203 442 115 q 575 414 551 290 q 599 651 599 538 q 569 798 599 751 q 478 844 539 844 q 337 757 392 844 q 258 545 282 669 q 233 308 233 421 z "},"Ǭ":{"ha":800,"x_min":54,"x_max":776,"o":"m 692 1215 l 672 1093 l 336 1093 l 354 1215 l 692 1215 m 460 -3 q 340 -87 371 -46 q 308 -168 308 -128 q 361 -215 308 -215 q 428 -208 389 -215 l 403 -319 q 325 -329 369 -329 q 222 -291 261 -329 q 182 -189 182 -253 q 283 -15 182 -87 q 114 92 174 3 q 54 332 54 181 q 100 640 54 492 q 244 883 146 788 q 489 979 342 979 q 702 888 628 979 q 776 625 776 797 q 743 358 776 488 q 638 131 710 228 q 460 -3 567 33 m 233 308 q 264 161 233 207 q 354 115 294 115 q 497 203 442 115 q 575 414 551 290 q 599 651 599 538 q 569 798 599 751 q 478 844 539 844 q 337 757 392 844 q 258 545 282 669 q 233 308 233 421 z "},"Ɔ":{"ha":664,"x_min":-28,"x_max":640,"o":"m 361 979 q 567 889 493 979 q 640 625 640 799 q 589 300 640 447 q 440 67 538 153 q 206 -19 342 -19 q -28 97 61 -19 l 67 193 q 135 139 104 157 q 208 121 165 121 q 349 198 292 121 q 433 392 406 275 q 461 631 461 510 q 430 794 461 744 q 340 844 399 844 q 262 828 299 844 q 179 779 225 813 l 108 882 q 226 955 165 931 q 361 979 288 979 z "},"Ø":{"ha":800,"x_min":54,"x_max":776,"o":"m 660 925 q 746 803 715 881 q 776 625 776 726 q 731 316 776 464 q 588 74 685 168 q 343 -21 490 -21 q 292 -17 317 -21 l 231 -181 l 103 -144 l 171 36 q 84 156 114 81 q 54 332 54 232 q 100 640 54 492 q 244 883 146 788 q 489 979 342 979 q 538 975 515 979 l 601 1143 l 728 1106 l 660 925 m 478 847 q 333 759 389 847 q 252 547 276 671 q 228 308 228 422 q 258 160 228 204 l 504 846 q 478 847 496 847 m 354 114 q 500 201 444 114 q 579 413 556 289 q 603 651 603 536 q 576 796 603 751 l 329 115 q 354 114 338 114 z "},"Ǿ":{"ha":800,"x_min":54,"x_max":776,"o":"m 660 925 q 746 803 715 881 q 776 625 776 726 q 731 316 776 464 q 588 74 685 168 q 343 -21 490 -21 q 292 -17 317 -21 l 231 -181 l 103 -144 l 171 36 q 84 156 114 81 q 54 332 54 232 q 100 640 54 492 q 244 883 146 788 q 489 979 342 979 q 538 975 515 979 l 601 1143 l 728 1106 l 660 925 m 478 847 q 333 759 389 847 q 252 547 276 671 q 228 308 228 422 q 258 160 228 204 l 504 846 q 478 847 496 847 m 354 114 q 500 201 444 114 q 579 413 556 289 q 603 651 603 536 q 576 796 603 751 l 329 115 q 354 114 338 114 m 603 1315 l 665 1188 l 386 1076 l 344 1158 l 603 1315 z "},"Õ":{"ha":800,"x_min":54,"x_max":776,"o":"m 489 979 q 702 888 628 979 q 776 625 776 797 q 731 316 776 464 q 588 74 685 168 q 343 -21 490 -21 q 129 70 204 -21 q 54 332 54 161 q 100 640 54 492 q 244 883 146 788 q 489 979 342 979 m 478 844 q 337 757 392 844 q 258 545 282 669 q 233 308 233 421 q 264 161 233 207 q 354 115 294 115 q 497 203 442 115 q 575 414 551 290 q 599 651 599 538 q 569 798 599 751 q 478 844 539 844 m 578 1072 q 538 1082 556 1072 q 497 1110 519 1092 q 469 1130 481 1124 q 446 1136 457 1136 q 413 1122 428 1136 q 379 1075 399 1107 l 301 1122 q 372 1223 333 1185 q 454 1261 411 1261 q 497 1251 479 1261 q 539 1222 515 1242 q 565 1202 556 1208 q 588 1196 575 1196 q 617 1210 603 1196 q 653 1256 632 1224 l 731 1210 q 660 1108 700 1144 q 578 1072 621 1072 z "},"Ṍ":{"ha":800,"x_min":54,"x_max":776,"o":"m 489 979 q 702 888 628 979 q 776 625 776 797 q 731 316 776 464 q 588 74 685 168 q 343 -21 490 -21 q 129 70 204 -21 q 54 332 54 161 q 100 640 54 492 q 244 883 146 788 q 489 979 342 979 m 478 844 q 337 757 392 844 q 258 545 282 669 q 233 308 233 421 q 264 161 233 207 q 354 115 294 115 q 497 203 442 115 q 575 414 551 290 q 599 651 599 538 q 569 798 599 751 q 478 844 539 844 m 574 1051 q 533 1061 551 1051 q 493 1089 515 1071 q 465 1109 476 1103 q 442 1115 453 1115 q 409 1101 424 1115 q 375 1054 394 1086 l 297 1101 q 368 1202 329 1164 q 450 1240 407 1240 q 493 1231 475 1240 q 535 1201 511 1221 q 561 1181 551 1188 q 583 1175 571 1175 q 613 1189 599 1175 q 649 1235 628 1203 l 726 1189 q 656 1088 696 1124 q 574 1051 617 1051 m 633 1511 l 696 1383 l 417 1272 l 375 1354 l 633 1511 z "},"Ȭ":{"ha":800,"x_min":54,"x_max":776,"o":"m 694 1290 l 358 1290 l 376 1413 l 714 1413 l 694 1290 m 569 1051 q 529 1061 547 1051 q 489 1089 511 1071 q 460 1109 472 1103 q 438 1115 449 1115 q 406 1101 421 1115 q 371 1054 390 1086 l 293 1101 q 364 1202 325 1164 q 446 1240 403 1240 q 489 1231 471 1240 q 531 1201 507 1221 q 557 1181 547 1188 q 579 1175 567 1175 q 609 1189 594 1175 q 644 1235 624 1203 l 722 1189 q 652 1088 692 1124 q 569 1051 613 1051 m 489 979 q 702 888 628 979 q 776 625 776 797 q 731 316 776 464 q 588 74 685 168 q 343 -21 490 -21 q 129 70 204 -21 q 54 332 54 161 q 100 640 54 492 q 244 883 146 788 q 489 979 342 979 m 478 844 q 337 757 392 844 q 258 545 282 669 q 233 308 233 421 q 264 161 233 207 q 354 115 294 115 q 497 203 442 115 q 575 414 551 290 q 599 651 599 538 q 569 798 599 751 q 478 844 539 844 z "},"Œ":{"ha":1022,"x_min":54,"x_max":1063,"o":"m 1024 828 l 703 828 q 749 625 749 747 q 746 553 749 600 l 953 553 l 933 422 l 729 422 q 603 133 693 244 l 951 133 l 929 0 l 436 0 q 328 -21 389 -21 q 127 71 200 -21 q 54 332 54 163 q 99 639 54 490 q 238 883 144 788 q 469 979 331 979 q 574 960 528 979 l 1063 960 l 1024 828 m 233 308 q 342 115 233 115 q 474 203 422 115 q 548 415 525 290 q 571 651 571 539 q 543 799 571 753 q 461 844 515 844 q 332 756 383 844 q 257 544 281 668 q 233 308 233 419 z "},"P":{"ha":664,"x_min":31,"x_max":689,"o":"m 396 960 q 613 894 538 960 q 689 703 689 828 q 649 520 689 603 q 525 388 608 438 q 318 338 442 338 l 253 338 l 206 0 l 31 0 l 167 960 l 396 960 m 321 469 q 467 535 425 469 q 510 701 510 601 q 478 800 510 771 q 379 829 447 829 l 322 829 l 272 469 l 321 469 z "},"Ṕ":{"ha":664,"x_min":31,"x_max":689,"o":"m 396 960 q 613 894 538 960 q 689 703 689 828 q 649 520 689 603 q 525 388 608 438 q 318 338 442 338 l 253 338 l 206 0 l 31 0 l 167 960 l 396 960 m 321 469 q 467 535 425 469 q 510 701 510 601 q 478 800 510 771 q 379 829 447 829 l 322 829 l 272 469 l 321 469 m 553 1282 l 615 1154 l 336 1043 l 294 1125 l 553 1282 z "},"Ṗ":{"ha":664,"x_min":31,"x_max":689,"o":"m 396 960 q 613 894 538 960 q 689 703 689 828 q 649 520 689 603 q 525 388 608 438 q 318 338 442 338 l 253 338 l 206 0 l 31 0 l 167 960 l 396 960 m 321 469 q 467 535 425 469 q 510 701 510 601 q 478 800 510 771 q 379 829 447 829 l 322 829 l 272 469 l 321 469 m 443 1069 q 376 1094 400 1069 q 351 1160 351 1118 q 384 1244 351 1213 q 465 1276 417 1276 q 533 1252 508 1276 q 557 1186 557 1228 q 524 1102 557 1135 q 443 1069 490 1069 z "},"Ƥ":{"ha":815,"x_min":64,"x_max":840,"o":"m 547 960 q 765 894 689 960 q 840 703 840 828 q 800 520 840 603 q 676 388 760 438 q 469 338 593 338 l 404 338 l 357 0 l 182 0 l 300 829 l 267 829 q 201 746 201 829 q 214 661 201 706 l 96 617 q 64 750 64 683 q 121 903 64 846 q 276 960 178 960 l 547 960 m 472 469 q 619 535 576 469 q 661 701 661 601 q 630 800 661 771 q 531 829 599 829 l 474 829 l 424 469 l 472 469 z "},"Þ":{"ha":671,"x_min":32,"x_max":672,"o":"m 381 801 q 597 734 522 801 q 672 538 672 667 q 632 352 672 436 q 508 218 592 268 q 301 168 425 168 l 229 168 l 206 0 l 32 0 l 167 960 l 340 960 l 318 801 l 381 801 m 304 300 q 452 367 410 300 q 494 536 494 433 q 463 639 494 608 q 364 669 432 669 l 300 669 l 247 300 l 304 300 z "},"Q":{"ha":800,"x_min":54,"x_max":776,"o":"m 517 54 q 642 27 589 51 q 738 -43 696 3 l 607 -172 q 500 -56 560 -93 q 343 -18 440 -18 q 129 72 204 -18 q 54 332 54 161 q 100 640 54 492 q 244 883 146 788 q 489 979 342 979 q 702 888 628 979 q 776 625 776 797 q 713 278 776 436 q 517 54 649 119 m 233 308 q 264 161 233 207 q 354 115 294 115 q 497 203 442 115 q 575 414 551 290 q 599 651 599 538 q 569 798 599 751 q 478 844 539 844 q 337 757 392 844 q 258 545 282 669 q 233 308 233 421 z "},"Ɋ":{"ha":789,"x_min":57,"x_max":814,"o":"m 814 -247 q 653 -301 742 -301 q 514 -254 564 -301 q 464 -119 464 -207 q 467 -75 464 -106 l 476 0 l 483 49 q 324 -19 415 -19 q 128 74 200 -19 q 57 336 57 167 q 107 662 57 515 q 247 894 157 808 q 450 979 336 979 q 542 955 504 979 q 608 885 581 931 l 633 960 l 783 960 l 650 0 l 639 -90 q 638 -110 638 -97 q 688 -168 638 -168 q 726 -162 710 -168 q 768 -143 742 -157 l 814 -247 m 363 114 q 504 203 440 114 l 581 763 q 531 824 557 804 q 469 844 506 844 q 344 773 397 844 q 264 584 292 701 q 236 331 236 467 q 270 166 236 218 q 363 114 304 114 z "},"R":{"ha":701,"x_min":31,"x_max":690,"o":"m 690 721 q 643 545 690 622 q 503 424 596 468 l 644 0 l 464 0 l 346 386 l 260 388 l 206 0 l 31 0 l 167 960 l 393 960 q 616 897 542 960 q 690 721 690 835 m 338 515 q 471 574 431 515 q 511 715 511 632 q 481 803 511 776 q 389 831 451 831 l 322 831 l 278 515 l 338 515 z "},"Ŕ":{"ha":701,"x_min":31,"x_max":690,"o":"m 690 721 q 643 545 690 622 q 503 424 596 468 l 644 0 l 464 0 l 346 386 l 260 388 l 206 0 l 31 0 l 167 960 l 393 960 q 616 897 542 960 q 690 721 690 835 m 338 515 q 471 574 431 515 q 511 715 511 632 q 481 803 511 776 q 389 831 451 831 l 322 831 l 278 515 l 338 515 m 547 1282 l 610 1154 l 331 1043 l 289 1125 l 547 1282 z "},"Ř":{"ha":701,"x_min":31,"x_max":690,"o":"m 690 721 q 643 545 690 622 q 503 424 596 468 l 644 0 l 464 0 l 346 386 l 260 388 l 206 0 l 31 0 l 167 960 l 393 960 q 616 897 542 960 q 690 721 690 835 m 338 515 q 471 574 431 515 q 511 715 511 632 q 481 803 511 776 q 389 831 451 831 l 322 831 l 278 515 l 338 515 m 601 1285 l 665 1214 l 479 1044 l 376 1044 l 238 1222 l 306 1285 l 440 1168 l 601 1285 z "},"Ŗ":{"ha":701,"x_min":31,"x_max":690,"o":"m 690 721 q 643 545 690 622 q 503 424 596 468 l 644 0 l 464 0 l 346 386 l 260 388 l 206 0 l 31 0 l 167 960 l 393 960 q 616 897 542 960 q 690 721 690 835 m 338 515 q 471 574 431 515 q 511 715 511 632 q 481 803 511 776 q 389 831 451 831 l 322 831 l 278 515 l 338 515 m 313 -101 q 372 -124 350 -101 q 394 -181 394 -147 q 385 -233 394 -208 q 346 -308 375 -257 l 278 -429 l 193 -429 l 249 -267 q 218 -203 218 -240 q 245 -130 218 -158 q 313 -101 272 -101 z "},"Ȑ":{"ha":701,"x_min":31,"x_max":690,"o":"m 690 721 q 643 545 690 622 q 503 424 596 468 l 644 0 l 464 0 l 346 386 l 260 388 l 206 0 l 31 0 l 167 960 l 393 960 q 616 897 542 960 q 690 721 690 835 m 338 515 q 471 574 431 515 q 511 715 511 632 q 481 803 511 776 q 389 831 451 831 l 322 831 l 278 515 l 338 515 m 318 1349 l 394 1088 l 294 1050 l 186 1294 l 318 1349 m 511 1347 l 576 1092 l 478 1057 l 378 1296 l 511 1347 z "},"Ṛ":{"ha":701,"x_min":31,"x_max":690,"o":"m 690 721 q 643 545 690 622 q 503 424 596 468 l 644 0 l 464 0 l 346 386 l 260 388 l 206 0 l 31 0 l 167 960 l 393 960 q 616 897 542 960 q 690 721 690 835 m 338 515 q 471 574 431 515 q 511 715 511 632 q 481 803 511 776 q 389 831 451 831 l 322 831 l 278 515 l 338 515 m 311 -94 q 378 -119 354 -94 q 403 -185 403 -143 q 370 -269 403 -237 q 289 -301 338 -301 q 222 -277 246 -301 q 197 -211 197 -253 q 231 -127 197 -160 q 311 -94 264 -94 z "},"Ȓ":{"ha":701,"x_min":31,"x_max":690,"o":"m 690 721 q 643 545 690 622 q 503 424 596 468 l 644 0 l 464 0 l 346 386 l 260 388 l 206 0 l 31 0 l 167 960 l 393 960 q 616 897 542 960 q 690 721 690 835 m 338 515 q 471 574 431 515 q 511 715 511 632 q 481 803 511 776 q 389 831 451 831 l 322 831 l 278 515 l 338 515 m 242 1092 q 322 1243 265 1188 q 461 1299 379 1299 q 588 1240 546 1299 q 625 1086 631 1182 l 529 1072 q 449 1176 522 1176 q 335 1067 369 1176 l 242 1092 z "},"Ɍ":{"ha":714,"x_min":19,"x_max":703,"o":"m 703 721 q 656 545 703 622 q 515 424 608 468 l 657 0 l 476 0 l 358 386 l 272 388 l 218 0 l 43 0 l 99 388 l 19 388 l 38 515 l 117 515 l 179 960 l 406 960 q 628 897 554 960 q 703 721 703 835 m 350 515 q 483 574 443 515 q 524 715 524 632 q 494 803 524 776 q 401 831 464 831 l 335 831 l 290 515 l 350 515 z "},"Ɽ":{"ha":701,"x_min":18,"x_max":690,"o":"m 690 721 q 643 545 690 622 q 503 424 596 468 l 644 0 l 464 0 l 346 386 l 260 388 l 206 0 l 204 0 l 193 -90 q 192 -110 192 -97 q 242 -168 192 -168 q 280 -162 264 -168 q 322 -143 296 -157 l 368 -247 q 207 -301 296 -301 q 68 -254 118 -301 q 18 -119 18 -207 q 21 -75 18 -106 l 31 0 l 167 960 l 393 960 q 616 897 542 960 q 690 721 690 835 m 338 515 q 471 574 431 515 q 511 715 511 632 q 481 803 511 776 q 389 831 451 831 l 322 831 l 278 515 l 338 515 z "},"S":{"ha":642,"x_min":-31,"x_max":668,"o":"m 413 979 q 668 860 572 979 l 574 768 q 500 826 538 807 q 415 844 463 844 q 313 806 351 844 q 275 706 275 767 q 302 631 275 660 q 408 564 329 601 q 551 460 504 518 q 597 308 597 403 q 553 142 597 218 q 429 23 508 67 q 250 -21 350 -21 q 90 15 158 -21 q -31 113 22 50 l 69 206 q 154 138 113 160 q 253 115 196 115 q 372 162 326 115 q 418 288 418 208 q 389 374 418 342 q 279 446 360 407 q 140 546 182 493 q 99 685 99 599 q 139 832 99 764 q 251 940 179 900 q 413 979 322 979 z "},"Ś":{"ha":642,"x_min":-31,"x_max":668,"o":"m 413 979 q 668 860 572 979 l 574 768 q 500 826 538 807 q 415 844 463 844 q 313 806 351 844 q 275 706 275 767 q 302 631 275 660 q 408 564 329 601 q 551 460 504 518 q 597 308 597 403 q 553 142 597 218 q 429 23 508 67 q 250 -21 350 -21 q 90 15 158 -21 q -31 113 22 50 l 69 206 q 154 138 113 160 q 253 115 196 115 q 372 162 326 115 q 418 288 418 208 q 389 374 418 342 q 279 446 360 407 q 140 546 182 493 q 99 685 99 599 q 139 832 99 764 q 251 940 179 900 q 413 979 322 979 m 542 1282 l 604 1154 l 325 1043 l 283 1125 l 542 1282 z "},"Ꞌ":{"ha":290,"x_min":100,"x_max":310,"o":"m 100 474 l 147 960 l 310 960 l 218 474 l 100 474 z "},"Š":{"ha":642,"x_min":-31,"x_max":668,"o":"m 413 979 q 668 860 572 979 l 574 768 q 500 826 538 807 q 415 844 463 844 q 313 806 351 844 q 275 706 275 767 q 302 631 275 660 q 408 564 329 601 q 551 460 504 518 q 597 308 597 403 q 553 142 597 218 q 429 23 508 67 q 250 -21 350 -21 q 90 15 158 -21 q -31 113 22 50 l 69 206 q 154 138 113 160 q 253 115 196 115 q 372 162 326 115 q 418 288 418 208 q 389 374 418 342 q 279 446 360 407 q 140 546 182 493 q 99 685 99 599 q 139 832 99 764 q 251 940 179 900 q 413 979 322 979 m 596 1285 l 660 1214 l 474 1044 l 371 1044 l 232 1222 l 300 1285 l 435 1168 l 596 1285 z "},"Ş":{"ha":642,"x_min":-31,"x_max":668,"o":"m 408 564 q 551 460 504 518 q 597 308 597 403 q 563 160 597 228 q 465 45 528 92 q 319 -15 401 -1 l 310 -78 q 385 -112 360 -83 q 410 -187 410 -140 q 365 -299 410 -250 q 228 -347 319 -347 q 108 -308 151 -347 l 158 -231 q 225 -249 192 -249 q 270 -235 253 -249 q 288 -194 288 -221 q 267 -158 288 -168 q 192 -147 246 -147 l 221 -19 q -31 113 71 -10 l 69 206 q 154 138 113 160 q 253 115 196 115 q 372 162 326 115 q 418 288 418 208 q 389 374 418 342 q 279 446 360 407 q 140 546 182 493 q 99 685 99 599 q 139 832 99 764 q 251 940 179 900 q 413 979 322 979 q 668 860 572 979 l 574 768 q 500 826 538 807 q 415 844 463 844 q 313 806 351 844 q 275 706 275 767 q 302 631 275 660 q 408 564 329 601 z "},"Ŝ":{"ha":642,"x_min":-31,"x_max":668,"o":"m 413 979 q 668 860 572 979 l 574 768 q 500 826 538 807 q 415 844 463 844 q 313 806 351 844 q 275 706 275 767 q 302 631 275 660 q 408 564 329 601 q 551 460 504 518 q 597 308 597 403 q 553 142 597 218 q 429 23 508 67 q 250 -21 350 -21 q 90 15 158 -21 q -31 113 22 50 l 69 206 q 154 138 113 160 q 253 115 196 115 q 372 162 326 115 q 418 288 418 208 q 389 374 418 342 q 279 446 360 407 q 140 546 182 493 q 99 685 99 599 q 139 832 99 764 q 251 940 179 900 q 413 979 322 979 m 275 1053 l 211 1124 l 397 1293 l 500 1293 l 639 1115 l 571 1053 l 436 1168 l 275 1053 z "},"Ș":{"ha":642,"x_min":-31,"x_max":668,"o":"m 413 979 q 668 860 572 979 l 574 768 q 500 826 538 807 q 415 844 463 844 q 313 806 351 844 q 275 706 275 767 q 302 631 275 660 q 408 564 329 601 q 551 460 504 518 q 597 308 597 403 q 553 142 597 218 q 429 23 508 67 q 250 -21 350 -21 q 90 15 158 -21 q -31 113 22 50 l 69 206 q 154 138 113 160 q 253 115 196 115 q 372 162 326 115 q 418 288 418 208 q 389 374 418 342 q 279 446 360 407 q 140 546 182 493 q 99 685 99 599 q 139 832 99 764 q 251 940 179 900 q 413 979 322 979 m 256 -101 q 315 -124 293 -101 q 338 -181 338 -147 q 328 -233 338 -208 q 289 -308 318 -257 l 221 -429 l 136 -429 l 192 -267 q 161 -203 161 -240 q 188 -130 161 -158 q 256 -101 215 -101 z "},"Ṡ":{"ha":642,"x_min":-31,"x_max":668,"o":"m 413 979 q 668 860 572 979 l 574 768 q 500 826 538 807 q 415 844 463 844 q 313 806 351 844 q 275 706 275 767 q 302 631 275 660 q 408 564 329 601 q 551 460 504 518 q 597 308 597 403 q 553 142 597 218 q 429 23 508 67 q 250 -21 350 -21 q 90 15 158 -21 q -31 113 22 50 l 69 206 q 154 138 113 160 q 253 115 196 115 q 372 162 326 115 q 418 288 418 208 q 389 374 418 342 q 279 446 360 407 q 140 546 182 493 q 99 685 99 599 q 139 832 99 764 q 251 940 179 900 q 413 979 322 979 m 432 1069 q 365 1094 389 1069 q 340 1160 340 1118 q 373 1244 340 1213 q 454 1276 406 1276 q 522 1252 497 1276 q 546 1186 546 1228 q 513 1102 546 1135 q 432 1069 479 1069 z "},"Ṣ":{"ha":642,"x_min":-31,"x_max":668,"o":"m 413 979 q 668 860 572 979 l 574 768 q 500 826 538 807 q 415 844 463 844 q 313 806 351 844 q 275 706 275 767 q 302 631 275 660 q 408 564 329 601 q 551 460 504 518 q 597 308 597 403 q 553 142 597 218 q 429 23 508 67 q 250 -21 350 -21 q 90 15 158 -21 q -31 113 22 50 l 69 206 q 154 138 113 160 q 253 115 196 115 q 372 162 326 115 q 418 288 418 208 q 389 374 418 342 q 279 446 360 407 q 140 546 182 493 q 99 685 99 599 q 139 832 99 764 q 251 940 179 900 q 413 979 322 979 m 254 -94 q 322 -119 297 -94 q 346 -185 346 -143 q 313 -269 346 -237 q 232 -301 281 -301 q 165 -277 189 -301 q 140 -211 140 -253 q 174 -127 140 -160 q 254 -94 207 -94 z "},"ẞ":{"ha":760,"x_min":32,"x_max":751,"o":"m 438 979 q 601 953 521 979 q 751 883 682 926 l 740 790 l 517 531 q 660 461 607 515 q 714 311 714 407 q 674 136 714 211 q 565 21 635 61 q 404 -19 494 -19 q 263 15 314 -19 l 329 132 q 397 118 360 118 q 495 170 460 118 q 531 306 531 222 q 490 408 531 375 q 363 446 450 442 l 378 556 l 596 815 q 435 844 515 844 q 347 810 379 844 q 304 704 314 776 l 207 0 l 32 0 l 129 703 q 226 909 149 839 q 438 979 304 979 z "},"Ə":{"ha":742,"x_min":36,"x_max":719,"o":"m 449 979 q 648 900 576 979 q 719 660 719 821 q 673 322 719 476 q 531 74 626 168 q 297 -19 436 -19 q 103 65 169 -19 q 36 301 36 150 q 44 426 36 368 q 69 551 53 485 l 539 550 q 546 665 546 607 q 515 804 546 764 q 422 844 485 844 q 324 823 369 844 q 229 763 278 801 l 160 863 q 298 951 229 922 q 449 979 367 979 m 304 114 q 431 181 379 114 q 518 417 483 247 l 206 417 q 194 294 194 347 q 221 158 194 203 q 304 114 247 114 z "},"T":{"ha":607,"x_min":74,"x_max":686,"o":"m 686 960 l 649 818 l 454 818 l 339 0 l 164 0 l 279 818 l 74 818 l 93 960 l 686 960 z "},"Ŧ":{"ha":607,"x_min":74,"x_max":686,"o":"m 649 818 l 454 818 l 415 542 l 546 542 l 529 431 l 400 431 l 339 0 l 164 0 l 225 431 l 94 431 l 110 542 l 240 542 l 279 818 l 74 818 l 93 960 l 686 960 l 649 818 z "},"Ť":{"ha":607,"x_min":74,"x_max":686,"o":"m 686 960 l 649 818 l 454 818 l 339 0 l 164 0 l 279 818 l 74 818 l 93 960 l 686 960 m 571 1285 l 635 1214 l 449 1044 l 346 1044 l 207 1222 l 275 1285 l 410 1168 l 571 1285 z "},"Ţ":{"ha":607,"x_min":74,"x_max":686,"o":"m 686 960 l 649 818 l 454 818 l 339 0 l 328 -74 q 401 -109 376 -79 q 426 -183 426 -139 q 382 -298 426 -249 q 244 -347 338 -347 q 125 -308 169 -347 l 175 -226 q 242 -249 208 -249 q 285 -235 268 -249 q 304 -194 303 -221 q 284 -158 306 -168 q 208 -147 263 -147 l 242 0 l 164 0 l 279 818 l 74 818 l 93 960 l 686 960 z "},"Ṱ":{"ha":607,"x_min":1,"x_max":686,"o":"m 686 960 l 649 818 l 454 818 l 339 0 l 164 0 l 279 818 l 74 818 l 93 960 l 686 960 m 64 -336 l 1 -265 l 188 -92 l 290 -92 l 429 -272 l 357 -336 l 228 -215 l 64 -336 z "},"Ț":{"ha":607,"x_min":74,"x_max":686,"o":"m 686 960 l 649 818 l 454 818 l 339 0 l 164 0 l 279 818 l 74 818 l 93 960 l 686 960 m 236 -101 q 296 -124 274 -101 q 318 -181 318 -147 q 308 -233 318 -208 q 269 -308 299 -257 l 201 -429 l 117 -429 l 172 -267 q 142 -203 142 -240 q 169 -130 142 -158 q 236 -101 196 -101 z "},"Ⱦ":{"ha":608,"x_min":60,"x_max":688,"o":"m 650 822 l 558 822 l 403 500 l 333 0 l 174 0 l 179 38 l 113 -100 l 60 -74 l 206 228 l 289 822 l 74 822 l 94 960 l 560 960 l 600 1044 l 653 1018 l 625 960 l 688 960 l 650 822 m 429 690 l 493 822 l 447 822 l 429 690 z "},"Ṫ":{"ha":607,"x_min":74,"x_max":686,"o":"m 686 960 l 649 818 l 454 818 l 339 0 l 164 0 l 279 818 l 74 818 l 93 960 l 686 960 m 407 1069 q 340 1094 364 1069 q 315 1160 315 1118 q 348 1244 315 1213 q 429 1276 381 1276 q 497 1252 472 1276 q 521 1186 521 1228 q 488 1102 521 1135 q 407 1069 454 1069 z "},"Ṭ":{"ha":607,"x_min":74,"x_max":686,"o":"m 686 960 l 649 818 l 454 818 l 339 0 l 164 0 l 279 818 l 74 818 l 93 960 l 686 960 m 235 -94 q 302 -119 278 -94 q 326 -185 326 -143 q 294 -269 326 -237 q 213 -301 261 -301 q 145 -277 169 -301 q 121 -211 121 -253 q 154 -127 121 -160 q 235 -94 188 -94 z "},"Ƭ":{"ha":669,"x_min":64,"x_max":749,"o":"m 711 818 l 515 818 l 400 0 l 226 0 l 342 818 l 267 818 q 201 746 201 818 q 214 661 201 706 l 96 617 q 64 750 64 683 q 122 903 64 846 q 281 960 179 960 l 749 960 l 711 818 z "},"Ṯ":{"ha":607,"x_min":57,"x_max":686,"o":"m 686 960 l 649 818 l 454 818 l 339 0 l 164 0 l 279 818 l 74 818 l 93 960 l 686 960 m 76 -129 l 413 -129 l 394 -251 l 57 -251 l 76 -129 z "},"Ƽ":{"ha":617,"x_min":-17,"x_max":618,"o":"m 217 -21 q -17 111 65 -21 l 88 196 q 149 133 117 153 q 226 113 182 113 q 359 194 317 113 q 401 381 401 276 q 315 494 401 494 q 200 461 261 494 l 82 461 l 153 960 l 618 960 l 579 833 l 292 833 l 256 581 q 390 618 322 618 q 524 559 476 618 q 572 388 572 500 q 533 188 572 281 q 413 37 493 94 q 217 -21 333 -21 z "},"Ƅ":{"ha":686,"x_min":49,"x_max":665,"o":"m 376 618 q 590 551 514 618 q 665 358 665 485 q 629 183 665 264 q 513 51 593 101 q 310 0 433 0 l 49 0 l 146 707 l 72 771 q 213 960 149 843 l 357 960 l 310 618 l 376 618 m 315 133 q 444 197 406 133 q 482 354 482 260 q 453 458 482 425 q 365 490 425 490 l 292 490 l 242 133 l 315 133 z "},"Ƨ":{"ha":621,"x_min":17,"x_max":665,"o":"m 432 979 q 602 922 539 979 q 665 763 665 864 q 633 617 665 676 q 538 515 600 557 q 374 436 475 474 q 235 351 274 399 q 197 224 197 304 q 224 145 197 172 q 299 118 250 118 q 501 208 397 118 l 579 108 q 274 -19 451 -19 q 86 46 156 -19 q 17 217 17 111 q 88 433 17 350 q 299 564 158 515 q 410 613 371 589 q 469 671 450 638 q 488 756 488 704 q 465 823 488 801 q 400 844 442 844 q 306 826 350 844 q 211 768 261 807 l 144 865 q 280 951 211 922 q 432 979 349 979 z "},"Ʈ":{"ha":607,"x_min":74,"x_max":686,"o":"m 328 -90 q 326 -110 326 -97 q 376 -168 326 -168 q 415 -162 399 -168 q 457 -143 431 -157 l 503 -247 q 342 -301 431 -301 q 203 -254 253 -301 q 153 -119 153 -207 q 156 -75 153 -106 l 165 0 l 164 0 l 279 818 l 74 818 l 93 960 l 686 960 l 649 818 l 454 818 l 339 0 l 328 -90 z "},"U":{"ha":738,"x_min":51,"x_max":750,"o":"m 653 263 q 599 120 642 185 q 485 18 556 56 q 319 -19 414 -19 q 120 50 189 -19 q 51 225 51 119 q 56 272 51 250 l 153 960 l 326 960 l 229 256 q 226 225 226 233 q 252 147 226 175 q 331 118 278 118 q 432 158 394 118 q 479 263 469 199 l 575 960 l 750 960 l 653 263 z "},"Ú":{"ha":738,"x_min":51,"x_max":750,"o":"m 653 263 q 599 120 642 185 q 485 18 556 56 q 319 -19 414 -19 q 120 50 189 -19 q 51 225 51 119 q 56 272 51 250 l 153 960 l 326 960 l 229 256 q 226 225 226 233 q 252 147 226 175 q 331 118 278 118 q 432 158 394 118 q 479 263 469 199 l 575 960 l 750 960 l 653 263 m 581 1282 l 643 1154 l 364 1043 l 322 1125 l 581 1282 z "},"Ʉ":{"ha":771,"x_min":68,"x_max":811,"o":"m 796 701 l 731 701 l 669 263 q 615 120 658 185 q 501 18 572 56 q 336 -19 431 -19 q 137 50 206 -19 q 68 225 68 119 q 72 272 68 250 l 133 701 l 68 701 l 85 810 l 149 810 l 169 960 l 343 960 l 322 810 l 571 810 l 592 960 l 767 960 l 746 810 l 811 810 l 796 701 m 556 701 l 307 701 l 246 256 q 243 225 243 233 q 269 147 243 175 q 347 118 294 118 q 449 158 411 118 q 496 263 486 199 l 556 701 z "},"Ŭ":{"ha":738,"x_min":51,"x_max":750,"o":"m 653 263 q 599 120 642 185 q 485 18 556 56 q 319 -19 414 -19 q 120 50 189 -19 q 51 225 51 119 q 56 272 51 250 l 153 960 l 326 960 l 229 256 q 226 225 226 233 q 252 147 226 175 q 331 118 278 118 q 432 158 394 118 q 479 263 469 199 l 575 960 l 750 960 l 653 263 m 461 1049 q 333 1105 375 1049 q 296 1247 290 1161 l 389 1263 q 468 1171 396 1171 q 535 1197 507 1171 q 579 1267 564 1224 l 674 1242 q 601 1101 656 1154 q 461 1049 546 1049 z "},"Ǔ":{"ha":738,"x_min":51,"x_max":750,"o":"m 653 263 q 599 120 642 185 q 485 18 556 56 q 319 -19 414 -19 q 120 50 189 -19 q 51 225 51 119 q 56 272 51 250 l 153 960 l 326 960 l 229 256 q 226 225 226 233 q 252 147 226 175 q 331 118 278 118 q 432 158 394 118 q 479 263 469 199 l 575 960 l 750 960 l 653 263 m 635 1285 l 699 1214 l 513 1044 l 410 1044 l 271 1222 l 339 1285 l 474 1168 l 635 1285 z "},"Û":{"ha":738,"x_min":51,"x_max":750,"o":"m 653 263 q 599 120 642 185 q 485 18 556 56 q 319 -19 414 -19 q 120 50 189 -19 q 51 225 51 119 q 56 272 51 250 l 153 960 l 326 960 l 229 256 q 226 225 226 233 q 252 147 226 175 q 331 118 278 118 q 432 158 394 118 q 479 263 469 199 l 575 960 l 750 960 l 653 263 m 314 1053 l 250 1124 l 436 1293 l 539 1293 l 678 1115 l 610 1053 l 475 1168 l 314 1053 z "},"Ȕ":{"ha":738,"x_min":51,"x_max":750,"o":"m 653 263 q 599 120 642 185 q 485 18 556 56 q 319 -19 414 -19 q 120 50 189 -19 q 51 225 51 119 q 56 272 51 250 l 153 960 l 326 960 l 229 256 q 226 225 226 233 q 252 147 226 175 q 331 118 278 118 q 432 158 394 118 q 479 263 469 199 l 575 960 l 750 960 l 653 263 m 351 1349 l 428 1088 l 328 1050 l 219 1294 l 351 1349 m 544 1347 l 610 1092 l 511 1057 l 411 1296 l 544 1347 z "},"Ü":{"ha":738,"x_min":51,"x_max":750,"o":"m 653 263 q 599 120 642 185 q 485 18 556 56 q 319 -19 414 -19 q 120 50 189 -19 q 51 225 51 119 q 56 272 51 250 l 153 960 l 326 960 l 229 256 q 226 225 226 233 q 252 147 226 175 q 331 118 278 118 q 432 158 394 118 q 479 263 469 199 l 575 960 l 750 960 l 653 263 m 338 1076 q 280 1099 301 1076 q 258 1156 258 1121 q 288 1230 258 1200 q 358 1260 317 1260 q 417 1238 396 1260 q 439 1181 439 1215 q 409 1106 439 1136 q 338 1076 379 1076 m 597 1076 q 539 1099 561 1076 q 517 1156 517 1121 q 547 1230 517 1200 q 617 1260 576 1260 q 676 1238 654 1260 q 697 1181 697 1215 q 668 1106 697 1135 q 597 1076 639 1076 z "},"Ǘ":{"ha":738,"x_min":51,"x_max":750,"o":"m 653 263 q 599 120 642 185 q 485 18 556 56 q 319 -19 414 -19 q 120 50 189 -19 q 51 225 51 119 q 56 272 51 250 l 153 960 l 326 960 l 229 256 q 226 225 226 233 q 252 147 226 175 q 331 118 278 118 q 432 158 394 118 q 479 263 469 199 l 575 960 l 750 960 l 653 263 m 601 1463 l 686 1376 l 482 1183 l 422 1238 l 601 1463 m 328 1039 q 270 1061 292 1039 q 249 1119 249 1083 q 278 1194 249 1164 q 349 1224 308 1224 q 408 1201 386 1224 q 429 1143 429 1179 q 400 1069 429 1099 q 328 1039 371 1039 m 596 1039 q 538 1061 560 1039 q 517 1119 517 1083 q 546 1194 517 1164 q 617 1224 575 1224 q 676 1201 654 1224 q 697 1143 697 1179 q 667 1069 697 1099 q 596 1039 638 1039 z "},"Ǚ":{"ha":738,"x_min":51,"x_max":750,"o":"m 653 263 q 599 120 642 185 q 485 18 556 56 q 319 -19 414 -19 q 120 50 189 -19 q 51 225 51 119 q 56 272 51 250 l 153 960 l 326 960 l 229 256 q 226 225 226 233 q 252 147 226 175 q 331 118 278 118 q 432 158 394 118 q 479 263 469 199 l 575 960 l 750 960 l 653 263 m 656 1467 l 719 1396 l 533 1226 l 431 1226 l 292 1404 l 360 1467 l 494 1350 l 656 1467 m 328 1039 q 269 1061 290 1039 q 247 1119 247 1083 q 277 1194 247 1164 q 349 1224 307 1224 q 406 1201 385 1224 q 428 1143 428 1179 q 399 1069 428 1099 q 328 1039 369 1039 m 596 1039 q 537 1061 558 1039 q 515 1119 515 1083 q 545 1194 515 1164 q 617 1224 575 1224 q 674 1201 653 1224 q 696 1143 696 1179 q 667 1069 696 1099 q 596 1039 638 1039 z "},"Ǜ":{"ha":738,"x_min":51,"x_max":750,"o":"m 653 263 q 599 120 642 185 q 485 18 556 56 q 319 -19 414 -19 q 120 50 189 -19 q 51 225 51 119 q 56 272 51 250 l 153 960 l 326 960 l 229 256 q 226 225 226 233 q 252 147 226 175 q 331 118 278 118 q 432 158 394 118 q 479 263 469 199 l 575 960 l 750 960 l 653 263 m 425 1460 l 542 1232 l 469 1183 l 318 1382 l 425 1460 m 324 1039 q 266 1061 288 1039 q 244 1119 244 1083 q 274 1194 244 1164 q 344 1224 304 1224 q 403 1201 382 1224 q 425 1143 425 1179 q 396 1069 425 1099 q 324 1039 367 1039 m 592 1039 q 534 1061 556 1039 q 513 1119 513 1083 q 542 1194 513 1164 q 613 1224 571 1224 q 672 1201 650 1224 q 693 1143 693 1179 q 663 1069 693 1099 q 592 1039 633 1039 z "},"Ǖ":{"ha":738,"x_min":51,"x_max":750,"o":"m 653 263 q 599 120 642 185 q 485 18 556 56 q 319 -19 414 -19 q 120 50 189 -19 q 51 225 51 119 q 56 272 51 250 l 153 960 l 326 960 l 229 256 q 226 225 226 233 q 252 147 226 175 q 331 118 278 118 q 432 158 394 118 q 479 263 469 199 l 575 960 l 750 960 l 653 263 m 328 1038 q 270 1060 292 1038 q 249 1117 249 1082 q 278 1191 249 1161 q 349 1221 307 1221 q 408 1199 386 1221 q 429 1142 429 1176 q 399 1067 429 1097 q 328 1038 369 1038 m 588 1038 q 529 1060 551 1038 q 507 1117 507 1082 q 537 1191 507 1161 q 607 1221 567 1221 q 666 1199 644 1221 q 688 1142 688 1176 q 658 1067 688 1096 q 588 1038 629 1038 m 653 1283 l 317 1283 l 335 1406 l 672 1406 l 653 1283 z "},"Ụ":{"ha":738,"x_min":51,"x_max":750,"o":"m 653 263 q 599 120 642 185 q 485 18 556 56 q 319 -19 414 -19 q 120 50 189 -19 q 51 225 51 119 q 56 272 51 250 l 153 960 l 326 960 l 229 256 q 226 225 226 233 q 252 147 226 175 q 331 118 278 118 q 432 158 394 118 q 479 263 469 199 l 575 960 l 750 960 l 653 263 m 299 -94 q 366 -119 342 -94 q 390 -185 390 -143 q 358 -269 390 -237 q 276 -301 325 -301 q 209 -277 233 -301 q 185 -211 185 -253 q 218 -127 185 -160 q 299 -94 251 -94 z "},"Ù":{"ha":738,"x_min":51,"x_max":750,"o":"m 653 263 q 599 120 642 185 q 485 18 556 56 q 319 -19 414 -19 q 120 50 189 -19 q 51 225 51 119 q 56 272 51 250 l 153 960 l 326 960 l 229 256 q 226 225 226 233 q 252 147 226 175 q 331 118 278 118 q 432 158 394 118 q 479 263 469 199 l 575 960 l 750 960 l 653 263 m 413 1279 l 636 1124 l 583 1044 l 336 1154 l 413 1279 z "},"Ủ":{"ha":738,"x_min":51,"x_max":750,"o":"m 653 263 q 599 120 642 185 q 485 18 556 56 q 319 -19 414 -19 q 120 50 189 -19 q 51 225 51 119 q 56 272 51 250 l 153 960 l 326 960 l 229 256 q 226 225 226 233 q 252 147 226 175 q 331 118 278 118 q 432 158 394 118 q 479 263 469 199 l 575 960 l 750 960 l 653 263 m 428 1181 q 495 1201 474 1186 q 517 1247 517 1215 q 479 1285 517 1285 q 447 1281 461 1285 q 413 1267 433 1276 l 390 1349 q 444 1373 417 1365 q 507 1381 471 1381 q 601 1347 567 1381 q 636 1258 636 1313 q 524 1124 636 1146 l 515 1061 l 414 1061 l 428 1181 z "},"Ư":{"ha":814,"x_min":51,"x_max":911,"o":"m 911 992 q 863 849 911 899 q 726 793 815 799 l 653 263 q 599 120 642 185 q 485 18 556 56 q 319 -19 414 -19 q 120 50 189 -19 q 51 225 51 119 q 56 272 51 250 l 153 960 l 326 960 l 229 256 q 226 225 226 233 q 252 147 226 175 q 331 118 278 118 q 432 158 394 118 q 479 263 469 199 l 575 960 l 750 960 l 740 888 q 783 922 769 897 q 796 992 796 947 q 790 1056 796 1019 l 903 1071 q 911 992 911 1032 z "},"Ứ":{"ha":814,"x_min":51,"x_max":911,"o":"m 643 1154 l 364 1043 l 322 1125 l 581 1282 l 643 1154 m 911 992 q 863 849 911 899 q 726 793 815 799 l 653 263 q 599 120 642 185 q 485 18 556 56 q 319 -19 414 -19 q 120 50 189 -19 q 51 225 51 119 q 56 272 51 250 l 153 960 l 326 960 l 229 256 q 226 225 226 233 q 252 147 226 175 q 331 118 278 118 q 432 158 394 118 q 479 263 469 199 l 575 960 l 750 960 l 740 888 q 783 922 769 897 q 796 992 796 947 q 790 1056 796 1019 l 903 1071 q 911 992 911 1032 z "},"Ự":{"ha":814,"x_min":51,"x_max":911,"o":"m 911 992 q 863 849 911 899 q 726 793 815 799 l 653 263 q 599 120 642 185 q 485 18 556 56 q 319 -19 414 -19 q 120 50 189 -19 q 51 225 51 119 q 56 272 51 250 l 153 960 l 326 960 l 229 256 q 226 225 226 233 q 252 147 226 175 q 331 118 278 118 q 432 158 394 118 q 479 263 469 199 l 575 960 l 750 960 l 740 888 q 783 922 769 897 q 796 992 796 947 q 790 1056 796 1019 l 903 1071 q 911 992 911 1032 m 299 -94 q 366 -119 342 -94 q 390 -185 390 -143 q 358 -269 390 -237 q 276 -301 325 -301 q 209 -277 233 -301 q 185 -211 185 -253 q 218 -127 185 -160 q 299 -94 251 -94 z "},"Ừ":{"ha":814,"x_min":51,"x_max":911,"o":"m 636 1124 l 583 1044 l 336 1154 l 413 1279 l 636 1124 m 911 992 q 863 849 911 899 q 726 793 815 799 l 653 263 q 599 120 642 185 q 485 18 556 56 q 319 -19 414 -19 q 120 50 189 -19 q 51 225 51 119 q 56 272 51 250 l 153 960 l 326 960 l 229 256 q 226 225 226 233 q 252 147 226 175 q 331 118 278 118 q 432 158 394 118 q 479 263 469 199 l 575 960 l 750 960 l 740 888 q 783 922 769 897 q 796 992 796 947 q 790 1056 796 1019 l 903 1071 q 911 992 911 1032 z "},"Ử":{"ha":814,"x_min":51,"x_max":911,"o":"m 479 1285 q 447 1281 461 1285 q 413 1267 433 1276 l 390 1349 q 444 1373 417 1365 q 507 1381 471 1381 q 601 1347 567 1381 q 636 1258 636 1313 q 524 1124 636 1146 l 515 1061 l 414 1061 l 428 1181 q 495 1201 474 1186 q 517 1247 517 1215 q 479 1285 517 1285 m 911 992 q 863 849 911 899 q 726 793 815 799 l 653 263 q 599 120 642 185 q 485 18 556 56 q 319 -19 414 -19 q 120 50 189 -19 q 51 225 51 119 q 56 272 51 250 l 153 960 l 326 960 l 229 256 q 226 225 226 233 q 252 147 226 175 q 331 118 278 118 q 432 158 394 118 q 479 263 469 199 l 575 960 l 750 960 l 740 888 q 783 922 769 897 q 796 992 796 947 q 790 1056 796 1019 l 903 1071 q 911 992 911 1032 z "},"Ữ":{"ha":814,"x_min":51,"x_max":911,"o":"m 408 1136 q 376 1122 392 1136 q 342 1075 361 1107 l 264 1122 q 335 1223 296 1185 q 417 1261 374 1261 q 460 1251 442 1261 q 501 1222 478 1242 q 528 1202 518 1208 q 550 1196 538 1196 q 580 1210 565 1196 q 615 1256 594 1224 l 693 1210 q 623 1108 663 1144 q 540 1072 583 1072 q 500 1082 518 1072 q 460 1110 482 1092 q 431 1130 443 1124 q 408 1136 419 1136 m 911 992 q 863 849 911 899 q 726 793 815 799 l 653 263 q 599 120 642 185 q 485 18 556 56 q 319 -19 414 -19 q 120 50 189 -19 q 51 225 51 119 q 56 272 51 250 l 153 960 l 326 960 l 229 256 q 226 225 226 233 q 252 147 226 175 q 331 118 278 118 q 432 158 394 118 q 479 263 469 199 l 575 960 l 750 960 l 740 888 q 783 922 769 897 q 796 992 796 947 q 790 1056 796 1019 l 903 1071 q 911 992 911 1032 z "},"Ű":{"ha":738,"x_min":51,"x_max":750,"o":"m 653 263 q 599 120 642 185 q 485 18 556 56 q 319 -19 414 -19 q 120 50 189 -19 q 51 225 51 119 q 56 272 51 250 l 153 960 l 326 960 l 229 256 q 226 225 226 233 q 252 147 226 175 q 331 118 278 118 q 432 158 394 118 q 479 263 469 199 l 575 960 l 750 960 l 653 263 m 642 1349 l 747 1283 l 581 1050 l 499 1093 l 642 1349 m 450 1347 l 556 1286 l 399 1057 l 315 1097 l 450 1347 z "},"Ȗ":{"ha":738,"x_min":51,"x_max":750,"o":"m 653 263 q 599 120 642 185 q 485 18 556 56 q 319 -19 414 -19 q 120 50 189 -19 q 51 225 51 119 q 56 272 51 250 l 153 960 l 326 960 l 229 256 q 226 225 226 233 q 252 147 226 175 q 331 118 278 118 q 432 158 394 118 q 479 263 469 199 l 575 960 l 750 960 l 653 263 m 275 1092 q 356 1243 299 1188 q 494 1299 413 1299 q 622 1240 579 1299 q 658 1086 664 1182 l 563 1072 q 482 1176 556 1176 q 368 1067 403 1176 l 275 1092 z "},"Ū":{"ha":738,"x_min":51,"x_max":750,"o":"m 653 263 q 599 120 642 185 q 485 18 556 56 q 319 -19 414 -19 q 120 50 189 -19 q 51 225 51 119 q 56 272 51 250 l 153 960 l 326 960 l 229 256 q 226 225 226 233 q 252 147 226 175 q 331 118 278 118 q 432 158 394 118 q 479 263 469 199 l 575 960 l 750 960 l 653 263 m 635 1093 l 299 1093 l 317 1215 l 654 1215 l 635 1093 z "},"Ų":{"ha":738,"x_min":53,"x_max":750,"o":"m 750 960 l 653 263 q 582 97 639 168 q 433 -3 525 25 q 322 -81 353 -43 q 290 -158 290 -118 q 346 -215 290 -215 q 417 -206 379 -215 l 393 -319 q 314 -331 353 -331 q 205 -294 246 -331 q 164 -196 164 -257 q 198 -93 164 -139 q 292 -18 232 -47 q 114 57 175 -11 q 53 225 53 125 q 56 272 53 257 l 153 960 l 326 960 l 229 256 q 226 225 226 233 q 252 147 226 175 q 331 118 278 118 q 432 158 394 118 q 479 263 469 199 l 575 960 l 750 960 z "},"Ʊ":{"ha":807,"x_min":57,"x_max":815,"o":"m 346 -19 q 133 74 210 -19 q 57 329 57 168 q 108 622 57 493 q 285 828 158 751 l 149 828 l 168 960 l 446 960 l 428 832 q 278 631 322 782 q 235 313 235 479 q 356 114 235 114 q 501 195 444 114 q 581 395 557 276 q 606 632 606 514 q 585 756 606 711 q 518 833 565 801 l 536 960 l 815 960 l 796 828 l 657 828 q 747 724 718 782 q 776 579 776 665 q 728 294 776 432 q 583 69 681 157 q 346 -19 485 -19 z "},"Ů":{"ha":738,"x_min":51,"x_max":750,"o":"m 653 263 q 599 120 642 185 q 485 18 556 56 q 319 -19 414 -19 q 120 50 189 -19 q 51 225 51 119 q 56 272 51 250 l 153 960 l 326 960 l 229 256 q 226 225 226 233 q 252 147 226 175 q 331 118 278 118 q 432 158 394 118 q 479 263 469 199 l 575 960 l 750 960 l 653 263 m 500 1354 q 599 1314 563 1354 q 636 1210 636 1274 q 588 1082 636 1133 q 464 1031 540 1031 q 365 1071 401 1031 q 328 1175 328 1111 q 376 1303 328 1251 q 500 1354 425 1354 m 493 1268 q 444 1242 463 1268 q 426 1178 426 1217 q 438 1133 426 1149 q 472 1117 450 1117 q 520 1143 503 1117 q 538 1207 538 1169 q 493 1268 538 1268 z "},"Ũ":{"ha":738,"x_min":51,"x_max":750,"o":"m 653 263 q 599 120 642 185 q 485 18 556 56 q 319 -19 414 -19 q 120 50 189 -19 q 51 225 51 119 q 56 272 51 250 l 153 960 l 326 960 l 229 256 q 226 225 226 233 q 252 147 226 175 q 331 118 278 118 q 432 158 394 118 q 479 263 469 199 l 575 960 l 750 960 l 653 263 m 540 1072 q 500 1082 518 1072 q 460 1110 482 1092 q 431 1130 443 1124 q 408 1136 419 1136 q 376 1122 390 1136 q 342 1075 361 1107 l 264 1122 q 335 1223 296 1185 q 417 1261 374 1261 q 460 1251 442 1261 q 501 1222 478 1242 q 528 1202 518 1208 q 550 1196 538 1196 q 580 1210 565 1196 q 615 1256 594 1224 l 693 1210 q 623 1108 663 1144 q 540 1072 583 1072 z "},"Ṹ":{"ha":738,"x_min":51,"x_max":750,"o":"m 653 263 q 599 120 642 185 q 485 18 556 56 q 319 -19 414 -19 q 120 50 189 -19 q 51 225 51 119 q 56 272 51 250 l 153 960 l 326 960 l 229 256 q 226 225 226 233 q 252 147 226 175 q 331 118 278 118 q 432 158 394 118 q 479 263 469 199 l 575 960 l 750 960 l 653 263 m 536 1051 q 496 1061 514 1051 q 456 1089 478 1071 q 427 1109 439 1103 q 404 1115 415 1115 q 372 1101 386 1115 q 338 1054 357 1086 l 260 1101 q 331 1202 292 1164 q 413 1240 369 1240 q 456 1231 438 1240 q 497 1201 474 1221 q 524 1181 514 1188 q 546 1175 533 1175 q 576 1189 561 1175 q 611 1235 590 1203 l 689 1189 q 619 1088 658 1124 q 536 1051 579 1051 m 596 1511 l 658 1383 l 379 1272 l 338 1354 l 596 1511 z "},"V":{"ha":658,"x_min":81,"x_max":743,"o":"m 743 960 l 392 0 l 172 0 l 81 960 l 258 960 l 304 156 l 564 960 l 743 960 z "},"Ʋ":{"ha":733,"x_min":51,"x_max":729,"o":"m 585 979 q 692 941 654 979 q 729 831 729 903 q 725 783 729 808 l 668 365 q 544 83 643 185 q 299 -19 446 -19 q 117 48 183 -19 q 51 222 51 115 q 56 272 51 247 l 153 960 l 328 960 l 231 264 q 228 224 228 236 q 249 145 228 172 q 314 118 271 118 q 430 183 382 118 q 494 375 478 247 l 551 804 l 553 818 q 525 849 553 849 q 493 843 506 849 l 481 956 q 585 979 528 979 z "},"Ʌ":{"ha":681,"x_min":-54,"x_max":632,"o":"m 531 960 l 632 0 l 456 0 l 406 828 l 129 0 l -54 0 l 318 960 l 531 960 z "},"W":{"ha":961,"x_min":100,"x_max":1025,"o":"m 1025 960 l 757 0 l 531 0 l 535 776 l 325 0 l 100 0 l 103 960 l 272 960 l 244 143 l 472 960 l 656 960 l 650 143 l 860 960 l 1025 960 z "},"Ẃ":{"ha":961,"x_min":100,"x_max":1025,"o":"m 1025 960 l 757 0 l 531 0 l 535 776 l 325 0 l 100 0 l 103 960 l 272 960 l 244 143 l 472 960 l 656 960 l 650 143 l 860 960 l 1025 960 m 696 1282 l 758 1154 l 479 1043 l 438 1125 l 696 1282 z "},"Ŵ":{"ha":961,"x_min":100,"x_max":1025,"o":"m 1025 960 l 757 0 l 531 0 l 535 776 l 325 0 l 100 0 l 103 960 l 272 960 l 244 143 l 472 960 l 656 960 l 650 143 l 860 960 l 1025 960 m 429 1053 l 365 1124 l 551 1293 l 654 1293 l 793 1115 l 725 1053 l 590 1168 l 429 1053 z "},"Ẅ":{"ha":961,"x_min":100,"x_max":1025,"o":"m 1025 960 l 757 0 l 531 0 l 535 776 l 325 0 l 100 0 l 103 960 l 272 960 l 244 143 l 472 960 l 656 960 l 650 143 l 860 960 l 1025 960 m 453 1076 q 395 1099 417 1076 q 374 1156 374 1121 q 403 1230 374 1200 q 474 1260 432 1260 q 533 1238 511 1260 q 554 1181 554 1215 q 524 1106 554 1136 q 453 1076 494 1076 m 713 1076 q 654 1099 676 1076 q 632 1156 632 1121 q 662 1230 632 1200 q 732 1260 692 1260 q 791 1238 769 1260 q 813 1181 813 1215 q 783 1106 813 1135 q 713 1076 754 1076 z "},"Ẁ":{"ha":961,"x_min":100,"x_max":1025,"o":"m 1025 960 l 757 0 l 531 0 l 535 776 l 325 0 l 100 0 l 103 960 l 272 960 l 244 143 l 472 960 l 656 960 l 650 143 l 860 960 l 1025 960 m 528 1279 l 751 1124 l 699 1044 l 451 1154 l 528 1279 z "},"Ⱳ":{"ha":1003,"x_min":100,"x_max":1139,"o":"m 325 0 l 535 776 l 531 0 l 756 0 l 954 788 q 978 835 964 821 q 1017 849 993 849 q 1045 844 1033 849 q 1071 829 1057 840 l 1139 922 q 1001 979 1082 979 q 808 807 846 979 l 650 142 l 656 960 l 472 960 l 244 143 l 272 960 l 103 960 l 100 0 l 325 0 z "},"Ƿ":{"ha":669,"x_min":31,"x_max":701,"o":"m 511 979 q 649 919 596 979 q 701 753 701 860 q 656 563 701 642 q 533 429 610 483 q 340 324 456 375 l 244 282 l 206 0 l 31 0 l 167 960 l 340 960 l 332 906 q 511 979 410 979 m 325 449 q 469 571 419 500 q 519 742 519 642 q 440 849 519 849 q 315 783 376 849 l 264 417 l 325 449 z "},"X":{"ha":644,"x_min":-56,"x_max":711,"o":"m 711 960 l 443 517 l 597 0 l 414 0 l 326 403 l 135 0 l -56 0 l 235 511 l 97 960 l 281 960 l 351 614 l 522 960 l 711 960 z "},"Y":{"ha":660,"x_min":76,"x_max":749,"o":"m 749 960 l 417 364 l 365 0 l 190 0 l 240 364 l 76 960 l 260 960 l 349 504 l 561 960 l 749 960 z "},"Ý":{"ha":660,"x_min":76,"x_max":749,"o":"m 749 960 l 417 364 l 365 0 l 190 0 l 240 364 l 76 960 l 260 960 l 349 504 l 561 960 l 749 960 m 540 1282 l 603 1154 l 324 1043 l 282 1125 l 540 1282 z "},"Ŷ":{"ha":660,"x_min":76,"x_max":749,"o":"m 749 960 l 417 364 l 365 0 l 190 0 l 240 364 l 76 960 l 260 960 l 349 504 l 561 960 l 749 960 m 274 1053 l 210 1124 l 396 1293 l 499 1293 l 638 1115 l 569 1053 l 435 1168 l 274 1053 z "},"Ÿ":{"ha":660,"x_min":76,"x_max":749,"o":"m 749 960 l 417 364 l 365 0 l 190 0 l 240 364 l 76 960 l 260 960 l 349 504 l 561 960 l 749 960 m 297 1076 q 240 1099 261 1076 q 218 1156 218 1121 q 247 1230 218 1200 q 318 1260 276 1260 q 377 1238 356 1260 q 399 1181 399 1215 q 369 1106 399 1136 q 297 1076 339 1076 m 557 1076 q 499 1099 521 1076 q 476 1156 476 1121 q 506 1230 476 1200 q 576 1260 536 1260 q 635 1238 614 1260 q 657 1181 657 1215 q 628 1106 657 1135 q 557 1076 599 1076 z "},"Ỵ":{"ha":660,"x_min":76,"x_max":749,"o":"m 749 960 l 417 364 l 365 0 l 190 0 l 240 364 l 76 960 l 260 960 l 349 504 l 561 960 l 749 960 m 261 -94 q 328 -119 304 -94 q 353 -185 353 -143 q 320 -269 353 -237 q 239 -301 288 -301 q 172 -277 196 -301 q 147 -211 147 -253 q 181 -127 147 -160 q 261 -94 214 -94 z "},"Ỳ":{"ha":660,"x_min":76,"x_max":749,"o":"m 749 960 l 417 364 l 365 0 l 190 0 l 240 364 l 76 960 l 260 960 l 349 504 l 561 960 l 749 960 m 372 1279 l 596 1124 l 543 1044 l 296 1154 l 372 1279 z "},"Ƴ":{"ha":685,"x_min":76,"x_max":821,"o":"m 240 364 l 76 961 l 260 961 l 347 504 l 488 824 q 567 942 521 906 q 685 979 614 979 q 821 922 767 979 l 753 829 q 727 844 739 840 q 699 849 715 849 q 662 836 676 849 q 632 790 647 824 l 417 365 l 365 0 l 190 0 l 240 364 z "},"Ỷ":{"ha":660,"x_min":76,"x_max":749,"o":"m 749 960 l 417 364 l 365 0 l 190 0 l 240 364 l 76 960 l 260 960 l 349 504 l 561 960 l 749 960 m 388 1181 q 455 1201 433 1186 q 476 1247 476 1215 q 439 1285 476 1285 q 407 1281 421 1285 q 372 1267 393 1276 l 350 1349 q 403 1373 376 1365 q 467 1381 431 1381 q 561 1347 526 1381 q 596 1258 596 1313 q 483 1124 596 1146 l 475 1061 l 374 1061 l 388 1181 z "},"Ȳ":{"ha":660,"x_min":76,"x_max":749,"o":"m 749 960 l 417 364 l 365 0 l 190 0 l 240 364 l 76 960 l 260 960 l 349 504 l 561 960 l 749 960 m 594 1093 l 258 1093 l 276 1215 l 614 1215 l 594 1093 z "},"Ʀ":{"ha":707,"x_min":32,"x_max":672,"o":"m 672 556 q 626 380 672 457 q 486 258 579 303 l 628 -165 l 447 -165 l 329 221 l 238 222 l 207 0 l 32 0 l 167 960 l 342 960 l 318 796 l 375 796 q 598 733 524 796 q 672 556 672 669 m 319 350 q 454 408 414 350 q 494 550 494 467 q 465 638 494 611 q 371 665 435 665 l 300 665 l 256 350 l 319 350 z "},"Ɏ":{"ha":660,"x_min":46,"x_max":750,"o":"m 686 846 l 732 846 l 715 736 l 625 736 l 418 364 l 367 0 l 190 0 l 242 364 l 139 736 l 46 736 l 63 846 l 110 846 l 78 960 l 249 960 l 274 846 l 519 846 l 575 960 l 750 960 l 686 846 m 350 494 l 467 736 l 297 736 l 350 494 z "},"Ỹ":{"ha":660,"x_min":76,"x_max":749,"o":"m 749 960 l 417 364 l 365 0 l 190 0 l 240 364 l 76 960 l 260 960 l 349 504 l 561 960 l 749 960 m 500 1072 q 460 1082 478 1072 q 419 1110 442 1092 q 391 1130 403 1124 q 368 1136 379 1136 q 335 1122 350 1136 q 301 1075 321 1107 l 224 1122 q 294 1223 256 1185 q 376 1261 333 1261 q 419 1251 401 1261 q 461 1222 438 1242 q 488 1202 478 1208 q 510 1196 497 1196 q 540 1210 525 1196 q 575 1256 554 1224 l 653 1210 q 583 1108 622 1144 q 500 1072 543 1072 z "},"Z":{"ha":606,"x_min":-31,"x_max":653,"o":"m -31 0 l -10 136 l 443 818 l 118 818 l 139 960 l 653 960 l 632 822 l 178 144 l 547 144 l 506 0 l -31 0 z "},"Ź":{"ha":606,"x_min":-31,"x_max":653,"o":"m -31 0 l -10 136 l 443 818 l 118 818 l 139 960 l 653 960 l 632 822 l 178 144 l 547 144 l 506 0 l -31 0 m 525 1282 l 588 1154 l 308 1043 l 267 1125 l 525 1282 z "},"Ž":{"ha":606,"x_min":-31,"x_max":653,"o":"m -31 0 l -10 136 l 443 818 l 118 818 l 139 960 l 653 960 l 632 822 l 178 144 l 547 144 l 506 0 l -31 0 m 579 1285 l 643 1214 l 457 1044 l 354 1044 l 215 1222 l 283 1285 l 418 1168 l 579 1285 z "},"Ż":{"ha":606,"x_min":-31,"x_max":653,"o":"m -31 0 l -10 136 l 443 818 l 118 818 l 139 960 l 653 960 l 632 822 l 178 144 l 547 144 l 506 0 l -31 0 m 415 1069 q 348 1094 372 1069 q 324 1160 324 1118 q 356 1244 324 1213 q 438 1276 389 1276 q 505 1252 481 1276 q 529 1186 529 1228 q 496 1102 529 1135 q 415 1069 463 1069 z "},"Ẓ":{"ha":606,"x_min":-31,"x_max":653,"o":"m -31 0 l -10 136 l 443 818 l 118 818 l 139 960 l 653 960 l 632 822 l 178 144 l 547 144 l 506 0 l -31 0 m 221 -94 q 288 -119 264 -94 q 313 -185 313 -143 q 280 -269 313 -237 q 199 -301 247 -301 q 131 -277 156 -301 q 107 -211 107 -253 q 140 -127 107 -160 q 221 -94 174 -94 z "},"Ȥ":{"ha":597,"x_min":-31,"x_max":653,"o":"m 632 822 l 178 144 l 533 144 l 513 0 l 500 -85 q 420 -245 483 -189 q 267 -301 357 -301 q 176 -285 213 -301 q 113 -244 140 -269 l 182 -144 q 220 -165 206 -158 q 257 -171 235 -171 q 309 -148 289 -171 q 335 -83 329 -125 l 346 0 l -31 0 l -10 136 l 443 818 l 118 818 l 139 960 l 653 960 l 632 822 z "},"Ƶ":{"ha":606,"x_min":-31,"x_max":653,"o":"m 653 960 l 632 822 l 439 539 l 535 539 l 518 419 l 358 419 l 171 144 l 547 144 l 506 0 l -31 0 l -10 136 l 182 419 l 79 419 l 96 539 l 261 539 l 450 818 l 118 818 l 139 960 l 653 960 z "},"ʙ":{"ha":615,"x_min":26,"x_max":590,"o":"m 590 578 q 428 400 590 436 q 569 258 569 385 q 485 67 569 135 q 260 0 401 0 l 26 0 l 128 726 q 354 754 249 754 q 528 706 465 754 q 590 578 590 658 m 310 440 q 394 473 365 440 q 424 567 424 506 q 404 621 424 604 q 344 638 385 638 q 278 631 313 638 l 251 440 l 310 440 m 260 119 q 363 154 322 119 q 403 264 403 189 q 380 322 403 307 q 306 338 357 338 l 238 338 l 207 119 l 260 119 z "},"ɢ":{"ha":647,"x_min":40,"x_max":619,"o":"m 401 756 q 619 658 535 756 l 526 568 q 467 613 497 599 q 399 626 438 626 q 260 517 307 626 q 214 253 214 407 q 237 142 214 176 q 308 108 260 108 q 399 132 351 108 l 422 303 l 338 303 l 339 422 l 594 422 l 543 61 q 293 -18 428 -18 q 104 51 168 -18 q 40 254 40 121 q 86 517 40 403 q 214 693 132 631 q 401 756 296 756 z "},"ʛ":{"ha":639,"x_min":40,"x_max":851,"o":"m 704 1047 q 851 993 789 1047 l 788 892 q 714 917 749 917 q 668 895 685 917 q 644 829 651 874 l 619 658 l 536 576 q 467 615 497 603 q 399 626 436 626 q 260 517 307 626 q 214 253 214 407 q 237 142 214 176 q 308 108 260 108 q 399 132 351 108 l 422 303 l 338 303 l 339 422 l 594 422 l 543 61 q 293 -18 428 -18 q 104 51 168 -18 q 40 254 40 121 q 85 517 40 403 q 211 693 131 631 q 394 756 292 756 q 483 739 442 756 l 500 850 q 567 997 515 946 q 704 1047 618 1047 z "},"ʜ":{"ha":665,"x_min":26,"x_max":639,"o":"m 368 0 l 411 310 l 238 310 l 194 0 l 26 0 l 129 735 l 297 735 l 256 439 l 429 439 l 471 735 l 639 735 l 536 0 l 368 0 z "},"ɪ":{"ha":374,"x_min":-35,"x_max":408,"o":"m 390 611 l 306 611 l 236 124 l 322 124 l 306 0 l -35 0 l -17 124 l 68 124 l 138 611 l 51 611 l 68 735 l 408 735 l 390 611 z "},"ʟ":{"ha":500,"x_min":26,"x_max":467,"o":"m 297 735 l 217 136 l 467 136 l 426 0 l 26 0 l 129 735 l 297 735 z "},"ɴ":{"ha":668,"x_min":26,"x_max":642,"o":"m 539 0 l 339 0 l 228 578 q 206 251 228 414 l 169 0 l 26 0 l 129 735 l 328 735 l 439 157 q 442 294 439 235 q 454 422 444 354 l 497 735 l 642 735 l 539 0 z "},"ɶ":{"ha":858,"x_min":39,"x_max":890,"o":"m 856 611 l 597 611 q 631 469 631 549 q 629 433 631 446 l 803 433 l 786 313 l 613 313 q 525 124 588 201 l 806 124 l 788 0 l 385 0 q 279 -21 339 -21 q 103 53 167 -21 q 39 261 39 128 q 77 496 39 383 q 195 681 115 608 q 393 754 275 754 q 490 735 453 754 l 890 735 l 856 611 m 211 240 q 293 110 211 110 q 392 173 354 110 q 447 324 431 236 q 464 494 464 413 q 382 625 464 625 q 283 563 321 625 q 228 411 244 500 q 211 240 211 322 z "},"ʀ":{"ha":610,"x_min":26,"x_max":568,"o":"m 568 529 q 428 300 568 367 l 538 0 l 374 0 l 283 269 l 225 269 l 188 0 l 26 0 l 129 735 l 322 735 q 506 683 443 735 q 568 529 568 632 m 242 388 l 289 388 q 376 424 347 388 q 406 526 406 460 q 384 592 406 572 q 315 613 363 613 l 272 613 l 242 388 z "},"ʁ":{"ha":610,"x_min":26,"x_max":642,"o":"m 444 428 q 531 268 531 379 q 452 68 531 136 q 238 0 374 0 l 26 0 l 129 735 l 290 735 l 253 464 l 315 464 l 475 735 l 642 735 l 444 428 m 244 122 q 335 157 303 122 q 367 261 367 192 q 345 326 367 307 q 282 346 324 346 l 236 346 l 204 122 l 244 122 z "},"ʏ":{"ha":579,"x_min":54,"x_max":629,"o":"m 629 735 l 360 272 l 321 0 l 153 0 l 192 271 l 54 735 l 229 735 l 292 392 l 451 735 l 629 735 z "},"a":{"ha":668,"x_min":36,"x_max":639,"o":"m 413 754 q 639 693 528 754 l 567 189 q 563 146 563 164 q 569 116 563 128 q 593 96 576 104 l 540 -18 q 410 90 429 -4 q 327 8 369 36 q 228 -21 285 -21 q 87 49 138 -21 q 36 236 36 118 q 75 483 36 365 q 199 678 114 601 q 413 754 283 754 m 403 629 q 294 571 338 629 q 228 422 250 513 q 207 233 207 331 q 225 138 207 167 q 279 108 243 108 q 341 135 313 108 q 404 215 369 163 l 460 618 q 403 629 433 629 z "},"á":{"ha":668,"x_min":36,"x_max":639,"o":"m 413 754 q 639 693 528 754 l 567 189 q 563 146 563 164 q 569 116 563 128 q 593 96 576 104 l 540 -18 q 410 90 429 -4 q 327 8 369 36 q 228 -21 285 -21 q 87 49 138 -21 q 36 236 36 118 q 75 483 36 365 q 199 678 114 601 q 413 754 283 754 m 403 629 q 294 571 338 629 q 228 422 250 513 q 207 233 207 331 q 225 138 207 167 q 279 108 243 108 q 341 135 313 108 q 404 215 369 163 l 460 618 q 403 629 433 629 m 549 1128 l 611 1001 l 333 876 l 289 958 l 549 1128 z "},"ă":{"ha":668,"x_min":36,"x_max":651,"o":"m 413 754 q 639 693 528 754 l 567 189 q 563 146 563 164 q 569 116 563 128 q 593 96 576 104 l 540 -18 q 410 90 429 -4 q 327 8 369 36 q 228 -21 285 -21 q 87 49 138 -21 q 36 236 36 118 q 75 483 36 365 q 199 678 114 601 q 413 754 283 754 m 403 629 q 294 571 338 629 q 228 422 250 513 q 207 233 207 331 q 225 138 207 167 q 279 108 243 108 q 341 135 313 108 q 404 215 369 163 l 460 618 q 403 629 433 629 m 442 886 q 311 945 356 886 q 274 1100 267 1004 l 368 1114 q 447 1010 375 1010 q 515 1038 485 1010 q 561 1118 544 1067 l 651 1093 q 577 942 632 999 q 442 886 522 886 z "},"ắ":{"ha":668,"x_min":36,"x_max":667,"o":"m 582 1318 l 667 1232 l 463 1039 l 403 1093 l 582 1318 m 436 833 q 308 890 350 833 q 271 1032 265 946 l 364 1047 q 443 956 371 956 q 510 982 482 956 q 554 1051 539 1008 l 649 1026 q 576 886 631 939 q 436 833 521 833 m 413 754 q 639 693 528 754 l 567 189 q 563 146 563 164 q 569 116 563 128 q 593 96 576 104 l 540 -18 q 410 90 429 -4 q 327 8 369 36 q 228 -21 285 -21 q 87 49 138 -21 q 36 236 36 118 q 75 483 36 365 q 199 678 114 601 q 413 754 283 754 m 403 629 q 294 571 338 629 q 228 422 250 513 q 207 233 207 331 q 225 138 207 167 q 279 108 243 108 q 341 135 313 108 q 404 215 369 163 l 460 618 q 403 629 433 629 z "},"ặ":{"ha":668,"x_min":36,"x_max":651,"o":"m 413 754 q 639 693 528 754 l 567 189 q 563 146 563 164 q 569 116 563 128 q 593 96 576 104 l 540 -18 q 410 90 429 -4 q 327 8 369 36 q 228 -21 285 -21 q 87 49 138 -21 q 36 236 36 118 q 75 483 36 365 q 199 678 114 601 q 413 754 283 754 m 403 629 q 294 571 338 629 q 228 422 250 513 q 207 233 207 331 q 225 138 207 167 q 279 108 243 108 q 341 135 313 108 q 404 215 369 163 l 460 618 q 403 629 433 629 m 442 886 q 311 945 356 886 q 274 1100 267 1004 l 368 1114 q 447 1010 375 1010 q 515 1038 485 1010 q 561 1118 544 1067 l 651 1093 q 577 942 632 999 q 442 886 522 886 m 290 -94 q 358 -119 333 -94 q 382 -185 382 -143 q 349 -269 382 -237 q 268 -301 317 -301 q 201 -277 225 -301 q 176 -211 176 -253 q 210 -127 176 -160 q 290 -94 243 -94 z "},"ằ":{"ha":668,"x_min":36,"x_max":649,"o":"m 399 1315 l 515 1088 l 443 1039 l 292 1238 l 399 1315 m 436 833 q 308 890 350 833 q 271 1032 265 946 l 364 1047 q 443 956 371 956 q 510 982 482 956 q 554 1051 539 1008 l 649 1026 q 576 886 631 939 q 436 833 521 833 m 413 754 q 639 693 528 754 l 567 189 q 563 146 563 164 q 569 116 563 128 q 593 96 576 104 l 540 -18 q 410 90 429 -4 q 327 8 369 36 q 228 -21 285 -21 q 87 49 138 -21 q 36 236 36 118 q 75 483 36 365 q 199 678 114 601 q 413 754 283 754 m 403 629 q 294 571 338 629 q 228 422 250 513 q 207 233 207 331 q 225 138 207 167 q 279 108 243 108 q 341 135 313 108 q 404 215 369 163 l 460 618 q 403 629 433 629 z "},"ẳ":{"ha":668,"x_min":36,"x_max":650,"o":"m 413 754 q 639 693 528 754 l 567 189 q 563 146 563 164 q 569 116 563 128 q 593 96 576 104 l 540 -18 q 410 90 429 -4 q 327 8 369 36 q 228 -21 285 -21 q 87 49 138 -21 q 36 236 36 118 q 75 483 36 365 q 199 678 114 601 q 413 754 283 754 m 403 629 q 294 571 338 629 q 228 422 250 513 q 207 233 207 331 q 225 138 207 167 q 279 108 243 108 q 341 135 313 108 q 404 215 369 163 l 460 618 q 403 629 433 629 m 438 833 q 309 890 351 833 q 272 1032 267 946 l 365 1047 q 444 956 372 956 q 512 982 483 956 q 556 1051 540 1008 l 650 1026 q 577 886 632 939 q 438 833 522 833 m 424 1164 q 491 1184 469 1169 q 513 1231 513 1199 q 475 1268 513 1268 q 408 1250 444 1268 l 386 1332 q 441 1356 414 1347 q 503 1364 468 1364 q 597 1330 563 1364 q 632 1242 632 1296 q 519 1107 632 1129 l 507 1032 l 406 1032 l 424 1164 z "},"ẵ":{"ha":668,"x_min":36,"x_max":681,"o":"m 529 1088 q 488 1097 506 1088 q 447 1124 471 1106 q 399 1149 417 1149 q 366 1135 381 1149 q 332 1090 351 1121 l 254 1136 q 324 1233 285 1196 q 407 1269 364 1269 q 451 1260 432 1269 q 490 1232 469 1250 q 503 1222 493 1229 q 522 1210 513 1214 q 539 1207 531 1207 q 569 1220 554 1207 q 604 1264 585 1233 l 681 1219 q 610 1122 650 1157 q 529 1088 571 1088 m 429 833 q 301 890 343 833 q 264 1032 258 946 l 357 1047 q 436 956 364 956 q 503 982 475 956 q 547 1051 532 1008 l 642 1026 q 569 886 624 939 q 429 833 514 833 m 413 754 q 639 693 528 754 l 567 189 q 563 146 563 164 q 569 116 563 128 q 593 96 576 104 l 540 -18 q 410 90 429 -4 q 327 8 369 36 q 228 -21 285 -21 q 87 49 138 -21 q 36 236 36 118 q 75 483 36 365 q 199 678 114 601 q 413 754 283 754 m 403 629 q 294 571 338 629 q 228 422 250 513 q 207 233 207 331 q 225 138 207 167 q 279 108 243 108 q 341 135 313 108 q 404 215 369 163 l 460 618 q 403 629 433 629 z "},"ǎ":{"ha":668,"x_min":36,"x_max":669,"o":"m 413 754 q 639 693 528 754 l 567 189 q 563 146 563 164 q 569 116 563 128 q 593 96 576 104 l 540 -18 q 410 90 429 -4 q 327 8 369 36 q 228 -21 285 -21 q 87 49 138 -21 q 36 236 36 118 q 75 483 36 365 q 199 678 114 601 q 413 754 283 754 m 403 629 q 294 571 338 629 q 228 422 250 513 q 207 233 207 331 q 225 138 207 167 q 279 108 243 108 q 341 135 313 108 q 404 215 369 163 l 460 618 q 403 629 433 629 m 610 1103 l 669 1033 l 485 861 l 382 861 l 246 1033 l 313 1103 l 443 985 l 610 1103 z "},"â":{"ha":668,"x_min":36,"x_max":661,"o":"m 413 754 q 639 693 528 754 l 567 189 q 563 146 563 164 q 569 116 563 128 q 593 96 576 104 l 540 -18 q 410 90 429 -4 q 327 8 369 36 q 228 -21 285 -21 q 87 49 138 -21 q 36 236 36 118 q 75 483 36 365 q 199 678 114 601 q 413 754 283 754 m 403 629 q 294 571 338 629 q 228 422 250 513 q 207 233 207 331 q 225 138 207 167 q 279 108 243 108 q 341 135 313 108 q 404 215 369 163 l 460 618 q 403 629 433 629 m 294 875 l 233 946 l 419 1119 l 522 1119 l 661 939 l 588 875 l 458 996 l 294 875 z "},"ấ":{"ha":668,"x_min":36,"x_max":825,"o":"m 740 1279 l 825 1193 l 621 1000 l 561 1054 l 740 1279 m 279 815 l 215 886 l 401 1056 l 504 1056 l 643 878 l 575 815 l 440 931 l 279 815 m 413 754 q 639 693 528 754 l 567 189 q 563 146 563 164 q 569 116 563 128 q 593 96 576 104 l 540 -18 q 410 90 429 -4 q 327 8 369 36 q 228 -21 285 -21 q 87 49 138 -21 q 36 236 36 118 q 75 483 36 365 q 199 678 114 601 q 413 754 283 754 m 403 629 q 294 571 338 629 q 228 422 250 513 q 207 233 207 331 q 225 138 207 167 q 279 108 243 108 q 341 135 313 108 q 404 215 369 163 l 460 618 q 403 629 433 629 z "},"ậ":{"ha":668,"x_min":36,"x_max":661,"o":"m 413 754 q 639 693 528 754 l 567 189 q 563 146 563 164 q 569 116 563 128 q 593 96 576 104 l 540 -18 q 410 90 429 -4 q 327 8 369 36 q 228 -21 285 -21 q 87 49 138 -21 q 36 236 36 118 q 75 483 36 365 q 199 678 114 601 q 413 754 283 754 m 403 629 q 294 571 338 629 q 228 422 250 513 q 207 233 207 331 q 225 138 207 167 q 279 108 243 108 q 341 135 313 108 q 404 215 369 163 l 460 618 q 403 629 433 629 m 294 875 l 233 946 l 419 1119 l 522 1119 l 661 939 l 588 875 l 458 996 l 294 875 m 290 -94 q 358 -119 333 -94 q 382 -185 382 -143 q 349 -269 382 -237 q 268 -301 317 -301 q 201 -277 225 -301 q 176 -211 176 -253 q 210 -127 176 -160 q 290 -94 243 -94 z "},"ầ":{"ha":668,"x_min":36,"x_max":640,"o":"m 224 1276 l 340 1049 l 268 1000 l 117 1199 l 224 1276 m 276 815 l 213 886 l 399 1056 l 501 1056 l 640 878 l 572 815 l 438 931 l 276 815 m 413 754 q 639 693 528 754 l 567 189 q 563 146 563 164 q 569 116 563 128 q 593 96 576 104 l 540 -18 q 410 90 429 -4 q 327 8 369 36 q 228 -21 285 -21 q 87 49 138 -21 q 36 236 36 118 q 75 483 36 365 q 199 678 114 601 q 413 754 283 754 m 403 629 q 294 571 338 629 q 228 422 250 513 q 207 233 207 331 q 225 138 207 167 q 279 108 243 108 q 341 135 313 108 q 404 215 369 163 l 460 618 q 403 629 433 629 z "},"ẩ":{"ha":668,"x_min":36,"x_max":804,"o":"m 413 754 q 639 693 528 754 l 567 189 q 563 146 563 164 q 569 116 563 128 q 593 96 576 104 l 540 -18 q 410 90 429 -4 q 327 8 369 36 q 228 -21 285 -21 q 87 49 138 -21 q 36 236 36 118 q 75 483 36 365 q 199 678 114 601 q 413 754 283 754 m 403 629 q 294 571 338 629 q 228 422 250 513 q 207 233 207 331 q 225 138 207 167 q 279 108 243 108 q 341 135 313 108 q 404 215 369 163 l 460 618 q 403 629 433 629 m 278 815 l 214 886 l 400 1056 l 503 1056 l 642 878 l 574 815 l 439 931 l 278 815 m 596 1150 q 663 1170 642 1156 q 685 1217 685 1185 q 647 1254 685 1254 q 581 1236 617 1254 l 558 1318 q 613 1342 586 1333 q 675 1350 640 1350 q 769 1316 735 1350 q 804 1228 804 1282 q 692 1093 804 1115 l 679 1018 l 578 1018 l 596 1150 z "},"ẫ":{"ha":668,"x_min":36,"x_max":690,"o":"m 539 1088 q 498 1097 515 1088 q 457 1124 481 1106 q 408 1149 426 1149 q 376 1135 390 1149 q 342 1090 361 1121 l 264 1136 q 334 1233 294 1196 q 417 1269 374 1269 q 460 1260 442 1269 q 500 1232 479 1250 q 513 1222 503 1229 q 531 1210 522 1214 q 549 1207 540 1207 q 579 1220 564 1207 q 614 1264 594 1233 l 690 1219 q 620 1122 660 1157 q 539 1088 581 1088 m 281 806 l 217 876 l 403 1046 l 506 1046 l 644 868 l 576 806 l 442 921 l 281 806 m 413 754 q 639 693 528 754 l 567 189 q 563 146 563 164 q 569 116 563 128 q 593 96 576 104 l 540 -18 q 410 90 429 -4 q 327 8 369 36 q 228 -21 285 -21 q 87 49 138 -21 q 36 236 36 118 q 75 483 36 365 q 199 678 114 601 q 413 754 283 754 m 403 629 q 294 571 338 629 q 228 422 250 513 q 207 233 207 331 q 225 138 207 167 q 279 108 243 108 q 341 135 313 108 q 404 215 369 163 l 460 618 q 403 629 433 629 z "},"ȁ":{"ha":668,"x_min":36,"x_max":639,"o":"m 413 754 q 639 693 528 754 l 567 189 q 563 146 563 164 q 569 116 563 128 q 593 96 576 104 l 540 -18 q 410 90 429 -4 q 327 8 369 36 q 228 -21 285 -21 q 87 49 138 -21 q 36 236 36 118 q 75 483 36 365 q 199 678 114 601 q 413 754 283 754 m 403 629 q 294 571 338 629 q 228 422 250 513 q 207 233 207 331 q 225 138 207 167 q 279 108 243 108 q 341 135 313 108 q 404 215 369 163 l 460 618 q 403 629 433 629 m 329 1174 l 406 913 l 306 875 l 197 1119 l 329 1174 m 522 1172 l 588 917 l 489 882 l 389 1121 l 522 1172 z "},"ä":{"ha":668,"x_min":36,"x_max":672,"o":"m 413 754 q 639 693 528 754 l 567 189 q 563 146 563 164 q 569 116 563 128 q 593 96 576 104 l 540 -18 q 410 90 429 -4 q 327 8 369 36 q 228 -21 285 -21 q 87 49 138 -21 q 36 236 36 118 q 75 483 36 365 q 199 678 114 601 q 413 754 283 754 m 403 629 q 294 571 338 629 q 228 422 250 513 q 207 233 207 331 q 225 138 207 167 q 279 108 243 108 q 341 135 313 108 q 404 215 369 163 l 460 618 q 403 629 433 629 m 313 901 q 255 924 276 901 q 233 981 233 946 q 263 1055 233 1025 q 333 1085 292 1085 q 392 1063 371 1085 q 414 1006 414 1040 q 384 931 414 961 q 313 901 354 901 m 572 901 q 514 924 536 901 q 492 981 492 946 q 522 1055 492 1025 q 592 1085 551 1085 q 651 1063 629 1085 q 672 1006 672 1040 q 643 931 672 960 q 572 901 614 901 z "},"ǟ":{"ha":668,"x_min":36,"x_max":661,"o":"m 413 754 q 639 693 528 754 l 567 189 q 563 146 563 164 q 569 116 563 128 q 593 96 576 104 l 540 -18 q 410 90 429 -4 q 327 8 369 36 q 228 -21 285 -21 q 87 49 138 -21 q 36 236 36 118 q 75 483 36 365 q 199 678 114 601 q 413 754 283 754 m 403 629 q 294 571 338 629 q 228 422 250 513 q 207 233 207 331 q 225 138 207 167 q 279 108 243 108 q 341 135 313 108 q 404 215 369 163 l 460 618 q 403 629 433 629 m 301 853 q 244 875 265 853 q 222 932 222 897 q 251 1006 222 976 q 322 1036 281 1036 q 381 1014 360 1036 q 403 957 403 992 q 373 883 403 913 q 301 853 343 853 m 561 853 q 503 875 525 853 q 481 932 481 897 q 510 1006 481 976 q 581 1036 540 1036 q 640 1014 618 1036 q 661 957 661 992 q 632 882 661 911 q 561 853 603 853 m 626 1107 l 290 1107 l 308 1229 l 646 1229 l 626 1107 z "},"ȧ":{"ha":668,"x_min":36,"x_max":639,"o":"m 413 754 q 639 693 528 754 l 567 189 q 563 146 563 164 q 569 116 563 128 q 593 96 576 104 l 540 -18 q 410 90 429 -4 q 327 8 369 36 q 228 -21 285 -21 q 87 49 138 -21 q 36 236 36 118 q 75 483 36 365 q 199 678 114 601 q 413 754 283 754 m 403 629 q 294 571 338 629 q 228 422 250 513 q 207 233 207 331 q 225 138 207 167 q 279 108 243 108 q 341 135 313 108 q 404 215 369 163 l 460 618 q 403 629 433 629 m 440 894 q 373 919 397 894 q 349 985 349 943 q 381 1069 349 1038 q 463 1101 414 1101 q 530 1077 506 1101 q 554 1011 554 1053 q 521 927 554 960 q 440 894 488 894 z "},"ạ":{"ha":668,"x_min":36,"x_max":639,"o":"m 413 754 q 639 693 528 754 l 567 189 q 563 146 563 164 q 569 116 563 128 q 593 96 576 104 l 540 -18 q 410 90 429 -4 q 327 8 369 36 q 228 -21 285 -21 q 87 49 138 -21 q 36 236 36 118 q 75 483 36 365 q 199 678 114 601 q 413 754 283 754 m 403 629 q 294 571 338 629 q 228 422 250 513 q 207 233 207 331 q 225 138 207 167 q 279 108 243 108 q 341 135 313 108 q 404 215 369 163 l 460 618 q 403 629 433 629 m 290 -94 q 358 -119 333 -94 q 382 -185 382 -143 q 349 -269 382 -237 q 268 -301 317 -301 q 201 -277 225 -301 q 176 -211 176 -253 q 210 -127 176 -160 q 290 -94 243 -94 z "},"ǡ":{"ha":668,"x_min":36,"x_max":653,"o":"m 413 754 q 639 693 528 754 l 567 189 q 563 146 563 164 q 569 116 563 128 q 593 96 576 104 l 540 -18 q 410 90 429 -4 q 327 8 369 36 q 228 -21 285 -21 q 87 49 138 -21 q 36 236 36 118 q 75 483 36 365 q 199 678 114 601 q 413 754 283 754 m 403 629 q 294 571 338 629 q 228 422 250 513 q 207 233 207 331 q 225 138 207 167 q 279 108 243 108 q 341 135 313 108 q 404 215 369 163 l 460 618 q 403 629 433 629 m 433 833 q 366 858 390 833 q 342 924 342 882 q 374 1008 342 976 q 456 1040 407 1040 q 523 1016 499 1040 q 547 950 547 992 q 514 866 547 899 q 433 833 481 833 m 633 1094 l 297 1094 l 315 1217 l 653 1217 l 633 1094 z "},"à":{"ha":668,"x_min":36,"x_max":639,"o":"m 413 754 q 639 693 528 754 l 567 189 q 563 146 563 164 q 569 116 563 128 q 593 96 576 104 l 540 -18 q 410 90 429 -4 q 327 8 369 36 q 228 -21 285 -21 q 87 49 138 -21 q 36 236 36 118 q 75 483 36 365 q 199 678 114 601 q 413 754 283 754 m 403 629 q 294 571 338 629 q 228 422 250 513 q 207 233 207 331 q 225 138 207 167 q 279 108 243 108 q 341 135 313 108 q 404 215 369 163 l 460 618 q 403 629 433 629 m 394 1125 l 615 956 l 564 878 l 315 1001 l 394 1125 z "},"ả":{"ha":668,"x_min":36,"x_max":639,"o":"m 413 754 q 639 693 528 754 l 567 189 q 563 146 563 164 q 569 116 563 128 q 593 96 576 104 l 540 -18 q 410 90 429 -4 q 327 8 369 36 q 228 -21 285 -21 q 87 49 138 -21 q 36 236 36 118 q 75 483 36 365 q 199 678 114 601 q 413 754 283 754 m 403 629 q 294 571 338 629 q 228 422 250 513 q 207 233 207 331 q 225 138 207 167 q 279 108 243 108 q 341 135 313 108 q 404 215 369 163 l 460 618 q 403 629 433 629 m 397 978 q 465 998 443 983 q 486 1044 486 1013 q 449 1082 486 1082 q 382 1064 418 1082 l 360 1146 q 415 1169 388 1161 q 476 1178 442 1178 q 571 1144 536 1178 q 606 1056 606 1110 q 493 921 606 943 l 481 846 l 379 846 l 397 978 z "},"ȃ":{"ha":668,"x_min":36,"x_max":639,"o":"m 413 754 q 639 693 528 754 l 567 189 q 563 146 563 164 q 569 116 563 128 q 593 96 576 104 l 540 -18 q 410 90 429 -4 q 327 8 369 36 q 228 -21 285 -21 q 87 49 138 -21 q 36 236 36 118 q 75 483 36 365 q 199 678 114 601 q 413 754 283 754 m 403 629 q 294 571 338 629 q 228 422 250 513 q 207 233 207 331 q 225 138 207 167 q 279 108 243 108 q 341 135 313 108 q 404 215 369 163 l 460 618 q 403 629 433 629 m 243 867 q 324 1018 267 963 q 463 1074 381 1074 q 590 1015 547 1074 q 626 861 632 957 l 531 847 q 450 951 524 951 q 336 842 371 951 l 243 867 z "},"ɑ":{"ha":668,"x_min":36,"x_max":644,"o":"m 567 189 q 563 147 563 167 q 569 116 563 128 q 594 96 576 104 l 540 -18 q 410 90 429 -4 q 328 7 369 35 q 228 -21 286 -21 q 87 49 138 -21 q 36 236 36 118 q 72 483 36 364 q 179 678 108 603 q 347 754 250 754 q 433 733 397 754 q 493 667 469 713 l 524 735 l 644 735 l 567 189 m 450 547 q 413 610 435 592 q 363 628 392 628 q 281 569 317 628 q 226 419 246 510 q 207 233 207 328 q 225 138 207 167 q 279 108 243 108 q 341 135 313 108 q 404 215 369 163 l 450 547 z "},"ɒ":{"ha":668,"x_min":24,"x_max":632,"o":"m 440 756 q 581 686 531 756 q 632 499 632 617 q 596 251 632 371 q 489 56 560 132 q 321 -19 418 -19 q 235 1 271 -19 q 175 68 199 22 l 144 0 l 24 0 l 101 546 q 106 588 106 569 q 99 619 106 607 q 74 639 92 631 l 128 753 q 258 644 239 739 q 340 728 299 700 q 440 756 382 756 m 306 107 q 387 166 351 107 q 442 316 422 225 q 461 501 461 407 q 443 597 461 568 q 389 626 425 626 q 327 599 356 626 q 264 519 299 572 l 218 188 q 255 125 233 143 q 306 107 276 107 z "},"ā":{"ha":668,"x_min":36,"x_max":639,"o":"m 413 754 q 639 693 528 754 l 567 189 q 563 146 563 164 q 569 116 563 128 q 593 96 576 104 l 540 -18 q 410 90 429 -4 q 327 8 369 36 q 228 -21 285 -21 q 87 49 138 -21 q 36 236 36 118 q 75 483 36 365 q 199 678 114 601 q 413 754 283 754 m 403 629 q 294 571 338 629 q 228 422 250 513 q 207 233 207 331 q 225 138 207 167 q 279 108 243 108 q 341 135 313 108 q 404 215 369 163 l 460 618 q 403 629 433 629 m 611 918 l 275 918 l 293 1040 l 631 1040 l 611 918 z "},"ą":{"ha":668,"x_min":36,"x_max":639,"o":"m 567 189 q 563 146 563 164 q 569 116 563 128 q 593 96 576 104 l 540 -18 q 416 -103 449 -62 q 383 -186 383 -144 q 436 -233 383 -233 q 503 -226 464 -233 l 478 -337 q 400 -347 444 -347 q 297 -309 336 -347 q 257 -207 257 -271 q 303 -83 257 -139 q 451 17 349 -28 q 410 90 421 42 q 327 8 369 36 q 228 -21 285 -21 q 87 49 138 -21 q 36 236 36 118 q 75 483 36 365 q 199 678 114 601 q 413 754 283 754 q 639 693 528 754 l 567 189 m 460 618 q 403 629 433 629 q 294 571 338 629 q 228 422 250 513 q 207 233 207 331 q 225 138 207 167 q 279 108 243 108 q 341 135 313 108 q 404 215 369 163 l 460 618 z "},"å":{"ha":668,"x_min":36,"x_max":639,"o":"m 413 754 q 639 693 528 754 l 567 189 q 563 146 563 164 q 569 116 563 128 q 593 96 576 104 l 540 -18 q 410 90 429 -4 q 327 8 369 36 q 228 -21 285 -21 q 87 49 138 -21 q 36 236 36 118 q 75 483 36 365 q 199 678 114 601 q 413 754 283 754 m 403 629 q 294 571 338 629 q 228 422 250 513 q 207 233 207 331 q 225 138 207 167 q 279 108 243 108 q 341 135 313 108 q 404 215 369 163 l 460 618 q 403 629 433 629 m 472 1179 q 572 1139 535 1179 q 608 1035 608 1099 q 560 907 608 958 q 436 856 513 856 q 337 896 374 856 q 300 1000 300 936 q 349 1128 300 1076 q 472 1179 397 1179 m 465 1093 q 417 1067 435 1093 q 399 1003 399 1042 q 410 958 399 974 q 444 942 422 942 q 492 968 475 942 q 510 1032 510 994 q 465 1093 510 1093 z "},"ǻ":{"ha":668,"x_min":36,"x_max":639,"o":"m 413 754 q 639 693 528 754 l 567 189 q 563 146 563 164 q 569 116 563 128 q 593 96 576 104 l 540 -18 q 410 90 429 -4 q 327 8 369 36 q 228 -21 285 -21 q 87 49 138 -21 q 36 236 36 118 q 75 483 36 365 q 199 678 114 601 q 413 754 283 754 m 403 629 q 294 571 338 629 q 228 422 250 513 q 207 233 207 331 q 225 138 207 167 q 279 108 243 108 q 341 135 313 108 q 404 215 369 163 l 460 618 q 403 629 433 629 m 468 1132 q 567 1092 531 1132 q 604 988 604 1051 q 556 860 604 911 q 432 808 508 808 q 333 849 369 808 q 296 953 296 889 q 344 1081 296 1029 q 468 1132 393 1132 m 461 1046 q 413 1020 431 1046 q 394 956 394 994 q 406 910 394 926 q 440 894 418 894 q 488 921 471 894 q 506 985 506 947 q 461 1046 506 1046 m 571 1382 l 633 1254 l 354 1143 l 313 1225 l 571 1382 z "},"ⱥ":{"ha":668,"x_min":36,"x_max":639,"o":"m 567 189 q 563 146 563 164 q 569 116 563 128 q 593 96 576 104 l 540 -18 q 410 90 429 -4 q 327 8 369 36 q 228 -21 285 -21 l 218 -21 l 189 -100 l 132 -83 l 160 -8 q 68 79 100 15 q 36 236 36 143 q 75 483 36 365 q 199 678 114 601 q 413 754 283 754 l 433 754 l 461 831 l 518 813 l 494 746 q 639 693 571 732 l 567 189 m 203 229 q 214 146 203 176 l 390 633 q 285 565 328 626 q 223 414 243 504 q 203 229 203 324 m 465 621 l 451 626 l 263 106 q 278 104 268 104 q 408 215 342 104 l 465 621 z "},"ã":{"ha":668,"x_min":36,"x_max":668,"o":"m 413 754 q 639 693 528 754 l 567 189 q 563 146 563 164 q 569 116 563 128 q 593 96 576 104 l 540 -18 q 410 90 429 -4 q 327 8 369 36 q 228 -21 285 -21 q 87 49 138 -21 q 36 236 36 118 q 75 483 36 365 q 199 678 114 601 q 413 754 283 754 m 403 629 q 294 571 338 629 q 228 422 250 513 q 207 233 207 331 q 225 138 207 167 q 279 108 243 108 q 341 135 313 108 q 404 215 369 163 l 460 618 q 403 629 433 629 m 515 897 q 475 907 493 897 q 435 935 457 917 q 406 955 418 949 q 383 961 394 961 q 351 947 365 961 q 317 900 336 932 l 239 947 q 310 1048 271 1010 q 392 1086 349 1086 q 435 1076 417 1086 q 476 1047 453 1067 q 503 1027 493 1033 q 525 1021 513 1021 q 555 1035 540 1021 q 590 1081 569 1049 l 668 1035 q 598 933 638 969 q 515 897 558 897 z "},"ɐ":{"ha":624,"x_min":53,"x_max":611,"o":"m 224 213 q 222 185 222 203 q 242 128 222 146 q 310 110 261 110 q 458 144 372 110 l 494 31 q 384 -7 443 6 q 271 -19 325 -19 q 108 29 163 -19 q 53 167 53 78 q 56 210 53 179 l 101 546 q 106 586 106 569 q 99 618 106 606 q 74 639 92 631 l 128 753 q 254 660 229 739 q 438 754 328 754 q 565 703 518 754 q 611 564 611 651 q 525 355 611 426 q 299 283 439 283 l 233 283 l 224 213 m 381 631 q 268 547 319 631 l 247 385 l 294 385 q 402 427 364 385 q 440 549 440 469 q 381 631 440 631 z "},"æ":{"ha":968,"x_min":13,"x_max":956,"o":"m 342 754 q 447 731 406 754 q 518 660 488 707 q 742 754 608 754 q 899 701 842 754 q 956 567 956 647 q 844 359 956 425 q 550 271 733 293 q 573 149 550 186 q 651 113 596 113 q 727 128 690 113 q 807 176 764 143 l 869 74 q 626 -21 757 -21 q 499 8 553 -21 q 415 94 446 38 q 314 6 367 32 q 201 -19 261 -19 q 63 32 113 -19 q 13 169 13 83 q 85 360 13 283 q 331 436 158 436 l 403 436 q 432 526 413 481 q 390 599 422 574 q 313 624 358 624 q 153 588 243 624 l 129 706 q 342 754 244 754 m 726 633 q 617 562 658 633 q 561 383 576 490 q 734 442 678 397 q 790 563 790 486 q 774 615 790 596 q 726 633 758 633 m 332 332 q 192 185 192 332 q 253 104 192 104 q 317 129 286 104 q 383 208 347 154 q 382 254 382 222 q 386 332 382 303 l 332 332 z "},"ǽ":{"ha":968,"x_min":13,"x_max":956,"o":"m 342 754 q 447 731 406 754 q 518 660 488 707 q 742 754 608 754 q 899 701 842 754 q 956 567 956 647 q 844 359 956 425 q 550 271 733 293 q 573 149 550 186 q 651 113 596 113 q 727 128 690 113 q 807 176 764 143 l 869 74 q 626 -21 757 -21 q 499 8 553 -21 q 415 94 446 38 q 314 6 367 32 q 201 -19 261 -19 q 63 32 113 -19 q 13 169 13 83 q 85 360 13 283 q 331 436 158 436 l 403 436 q 432 526 413 481 q 390 599 422 574 q 313 624 358 624 q 153 588 243 624 l 129 706 q 342 754 244 754 m 726 633 q 617 562 658 633 q 561 383 576 490 q 734 442 678 397 q 790 563 790 486 q 774 615 790 596 q 726 633 758 633 m 332 332 q 192 185 192 332 q 253 104 192 104 q 317 129 286 104 q 383 208 347 154 q 382 254 382 222 q 386 332 382 303 l 332 332 m 665 1128 l 728 1001 l 450 876 l 406 958 l 665 1128 z "},"ǣ":{"ha":968,"x_min":13,"x_max":956,"o":"m 342 754 q 447 731 406 754 q 518 660 488 707 q 742 754 608 754 q 899 701 842 754 q 956 567 956 647 q 844 359 956 425 q 550 271 733 293 q 573 149 550 186 q 651 113 596 113 q 727 128 690 113 q 807 176 764 143 l 869 74 q 626 -21 757 -21 q 499 8 553 -21 q 415 94 446 38 q 314 6 367 32 q 201 -19 261 -19 q 63 32 113 -19 q 13 169 13 83 q 85 360 13 283 q 331 436 158 436 l 403 436 q 432 526 413 481 q 390 599 422 574 q 313 624 358 624 q 153 588 243 624 l 129 706 q 342 754 244 754 m 726 633 q 617 562 658 633 q 561 383 576 490 q 734 442 678 397 q 790 563 790 486 q 774 615 790 596 q 726 633 758 633 m 332 332 q 192 185 192 332 q 253 104 192 104 q 317 129 286 104 q 383 208 347 154 q 382 254 382 222 q 386 332 382 303 l 332 332 m 728 918 l 392 918 l 410 1040 l 747 1040 l 728 918 z "},"b":{"ha":679,"x_min":31,"x_max":642,"o":"m 460 754 q 593 690 544 754 q 642 506 642 625 q 605 244 642 363 q 484 52 568 125 q 268 -21 400 -21 q 31 33 158 -21 l 171 1029 l 340 1047 l 288 668 q 367 732 324 710 q 460 754 411 754 m 399 625 q 332 601 367 625 q 268 536 297 576 l 211 124 q 289 108 250 108 q 391 168 350 108 q 451 317 432 228 q 471 500 471 407 q 453 597 471 568 q 399 625 435 625 z "},"ḃ":{"ha":679,"x_min":31,"x_max":642,"o":"m 460 754 q 593 690 544 754 q 642 506 642 625 q 605 244 642 363 q 484 52 568 125 q 268 -21 400 -21 q 31 33 158 -21 l 171 1029 l 340 1047 l 288 668 q 367 732 324 710 q 460 754 411 754 m 399 625 q 332 601 367 625 q 268 536 297 576 l 211 124 q 289 108 250 108 q 391 168 350 108 q 451 317 432 228 q 471 500 471 407 q 453 597 471 568 q 399 625 435 625 m 488 1139 q 420 1163 444 1139 q 396 1229 396 1188 q 428 1314 396 1282 q 510 1346 461 1346 q 577 1322 553 1346 q 601 1256 601 1297 q 568 1172 601 1204 q 488 1139 535 1139 z "},"ḅ":{"ha":679,"x_min":31,"x_max":642,"o":"m 460 754 q 593 690 544 754 q 642 506 642 625 q 605 244 642 363 q 484 52 568 125 q 268 -21 400 -21 q 31 33 158 -21 l 171 1029 l 340 1047 l 288 668 q 367 732 324 710 q 460 754 411 754 m 399 625 q 332 601 367 625 q 268 536 297 576 l 211 124 q 289 108 250 108 q 391 168 350 108 q 451 317 432 228 q 471 500 471 407 q 453 597 471 568 q 399 625 435 625 m 263 -94 q 330 -119 306 -94 q 354 -185 354 -143 q 322 -269 354 -237 q 240 -301 289 -301 q 173 -277 197 -301 q 149 -211 149 -253 q 182 -127 149 -160 q 263 -94 215 -94 z "},"ꞵ":{"ha":682,"x_min":-17,"x_max":654,"o":"m 133 763 q 232 972 151 897 q 431 1047 313 1047 q 594 986 533 1047 q 654 824 654 925 q 605 654 654 729 q 450 557 556 579 q 582 497 528 550 q 636 336 636 443 q 603 172 636 254 q 503 35 571 89 q 336 -19 435 -19 q 193 35 251 -19 l 149 -285 l -17 -304 l 133 763 m 311 113 q 429 181 392 113 q 467 340 467 250 q 335 492 467 492 l 303 492 l 333 614 l 361 614 q 456 677 424 614 q 489 818 489 740 q 417 922 489 922 q 338 881 369 922 q 294 757 307 840 l 210 154 q 311 113 249 113 z "},"ɓ":{"ha":679,"x_min":31,"x_max":642,"o":"m 460 754 q 593 690 544 754 q 642 506 642 625 q 605 244 642 363 q 484 52 568 125 q 268 -21 400 -21 q 31 33 158 -21 l 129 733 l 128 733 l 143 840 q 220 991 157 935 q 389 1047 283 1047 q 550 1004 474 1047 l 488 894 q 397 917 442 917 q 336 892 357 917 q 308 818 315 868 l 297 733 l 289 668 q 367 732 324 710 q 460 754 411 754 m 289 108 q 391 168 350 108 q 451 317 432 228 q 471 500 471 407 q 453 597 471 568 q 399 625 435 625 q 332 601 367 625 q 268 536 297 576 l 211 124 q 289 108 250 108 z "},"ʭ":{"ha":424,"x_min":-10,"x_max":438,"o":"m 407 556 l 303 556 l 319 681 l 189 681 l 172 556 l 68 556 l 99 771 l 438 771 l 407 556 m 329 -1 l 225 -1 l 242 124 l 111 124 l 94 -1 l -10 -1 l 21 214 l 360 214 l 329 -1 z "},"ʘ":{"ha":919,"x_min":57,"x_max":894,"o":"m 553 979 q 803 879 711 979 q 894 600 894 779 q 832 276 894 417 q 657 58 769 136 q 399 -19 544 -19 q 149 81 242 -19 q 57 361 57 182 q 120 684 57 543 q 297 902 183 825 q 553 979 410 979 m 542 854 q 367 790 439 854 q 258 613 294 725 q 221 357 221 500 q 271 167 221 229 q 411 106 321 106 q 585 169 513 106 q 694 345 657 233 q 731 600 731 457 q 681 791 731 728 q 542 854 631 854 m 468 379 q 406 402 428 379 q 383 463 383 425 q 413 542 383 511 q 489 572 443 572 q 551 549 529 572 q 574 488 574 526 q 543 409 574 439 q 468 379 513 379 z "},"ʬ":{"ha":539,"x_min":42,"x_max":575,"o":"m 575 925 l 454 556 l 342 556 l 338 828 l 254 556 l 142 556 l 119 925 l 204 925 l 210 640 l 299 925 l 403 925 l 408 639 l 493 925 l 575 925 m 497 369 l 376 0 l 264 0 l 260 272 l 176 0 l 64 0 l 42 369 l 126 369 l 132 85 l 221 369 l 325 369 l 331 83 l 415 369 l 497 369 z "},"ƀ":{"ha":690,"x_min":42,"x_max":653,"o":"m 471 754 q 604 690 556 754 q 653 506 653 625 q 616 244 653 363 q 495 52 579 125 q 279 -21 411 -21 q 42 33 169 -21 l 156 839 l 83 839 l 100 949 l 171 949 l 182 1029 l 351 1047 l 338 949 l 499 949 l 468 839 l 322 839 l 299 668 q 378 732 335 710 q 471 754 422 754 m 300 108 q 402 168 361 108 q 463 317 443 228 q 482 500 482 407 q 464 597 482 568 q 410 625 446 625 q 343 601 378 625 q 279 536 308 576 l 222 124 q 300 108 261 108 z "},"ƃ":{"ha":679,"x_min":31,"x_max":642,"o":"m 460 746 q 593 679 544 746 q 642 489 642 613 q 603 237 640 351 q 483 51 567 122 q 268 -21 400 -21 q 31 33 158 -21 l 171 1029 l 586 1029 l 549 903 l 319 903 l 286 658 q 367 723 322 700 q 460 746 411 746 m 289 108 q 391 167 350 108 q 451 314 432 226 q 471 488 471 401 q 452 588 471 558 q 397 617 433 617 q 331 592 367 617 q 267 526 296 567 l 211 124 q 289 108 250 108 z "},"c":{"ha":550,"x_min":40,"x_max":586,"o":"m 393 754 q 501 733 454 754 q 586 669 547 713 l 501 575 q 450 610 474 599 q 396 621 426 621 q 259 509 303 621 q 215 258 215 397 q 239 150 215 183 q 307 117 263 117 q 365 128 338 117 q 429 165 392 140 l 490 60 q 282 -21 390 -21 q 105 55 169 -21 q 40 264 40 131 q 81 502 40 390 q 200 684 121 614 q 393 754 279 754 z "},"ć":{"ha":550,"x_min":40,"x_max":586,"o":"m 393 754 q 501 733 454 754 q 586 669 547 713 l 501 575 q 450 610 474 599 q 396 621 426 621 q 259 509 303 621 q 215 258 215 397 q 239 150 215 183 q 307 117 263 117 q 365 128 338 117 q 429 165 392 140 l 490 60 q 282 -21 390 -21 q 105 55 169 -21 q 40 264 40 131 q 81 502 40 390 q 200 684 121 614 q 393 754 279 754 m 515 1128 l 578 1001 l 300 876 l 256 958 l 515 1128 z "},"č":{"ha":550,"x_min":40,"x_max":636,"o":"m 393 754 q 501 733 454 754 q 586 669 547 713 l 501 575 q 450 610 474 599 q 396 621 426 621 q 259 509 303 621 q 215 258 215 397 q 239 150 215 183 q 307 117 263 117 q 365 128 338 117 q 429 165 392 140 l 490 60 q 282 -21 390 -21 q 105 55 169 -21 q 40 264 40 131 q 81 502 40 390 q 200 684 121 614 q 393 754 279 754 m 576 1103 l 636 1033 l 451 861 l 349 861 l 213 1033 l 279 1103 l 410 985 l 576 1103 z "},"ç":{"ha":550,"x_min":40,"x_max":586,"o":"m 396 621 q 259 509 303 621 q 215 258 215 397 q 239 150 215 183 q 307 117 263 117 q 365 128 338 117 q 429 165 392 140 l 490 60 q 307 -19 401 -11 l 299 -78 q 374 -112 349 -83 q 399 -187 399 -140 q 353 -299 399 -250 q 217 -347 308 -347 q 97 -308 142 -347 l 147 -231 q 214 -249 181 -249 q 259 -235 242 -249 q 276 -194 276 -221 q 256 -158 276 -168 q 181 -147 235 -147 l 211 -12 q 85 81 131 10 q 40 264 40 153 q 81 502 40 390 q 200 684 121 614 q 393 754 279 754 q 501 733 454 754 q 586 669 547 713 l 501 575 q 450 610 474 599 q 396 621 426 621 z "},"ĉ":{"ha":550,"x_min":40,"x_max":628,"o":"m 393 754 q 501 733 454 754 q 586 669 547 713 l 501 575 q 450 610 474 599 q 396 621 426 621 q 259 509 303 621 q 215 258 215 397 q 239 150 215 183 q 307 117 263 117 q 365 128 338 117 q 429 165 392 140 l 490 60 q 282 -21 390 -21 q 105 55 169 -21 q 40 264 40 131 q 81 502 40 390 q 200 684 121 614 q 393 754 279 754 m 261 875 l 200 946 l 386 1119 l 489 1119 l 628 939 l 554 875 l 425 996 l 261 875 z "},"ɕ":{"ha":575,"x_min":40,"x_max":586,"o":"m 404 335 q 499 297 463 335 q 536 196 536 260 q 504 79 536 128 q 419 6 472 31 q 303 -19 367 -19 q 215 -8 249 -19 l 163 -110 l 86 -71 l 140 29 q 66 126 92 65 q 40 265 40 188 q 81 502 40 390 q 201 684 121 614 q 393 754 281 754 q 501 733 454 754 q 586 669 547 713 l 501 575 q 450 610 475 599 q 396 621 425 621 q 291 565 332 621 q 233 427 250 510 q 215 260 215 344 q 221 179 215 207 q 305 297 260 260 q 404 335 350 335 m 331 110 q 393 132 369 110 q 417 193 417 154 q 385 235 417 235 q 335 208 360 235 q 281 117 310 181 q 331 110 300 110 z "},"ċ":{"ha":550,"x_min":40,"x_max":586,"o":"m 393 754 q 501 733 454 754 q 586 669 547 713 l 501 575 q 450 610 474 599 q 396 621 426 621 q 259 509 303 621 q 215 258 215 397 q 239 150 215 183 q 307 117 263 117 q 365 128 338 117 q 429 165 392 140 l 490 60 q 282 -21 390 -21 q 105 55 169 -21 q 40 264 40 131 q 81 502 40 390 q 200 684 121 614 q 393 754 279 754 m 407 894 q 340 919 364 894 q 315 985 315 943 q 348 1069 315 1038 q 429 1101 381 1101 q 497 1077 472 1101 q 521 1011 521 1053 q 488 927 521 960 q 407 894 454 894 z "},"ƈ":{"ha":549,"x_min":40,"x_max":817,"o":"m 669 1047 q 817 993 751 1047 l 751 892 q 679 917 713 917 q 632 894 649 917 q 608 824 615 872 l 586 669 l 508 582 q 396 621 450 621 q 259 509 303 621 q 215 258 215 397 q 239 150 215 183 q 307 117 263 117 q 365 128 338 117 q 429 165 393 140 l 490 60 q 282 -21 390 -21 q 105 55 169 -21 q 40 264 40 131 q 79 501 40 389 q 194 684 118 614 q 375 754 271 754 q 449 740 417 754 l 464 850 q 531 997 479 946 q 669 1047 582 1047 z "},"ʗ":{"ha":575,"x_min":32,"x_max":611,"o":"m 418 754 q 525 733 479 754 q 611 669 571 713 l 526 575 q 475 610 499 599 q 421 621 451 621 q 303 537 351 621 q 231 321 254 453 q 207 46 207 189 q 230 -120 207 -76 q 299 -164 253 -164 q 356 -153 329 -164 q 419 -117 383 -142 l 482 -221 q 274 -301 385 -301 q 94 -216 157 -301 q 32 49 32 -131 q 78 409 32 249 q 211 662 124 569 q 418 754 299 754 z "},"ȼ":{"ha":550,"x_min":40,"x_max":586,"o":"m 501 575 q 458 606 474 599 l 282 119 q 307 117 299 117 q 365 128 338 117 q 429 165 392 140 l 490 60 q 282 -21 390 -21 q 233 -17 257 -21 l 203 -100 l 146 -83 l 176 0 q 76 98 111 31 q 40 264 40 165 q 81 502 40 390 q 200 684 121 614 q 393 754 279 754 q 447 750 422 754 l 476 831 l 533 813 l 504 732 q 586 669 547 713 l 501 575 m 400 621 l 396 621 q 259 509 303 621 q 215 258 215 397 q 233 158 215 197 l 400 621 z "},"d":{"ha":681,"x_min":38,"x_max":697,"o":"m 697 1028 l 553 0 l 404 0 l 408 100 q 326 10 371 40 q 224 -21 282 -21 q 86 48 135 -21 q 38 239 38 117 q 72 481 38 361 q 177 678 107 600 q 346 756 247 756 q 481 679 436 756 l 531 1044 l 697 1028 m 374 626 q 282 564 319 626 q 226 410 244 501 q 208 238 208 319 q 282 108 208 108 q 351 143 318 108 q 419 244 385 178 l 463 557 q 426 610 446 593 q 374 626 406 626 z "},"ð":{"ha":681,"x_min":36,"x_max":632,"o":"m 490 921 q 599 767 565 853 q 632 557 632 682 q 592 273 632 404 q 472 61 551 142 q 276 -19 392 -19 q 101 51 165 -19 q 36 251 36 122 q 72 445 36 350 q 174 601 108 540 q 324 661 240 661 q 408 643 372 661 q 471 589 443 625 q 451 723 469 672 q 390 824 433 774 l 308 742 l 215 794 l 307 890 q 200 932 263 914 l 249 1046 q 401 985 331 1025 l 507 1092 l 582 1015 l 490 921 m 289 108 q 401 200 364 108 q 460 456 439 292 q 357 538 426 538 q 242 447 279 538 q 204 243 204 356 q 289 108 204 108 z "},"ȸ":{"ha":990,"x_min":39,"x_max":951,"o":"m 782 754 q 908 686 864 754 q 951 492 951 618 q 916 240 951 357 q 815 51 881 122 q 661 -19 749 -19 q 587 6 619 -19 q 533 79 554 32 l 513 0 l 383 0 l 383 88 q 224 -19 318 -19 q 88 54 136 -19 q 39 256 39 128 q 76 501 39 386 q 179 685 113 615 q 331 754 246 754 q 405 730 372 754 q 456 664 438 706 l 506 1029 l 676 1047 l 624 665 q 695 731 656 707 q 782 754 735 754 m 276 108 q 334 133 306 108 q 393 211 363 157 l 439 543 q 404 606 424 586 q 358 625 385 625 q 280 571 313 625 q 231 433 247 517 q 214 260 214 349 q 230 144 214 179 q 276 108 246 108 m 638 108 q 714 165 682 108 q 763 308 746 221 q 779 482 779 394 q 763 592 779 560 q 715 625 746 625 q 607 540 661 625 l 558 194 q 638 108 588 108 z "},"ď":{"ha":783,"x_min":38,"x_max":899,"o":"m 697 1028 l 553 0 l 404 0 l 408 100 q 326 10 371 40 q 224 -21 282 -21 q 86 48 135 -21 q 38 239 38 117 q 72 481 38 361 q 177 678 107 600 q 346 756 247 756 q 481 679 436 756 l 531 1044 l 697 1028 m 374 626 q 282 564 319 626 q 226 410 244 501 q 208 238 208 319 q 282 108 208 108 q 351 143 318 108 q 419 244 385 178 l 463 557 q 426 610 446 593 q 374 626 406 626 m 772 1044 l 899 1028 l 806 753 l 718 764 l 772 1044 z "},"ḓ":{"ha":681,"x_min":38,"x_max":697,"o":"m 697 1028 l 553 0 l 404 0 l 408 100 q 326 10 371 40 q 224 -21 282 -21 q 86 48 135 -21 q 38 239 38 117 q 72 481 38 361 q 177 678 107 600 q 346 756 247 756 q 481 679 436 756 l 531 1044 l 697 1028 m 374 626 q 282 564 319 626 q 226 410 244 501 q 208 238 208 319 q 282 108 208 108 q 351 143 318 108 q 419 244 385 178 l 463 557 q 426 610 446 593 q 374 626 406 626 m 104 -336 l 42 -265 l 228 -92 l 331 -92 l 469 -272 l 397 -336 l 268 -215 l 104 -336 z "},"đ":{"ha":694,"x_min":38,"x_max":758,"o":"m 758 946 l 740 836 l 671 836 l 553 0 l 404 0 l 408 100 q 326 10 371 40 q 224 -21 282 -21 q 86 48 135 -21 q 38 239 38 117 q 72 481 38 361 q 177 678 107 600 q 346 756 247 756 q 481 679 436 756 l 501 836 l 354 836 l 357 946 l 517 946 l 531 1044 l 697 1028 l 686 946 l 758 946 m 463 557 q 426 610 446 593 q 374 626 406 626 q 282 564 319 626 q 226 410 244 501 q 208 238 208 319 q 282 108 208 108 q 351 143 318 108 q 419 244 385 178 l 463 557 z "},"ȡ":{"ha":888,"x_min":38,"x_max":874,"o":"m 753 321 q 840 286 807 321 q 874 189 874 251 q 806 34 874 88 q 636 -19 739 -19 q 578 -15 606 -19 l 529 -110 l 451 -71 l 497 11 q 421 115 440 42 q 332 13 379 46 q 224 -21 285 -21 q 86 48 135 -21 q 38 239 38 117 q 72 481 38 361 q 177 678 107 600 q 346 756 247 756 q 481 679 436 756 l 531 1044 l 697 1028 l 579 194 q 578 168 576 175 q 656 286 615 251 q 753 321 696 321 m 463 557 q 426 610 446 593 q 374 626 406 626 q 282 564 319 626 q 226 410 244 501 q 208 238 208 319 q 282 108 208 108 q 351 144 318 108 q 419 246 385 179 l 463 557 m 672 110 q 733 131 710 110 q 757 188 757 151 q 728 221 757 221 q 688 198 707 221 q 640 111 669 175 q 672 110 650 110 z "},"ḋ":{"ha":681,"x_min":38,"x_max":697,"o":"m 697 1028 l 553 0 l 404 0 l 408 100 q 326 10 371 40 q 224 -21 282 -21 q 86 48 135 -21 q 38 239 38 117 q 72 481 38 361 q 177 678 107 600 q 346 756 247 756 q 481 679 436 756 l 531 1044 l 697 1028 m 374 626 q 282 564 319 626 q 226 410 244 501 q 208 238 208 319 q 282 108 208 108 q 351 143 318 108 q 419 244 385 178 l 463 557 q 426 610 446 593 q 374 626 406 626 m 458 1139 q 391 1163 415 1139 q 367 1229 367 1188 q 399 1314 367 1282 q 481 1346 432 1346 q 548 1322 524 1346 q 572 1256 572 1297 q 539 1172 572 1204 q 458 1139 506 1139 z "},"ḍ":{"ha":681,"x_min":38,"x_max":697,"o":"m 697 1028 l 553 0 l 404 0 l 408 100 q 326 10 371 40 q 224 -21 282 -21 q 86 48 135 -21 q 38 239 38 117 q 72 481 38 361 q 177 678 107 600 q 346 756 247 756 q 481 679 436 756 l 531 1044 l 697 1028 m 374 626 q 282 564 319 626 q 226 410 244 501 q 208 238 208 319 q 282 108 208 108 q 351 143 318 108 q 419 244 385 178 l 463 557 q 426 610 446 593 q 374 626 406 626 m 275 -94 q 342 -119 318 -94 q 367 -185 367 -143 q 334 -269 367 -237 q 253 -301 301 -301 q 185 -277 210 -301 q 161 -211 161 -253 q 194 -127 161 -160 q 275 -94 228 -94 z "},"ƍ":{"ha":669,"x_min":10,"x_max":631,"o":"m 222 -304 q 10 -211 85 -304 l 99 -126 q 156 -169 128 -156 q 219 -182 183 -182 q 293 -156 268 -182 q 318 -86 318 -129 q 298 -28 318 -51 q 222 26 278 -4 q 85 143 128 79 q 43 307 43 207 q 79 508 43 404 q 194 683 115 611 q 390 754 272 754 q 567 678 504 754 q 631 479 631 601 q 577 238 631 338 q 392 74 524 139 q 458 0 438 38 q 479 -82 479 -37 q 450 -190 479 -139 q 363 -272 421 -240 q 222 -304 304 -304 m 308 125 q 428 279 399 197 q 458 486 458 361 q 438 588 458 551 q 376 624 417 624 q 256 524 296 624 q 217 303 217 424 q 236 199 217 239 q 308 125 256 160 z "},"ʤ":{"ha":1143,"x_min":38,"x_max":1135,"o":"m 1117 613 l 851 285 q 1018 221 963 279 q 1074 60 1074 163 q 1029 -130 1074 -47 q 907 -257 985 -212 q 733 -301 829 -301 q 588 -267 647 -301 q 488 -167 528 -233 l 590 -85 q 658 -149 625 -131 q 736 -168 690 -168 q 856 -106 811 -168 q 901 57 901 -43 q 870 153 901 125 q 774 181 839 181 l 671 181 l 672 182 l 688 289 l 939 603 l 638 603 l 553 0 l 404 0 l 408 100 q 326 10 371 40 q 224 -21 282 -21 q 86 48 135 -21 q 38 239 38 117 q 72 481 38 361 q 177 678 107 600 q 346 756 247 756 q 481 679 436 756 l 531 1044 l 697 1028 l 656 735 l 1135 735 l 1117 613 m 463 557 q 426 610 446 593 q 374 626 406 626 q 282 564 319 626 q 226 410 244 501 q 208 238 208 319 q 282 108 208 108 q 351 143 318 108 q 419 244 385 178 l 463 557 z "},"ɗ":{"ha":681,"x_min":38,"x_max":876,"o":"m 731 1047 q 876 993 814 1047 l 808 893 q 739 917 776 917 q 669 832 682 917 l 656 735 l 553 0 l 404 0 l 408 100 q 326 10 371 40 q 224 -21 282 -21 q 86 48 135 -21 q 38 239 38 117 q 72 481 38 361 q 177 678 107 600 q 346 756 247 756 q 481 679 436 756 l 488 735 l 501 831 q 574 990 515 932 q 731 1047 633 1047 m 463 557 q 426 610 446 593 q 374 626 406 626 q 282 564 319 626 q 226 410 244 501 q 208 238 208 319 q 282 108 208 108 q 351 143 318 108 q 419 244 385 178 l 463 557 z "},"ḏ":{"ha":681,"x_min":38,"x_max":697,"o":"m 697 1028 l 553 0 l 404 0 l 408 100 q 326 10 371 40 q 224 -21 282 -21 q 86 48 135 -21 q 38 239 38 117 q 72 481 38 361 q 177 678 107 600 q 346 756 247 756 q 481 679 436 756 l 531 1044 l 697 1028 m 374 626 q 282 564 319 626 q 226 410 244 501 q 208 238 208 319 q 282 108 208 108 q 351 143 318 108 q 419 244 385 178 l 463 557 q 426 610 446 593 q 374 626 406 626 m 117 -129 l 453 -129 l 435 -251 l 97 -251 l 117 -129 z "},"ɖ":{"ha":682,"x_min":38,"x_max":719,"o":"m 719 -247 q 557 -301 651 -301 q 420 -253 469 -301 q 371 -117 371 -204 q 374 -74 371 -104 l 383 0 l 385 0 l 396 90 q 224 -21 328 -21 q 86 48 135 -21 q 38 239 38 117 q 72 481 38 361 q 177 678 107 600 q 346 756 247 756 q 481 679 436 756 l 531 1044 l 697 1028 l 553 0 l 551 0 l 540 -94 q 539 -117 539 -103 q 594 -172 539 -172 q 631 -166 615 -172 q 669 -147 647 -160 l 719 -247 m 282 108 q 351 143 318 108 q 419 244 385 178 l 463 557 q 426 610 446 593 q 374 626 406 626 q 282 564 319 626 q 226 410 244 501 q 208 238 208 319 q 282 108 208 108 z "},"ƌ":{"ha":681,"x_min":36,"x_max":696,"o":"m 551 0 l 404 0 l 407 100 q 326 10 371 42 q 224 -21 282 -21 q 85 48 135 -21 q 36 239 36 117 q 71 474 36 357 q 176 669 106 592 q 344 746 246 746 q 479 669 435 746 l 511 903 l 271 903 l 288 1029 l 696 1029 l 551 0 m 461 547 q 424 601 444 583 q 372 618 404 618 q 281 556 318 618 q 226 404 244 493 q 208 238 208 315 q 282 108 208 108 q 350 144 317 108 q 418 244 383 179 l 461 547 z "},"ǳ":{"ha":1197,"x_min":38,"x_max":1218,"o":"m 697 1028 l 553 0 l 404 0 l 408 100 q 326 10 371 40 q 224 -21 282 -21 q 86 48 135 -21 q 38 239 38 117 q 72 481 38 361 q 177 678 107 600 q 346 756 247 756 q 481 679 436 756 l 531 1044 l 697 1028 m 374 626 q 282 564 319 626 q 226 410 244 501 q 208 238 208 319 q 282 108 208 108 q 351 143 318 108 q 419 244 385 178 l 463 557 q 426 610 446 593 q 374 626 406 626 m 1218 735 l 1200 611 l 861 135 l 1142 135 l 1106 0 l 647 0 l 665 124 l 1004 600 l 753 600 l 774 735 l 1218 735 z "},"ʣ":{"ha":1100,"x_min":38,"x_max":1121,"o":"m 1103 611 l 767 135 l 1046 135 l 1010 0 l 404 0 l 408 100 q 326 10 371 40 q 224 -21 282 -21 q 86 48 135 -21 q 38 239 38 117 q 72 481 38 361 q 177 678 107 600 q 346 756 247 756 q 481 679 436 756 l 531 1044 l 697 1028 l 656 735 l 1121 735 l 1103 611 m 463 557 q 426 610 446 593 q 374 626 406 626 q 282 564 319 626 q 226 410 244 501 q 208 238 208 319 q 282 108 208 108 q 351 143 318 108 q 419 244 385 178 l 463 557 m 571 125 l 907 600 l 638 600 l 571 125 z "},"ǆ":{"ha":1197,"x_min":38,"x_max":1247,"o":"m 697 1028 l 553 0 l 404 0 l 408 100 q 326 10 371 40 q 224 -21 282 -21 q 86 48 135 -21 q 38 239 38 117 q 72 481 38 361 q 177 678 107 600 q 346 756 247 756 q 481 679 436 756 l 531 1044 l 697 1028 m 374 626 q 282 564 319 626 q 226 410 244 501 q 208 238 208 319 q 282 108 208 108 q 351 143 318 108 q 419 244 385 178 l 463 557 q 426 610 446 593 q 374 626 406 626 m 1218 735 l 1200 611 l 861 135 l 1142 135 l 1106 0 l 647 0 l 665 124 l 1004 600 l 753 600 l 774 735 l 1218 735 m 1188 1103 l 1247 1033 l 1063 861 l 960 861 l 824 1033 l 890 1103 l 1021 985 l 1188 1103 z "},"ʥ":{"ha":1182,"x_min":38,"x_max":1188,"o":"m 1058 331 q 1152 297 1117 331 q 1188 200 1188 263 q 1118 48 1188 96 q 932 0 1049 0 l 931 0 q 899 -176 918 -49 l 801 -169 q 831 0 814 -85 l 404 0 l 408 100 q 326 10 371 40 q 224 -21 282 -21 q 86 48 135 -21 q 38 239 38 117 q 72 481 38 361 q 177 678 107 600 q 346 756 247 756 q 481 679 436 756 l 531 1044 l 697 1028 l 656 735 l 1121 735 l 1103 619 l 757 135 l 868 135 q 949 285 904 240 q 1058 331 994 331 m 463 557 q 426 610 446 593 q 374 626 406 626 q 282 564 319 626 q 226 410 244 501 q 208 238 208 319 q 282 108 208 108 q 351 143 318 108 q 419 244 385 178 l 463 557 m 638 600 l 571 128 l 907 600 l 638 600 m 967 135 q 1046 149 1019 135 q 1072 201 1072 163 q 1043 235 1072 235 q 967 135 996 235 z "},"e":{"ha":625,"x_min":39,"x_max":613,"o":"m 400 754 q 556 701 500 754 q 613 567 613 649 q 502 359 613 425 q 208 271 392 293 l 208 251 q 234 145 208 178 q 308 113 260 113 q 384 128 349 113 q 465 176 419 143 l 526 74 q 285 -21 414 -21 q 104 51 169 -21 q 39 254 39 122 q 78 497 39 382 q 199 683 117 611 q 400 754 281 754 m 219 383 q 392 442 336 397 q 447 563 447 486 q 383 633 447 633 q 276 562 317 633 q 219 383 236 490 z "},"é":{"ha":625,"x_min":39,"x_max":613,"o":"m 400 754 q 556 701 500 754 q 613 567 613 649 q 502 359 613 425 q 208 271 392 293 l 208 251 q 234 145 208 178 q 308 113 260 113 q 384 128 349 113 q 465 176 419 143 l 526 74 q 285 -21 414 -21 q 104 51 169 -21 q 39 254 39 122 q 78 497 39 382 q 199 683 117 611 q 400 754 281 754 m 219 383 q 392 442 336 397 q 447 563 447 486 q 383 633 447 633 q 276 562 317 633 q 219 383 236 490 m 522 1128 l 585 1001 l 307 876 l 263 958 l 522 1128 z "},"ĕ":{"ha":625,"x_min":39,"x_max":625,"o":"m 400 754 q 556 701 500 754 q 613 567 613 649 q 502 359 613 425 q 208 271 392 293 l 208 251 q 234 145 208 178 q 308 113 260 113 q 384 128 349 113 q 465 176 419 143 l 526 74 q 285 -21 414 -21 q 104 51 169 -21 q 39 254 39 122 q 78 497 39 382 q 199 683 117 611 q 400 754 281 754 m 219 383 q 392 442 336 397 q 447 563 447 486 q 383 633 447 633 q 276 562 317 633 q 219 383 236 490 m 415 886 q 285 945 329 886 q 247 1100 240 1004 l 342 1114 q 421 1010 349 1010 q 488 1038 458 1010 q 535 1118 518 1067 l 625 1093 q 551 942 606 999 q 415 886 496 886 z "},"ě":{"ha":625,"x_min":39,"x_max":643,"o":"m 400 754 q 556 701 500 754 q 613 567 613 649 q 502 359 613 425 q 208 271 392 293 l 208 251 q 234 145 208 178 q 308 113 260 113 q 384 128 349 113 q 465 176 419 143 l 526 74 q 285 -21 414 -21 q 104 51 169 -21 q 39 254 39 122 q 78 497 39 382 q 199 683 117 611 q 400 754 281 754 m 219 383 q 392 442 336 397 q 447 563 447 486 q 383 633 447 633 q 276 562 317 633 q 219 383 236 490 m 583 1103 l 643 1033 l 458 861 l 356 861 l 219 1033 l 286 1103 l 417 985 l 583 1103 z "},"ȩ":{"ha":625,"x_min":39,"x_max":613,"o":"m 400 754 q 556 701 500 754 q 613 567 613 649 q 502 359 613 425 q 208 271 392 293 l 208 251 q 234 145 208 178 q 308 113 260 113 q 384 128 349 113 q 465 176 419 143 l 526 74 q 326 -18 431 -7 l 317 -78 q 392 -112 367 -83 q 417 -187 417 -140 q 372 -299 417 -250 q 235 -347 326 -347 q 115 -308 160 -347 l 165 -231 q 232 -249 199 -249 q 277 -235 260 -249 q 294 -194 294 -221 q 274 -158 294 -168 q 199 -147 253 -147 l 229 -17 q 89 70 139 0 q 39 254 39 140 q 78 497 39 382 q 199 683 117 611 q 400 754 281 754 m 219 383 q 392 442 336 397 q 447 563 447 486 q 383 633 447 633 q 276 562 317 633 q 219 383 236 490 z "},"ê":{"ha":625,"x_min":39,"x_max":635,"o":"m 400 754 q 556 701 500 754 q 613 567 613 649 q 502 359 613 425 q 208 271 392 293 l 208 251 q 234 145 208 178 q 308 113 260 113 q 384 128 349 113 q 465 176 419 143 l 526 74 q 285 -21 414 -21 q 104 51 169 -21 q 39 254 39 122 q 78 497 39 382 q 199 683 117 611 q 400 754 281 754 m 219 383 q 392 442 336 397 q 447 563 447 486 q 383 633 447 633 q 276 562 317 633 q 219 383 236 490 m 268 875 l 207 946 l 393 1119 l 496 1119 l 635 939 l 561 875 l 432 996 l 268 875 z "},"ế":{"ha":625,"x_min":39,"x_max":799,"o":"m 799 1193 l 594 1000 l 535 1054 l 714 1279 l 799 1193 m 375 1056 l 478 1056 l 617 878 l 549 815 l 414 931 l 253 815 l 189 886 l 375 1056 m 400 754 q 556 701 500 754 q 613 567 613 649 q 502 359 613 425 q 208 271 392 293 l 208 251 q 234 145 208 178 q 308 113 260 113 q 384 128 349 113 q 465 176 419 143 l 526 74 q 285 -21 414 -21 q 104 51 169 -21 q 39 254 39 122 q 78 497 39 382 q 199 683 117 611 q 400 754 281 754 m 219 383 q 392 442 336 397 q 447 563 447 486 q 383 633 447 633 q 276 562 317 633 q 219 383 236 490 z "},"ệ":{"ha":625,"x_min":39,"x_max":635,"o":"m 400 754 q 556 701 500 754 q 613 567 613 649 q 502 359 613 425 q 208 271 392 293 l 208 251 q 234 145 208 178 q 308 113 260 113 q 384 128 349 113 q 465 176 419 143 l 526 74 q 285 -21 414 -21 q 104 51 169 -21 q 39 254 39 122 q 78 497 39 382 q 199 683 117 611 q 400 754 281 754 m 219 383 q 392 442 336 397 q 447 563 447 486 q 383 633 447 633 q 276 562 317 633 q 219 383 236 490 m 268 875 l 207 946 l 393 1119 l 496 1119 l 635 939 l 561 875 l 432 996 l 268 875 m 267 -94 q 334 -119 310 -94 q 358 -185 358 -143 q 326 -269 358 -237 q 244 -301 293 -301 q 177 -277 201 -301 q 153 -211 153 -253 q 186 -127 153 -160 q 267 -94 219 -94 z "},"ề":{"ha":625,"x_min":39,"x_max":614,"o":"m 314 1049 l 242 1000 l 90 1199 l 197 1276 l 314 1049 m 250 815 l 186 886 l 372 1056 l 475 1056 l 614 878 l 546 815 l 411 931 l 250 815 m 400 754 q 556 701 500 754 q 613 567 613 649 q 502 359 613 425 q 208 271 392 293 l 208 251 q 234 145 208 178 q 308 113 260 113 q 384 128 349 113 q 465 176 419 143 l 526 74 q 285 -21 414 -21 q 104 51 169 -21 q 39 254 39 122 q 78 497 39 382 q 199 683 117 611 q 400 754 281 754 m 219 383 q 392 442 336 397 q 447 563 447 486 q 383 633 447 633 q 276 562 317 633 q 219 383 236 490 z "},"ể":{"ha":625,"x_min":39,"x_max":778,"o":"m 400 754 q 556 701 500 754 q 613 567 613 649 q 502 359 613 425 q 208 271 392 293 l 208 251 q 234 145 208 178 q 308 113 260 113 q 384 128 349 113 q 465 176 419 143 l 526 74 q 285 -21 414 -21 q 104 51 169 -21 q 39 254 39 122 q 78 497 39 382 q 199 683 117 611 q 400 754 281 754 m 219 383 q 392 442 336 397 q 447 563 447 486 q 383 633 447 633 q 276 562 317 633 q 219 383 236 490 m 251 815 l 188 886 l 374 1056 l 476 1056 l 615 878 l 547 815 l 413 931 l 251 815 m 569 1150 q 637 1170 615 1156 q 658 1217 658 1185 q 621 1254 658 1254 q 554 1236 590 1254 l 532 1318 q 587 1342 560 1333 q 649 1350 614 1350 q 743 1316 708 1350 q 778 1228 778 1282 q 665 1093 778 1115 l 653 1018 l 551 1018 l 569 1150 z "},"ễ":{"ha":625,"x_min":39,"x_max":664,"o":"m 382 1149 q 349 1135 364 1149 q 315 1090 335 1121 l 238 1136 q 308 1233 268 1196 q 390 1269 347 1269 q 434 1260 415 1269 q 474 1232 453 1250 q 486 1222 476 1229 q 505 1210 496 1214 q 522 1207 514 1207 q 553 1220 538 1207 q 588 1264 568 1233 l 664 1219 q 594 1122 633 1157 q 513 1088 554 1088 q 472 1097 489 1088 q 431 1124 454 1106 q 382 1149 400 1149 m 376 1046 l 479 1046 l 618 868 l 550 806 l 415 921 l 254 806 l 190 876 l 376 1046 m 400 754 q 556 701 500 754 q 613 567 613 649 q 502 359 613 425 q 208 271 392 293 l 208 251 q 234 145 208 178 q 308 113 260 113 q 384 128 349 113 q 465 176 419 143 l 526 74 q 285 -21 414 -21 q 104 51 169 -21 q 39 254 39 122 q 78 497 39 382 q 199 683 117 611 q 400 754 281 754 m 219 383 q 392 442 336 397 q 447 563 447 486 q 383 633 447 633 q 276 562 317 633 q 219 383 236 490 z "},"ȅ":{"ha":625,"x_min":39,"x_max":613,"o":"m 400 754 q 556 701 500 754 q 613 567 613 649 q 502 359 613 425 q 208 271 392 293 l 208 251 q 234 145 208 178 q 308 113 260 113 q 384 128 349 113 q 465 176 419 143 l 526 74 q 285 -21 414 -21 q 104 51 169 -21 q 39 254 39 122 q 78 497 39 382 q 199 683 117 611 q 400 754 281 754 m 219 383 q 392 442 336 397 q 447 563 447 486 q 383 633 447 633 q 276 562 317 633 q 219 383 236 490 m 303 1174 l 379 913 l 279 875 l 171 1119 l 303 1174 m 496 1172 l 561 917 l 463 882 l 363 1121 l 496 1172 z "},"ë":{"ha":625,"x_min":39,"x_max":646,"o":"m 400 754 q 556 701 500 754 q 613 567 613 649 q 502 359 613 425 q 208 271 392 293 l 208 251 q 234 145 208 178 q 308 113 260 113 q 384 128 349 113 q 465 176 419 143 l 526 74 q 285 -21 414 -21 q 104 51 169 -21 q 39 254 39 122 q 78 497 39 382 q 199 683 117 611 q 400 754 281 754 m 219 383 q 392 442 336 397 q 447 563 447 486 q 383 633 447 633 q 276 562 317 633 q 219 383 236 490 m 286 901 q 228 924 250 901 q 207 981 207 946 q 236 1055 207 1025 q 307 1085 265 1085 q 366 1063 344 1085 q 388 1006 388 1040 q 358 931 388 961 q 286 901 328 901 m 546 901 q 488 924 510 901 q 465 981 465 946 q 495 1055 465 1025 q 565 1085 525 1085 q 624 1063 603 1085 q 646 1006 646 1040 q 617 931 646 960 q 546 901 588 901 z "},"ė":{"ha":625,"x_min":39,"x_max":613,"o":"m 400 754 q 556 701 500 754 q 613 567 613 649 q 502 359 613 425 q 208 271 392 293 l 208 251 q 234 145 208 178 q 308 113 260 113 q 384 128 349 113 q 465 176 419 143 l 526 74 q 285 -21 414 -21 q 104 51 169 -21 q 39 254 39 122 q 78 497 39 382 q 199 683 117 611 q 400 754 281 754 m 219 383 q 392 442 336 397 q 447 563 447 486 q 383 633 447 633 q 276 562 317 633 q 219 383 236 490 m 414 894 q 347 919 371 894 q 322 985 322 943 q 355 1069 322 1038 q 436 1101 388 1101 q 503 1077 479 1101 q 528 1011 528 1053 q 494 927 528 960 q 414 894 461 894 z "},"ẹ":{"ha":625,"x_min":39,"x_max":613,"o":"m 400 754 q 556 701 500 754 q 613 567 613 649 q 502 359 613 425 q 208 271 392 293 l 208 251 q 234 145 208 178 q 308 113 260 113 q 384 128 349 113 q 465 176 419 143 l 526 74 q 285 -21 414 -21 q 104 51 169 -21 q 39 254 39 122 q 78 497 39 382 q 199 683 117 611 q 400 754 281 754 m 219 383 q 392 442 336 397 q 447 563 447 486 q 383 633 447 633 q 276 562 317 633 q 219 383 236 490 m 267 -94 q 334 -119 310 -94 q 358 -185 358 -143 q 326 -269 358 -237 q 244 -301 293 -301 q 177 -277 201 -301 q 153 -211 153 -253 q 186 -127 153 -160 q 267 -94 219 -94 z "},"è":{"ha":625,"x_min":39,"x_max":613,"o":"m 400 754 q 556 701 500 754 q 613 567 613 649 q 502 359 613 425 q 208 271 392 293 l 208 251 q 234 145 208 178 q 308 113 260 113 q 384 128 349 113 q 465 176 419 143 l 526 74 q 285 -21 414 -21 q 104 51 169 -21 q 39 254 39 122 q 78 497 39 382 q 199 683 117 611 q 400 754 281 754 m 219 383 q 392 442 336 397 q 447 563 447 486 q 383 633 447 633 q 276 562 317 633 q 219 383 236 490 m 368 1125 l 589 956 l 538 878 l 289 1001 l 368 1125 z "},"ẻ":{"ha":625,"x_min":39,"x_max":613,"o":"m 400 754 q 556 701 500 754 q 613 567 613 649 q 502 359 613 425 q 208 271 392 293 l 208 251 q 234 145 208 178 q 308 113 260 113 q 384 128 349 113 q 465 176 419 143 l 526 74 q 285 -21 414 -21 q 104 51 169 -21 q 39 254 39 122 q 78 497 39 382 q 199 683 117 611 q 400 754 281 754 m 219 383 q 392 442 336 397 q 447 563 447 486 q 383 633 447 633 q 276 562 317 633 q 219 383 236 490 m 371 978 q 438 998 417 983 q 460 1044 460 1013 q 422 1082 460 1082 q 356 1064 392 1082 l 333 1146 q 388 1169 361 1161 q 450 1178 415 1178 q 544 1144 510 1178 q 579 1056 579 1110 q 467 921 579 943 l 454 846 l 353 846 l 371 978 z "},"ȇ":{"ha":625,"x_min":39,"x_max":613,"o":"m 400 754 q 556 701 500 754 q 613 567 613 649 q 502 359 613 425 q 208 271 392 293 l 208 251 q 234 145 208 178 q 308 113 260 113 q 384 128 349 113 q 465 176 419 143 l 526 74 q 285 -21 414 -21 q 104 51 169 -21 q 39 254 39 122 q 78 497 39 382 q 199 683 117 611 q 400 754 281 754 m 219 383 q 392 442 336 397 q 447 563 447 486 q 383 633 447 633 q 276 562 317 633 q 219 383 236 490 m 217 867 q 297 1018 240 963 q 436 1074 354 1074 q 563 1015 521 1074 q 600 861 606 957 l 504 847 q 424 951 497 951 q 310 842 344 951 l 217 867 z "},"ē":{"ha":625,"x_min":39,"x_max":613,"o":"m 400 754 q 556 701 500 754 q 613 567 613 649 q 502 359 613 425 q 208 271 392 293 l 208 251 q 234 145 208 178 q 308 113 260 113 q 384 128 349 113 q 465 176 419 143 l 526 74 q 285 -21 414 -21 q 104 51 169 -21 q 39 254 39 122 q 78 497 39 382 q 199 683 117 611 q 400 754 281 754 m 219 383 q 392 442 336 397 q 447 563 447 486 q 383 633 447 633 q 276 562 317 633 q 219 383 236 490 m 585 918 l 249 918 l 267 1040 l 604 1040 l 585 918 z "},"ę":{"ha":625,"x_min":39,"x_max":613,"o":"m 400 754 q 556 701 500 754 q 613 567 613 649 q 502 359 613 425 q 208 271 392 293 l 208 251 q 234 145 208 178 q 308 113 260 113 q 384 128 349 113 q 465 176 419 143 l 526 74 q 404 1 467 25 q 305 -73 333 -36 q 276 -147 276 -110 q 332 -204 276 -204 q 403 -194 365 -204 l 379 -308 q 300 -319 339 -319 q 191 -283 232 -319 q 150 -185 150 -246 q 178 -92 150 -133 q 256 -19 206 -50 q 96 60 153 -11 q 39 254 39 131 q 78 497 39 382 q 199 683 117 611 q 400 754 281 754 m 219 383 q 392 442 336 397 q 447 563 447 486 q 383 633 447 633 q 276 562 317 633 q 219 383 236 490 z "},"ɛ":{"ha":569,"x_min":24,"x_max":564,"o":"m 261 -19 q 90 38 156 -19 q 24 189 24 94 q 74 325 24 269 q 225 393 125 381 q 97 538 97 424 q 128 645 97 596 q 216 724 158 694 q 351 754 274 754 q 470 733 415 754 q 564 671 525 711 l 485 585 q 426 619 454 608 q 364 631 399 631 q 289 602 315 631 q 263 529 263 574 q 358 439 263 439 l 415 439 l 379 321 l 329 321 q 229 288 261 321 q 197 200 197 256 q 220 131 197 156 q 289 107 243 107 q 363 122 328 107 q 439 165 397 136 l 503 69 q 393 4 456 28 q 261 -19 331 -19 z "},"ʚ":{"ha":667,"x_min":24,"x_max":625,"o":"m 261 -19 q 90 36 156 -19 q 24 182 24 92 q 75 323 24 265 q 226 393 126 381 q 110 529 110 425 q 142 640 110 589 q 233 723 174 692 q 372 754 293 754 q 560 677 494 754 q 625 467 625 600 q 531 111 625 242 q 261 -19 436 -19 m 276 107 q 417 212 372 107 q 461 472 461 317 q 438 592 461 554 q 368 631 414 631 q 298 601 322 631 q 274 521 274 571 q 353 439 274 439 l 381 439 l 344 321 l 319 321 q 225 285 254 321 q 196 193 196 250 q 217 129 196 151 q 276 107 238 107 z "},"ɜ":{"ha":575,"x_min":-17,"x_max":539,"o":"m 332 754 q 481 706 424 754 q 539 578 539 658 q 494 456 539 506 q 358 390 449 407 q 511 236 511 367 q 478 113 511 171 q 379 17 446 54 q 213 -19 313 -19 q -17 71 71 -19 l 71 168 q 139 122 106 136 q 211 107 172 107 q 305 144 274 107 q 336 239 336 182 q 310 303 336 285 q 233 321 283 321 l 151 321 l 183 439 l 236 439 q 333 473 299 439 q 367 557 367 507 q 296 631 367 631 q 226 618 258 631 q 151 579 193 606 l 90 672 q 332 754 201 754 z "},"ɞ":{"ha":651,"x_min":39,"x_max":618,"o":"m 289 -19 q 103 53 168 -19 q 39 257 39 126 q 84 518 39 406 q 213 692 129 631 q 406 754 296 754 q 558 706 499 754 q 618 578 618 658 q 574 458 618 507 q 444 392 531 410 q 589 238 589 369 q 558 114 589 172 q 458 18 526 56 q 289 -19 390 -19 m 299 107 q 390 145 360 107 q 419 240 419 183 q 395 303 419 285 q 322 321 371 321 l 286 321 l 322 439 l 342 439 q 420 472 392 439 q 449 557 449 504 q 383 631 449 631 q 249 518 296 631 q 203 250 203 406 q 226 141 203 175 q 299 107 249 107 z "},"ɝ":{"ha":851,"x_min":-17,"x_max":893,"o":"m 893 481 q 750 432 826 432 q 633 476 674 432 q 596 589 593 519 l 596 614 l 539 578 q 494 456 539 506 q 358 390 449 407 q 511 236 511 367 q 478 113 511 171 q 379 17 446 54 q 213 -19 313 -19 q -17 71 71 -19 l 71 168 q 139 122 106 136 q 211 107 172 107 q 305 144 274 107 q 336 239 336 182 q 310 303 336 285 q 233 321 283 321 l 151 321 l 183 439 l 236 439 q 333 473 299 439 q 367 557 367 507 q 296 631 367 631 q 226 618 258 631 q 151 579 193 606 l 90 672 q 332 754 201 754 q 438 733 392 754 q 510 675 483 713 l 607 735 l 747 735 l 731 617 q 740 569 726 585 q 779 553 753 553 q 815 558 799 553 q 854 574 832 564 l 893 481 z "},"ɘ":{"ha":628,"x_min":6,"x_max":586,"o":"m 336 754 q 525 674 464 754 q 586 463 586 593 q 542 210 586 319 q 417 41 499 101 q 225 -19 335 -19 q 6 78 86 -19 l 92 168 q 156 126 125 139 q 229 113 186 113 q 331 154 290 113 q 394 269 372 196 q 150 333 235 281 q 65 497 65 386 q 99 629 65 571 q 195 721 133 688 q 336 754 257 754 m 238 504 q 278 417 238 446 q 415 382 318 388 q 419 475 419 428 q 329 633 419 633 q 263 599 288 633 q 238 504 238 564 z "},"ʃ":{"ha":324,"x_min":-208,"x_max":518,"o":"m 372 1047 q 518 993 456 1047 l 450 893 q 381 917 418 917 q 311 832 324 917 l 297 735 l 194 0 l 183 -83 q 103 -247 168 -192 q -58 -301 39 -301 q -144 -285 -110 -301 q -208 -243 -179 -269 l -136 -146 q -99 -166 -114 -160 q -61 -172 -83 -172 q -11 -151 -31 -172 q 14 -92 8 -131 l 26 0 l 129 735 l 143 831 q 216 990 157 932 q 372 1047 275 1047 z "},"ʆ":{"ha":392,"x_min":-151,"x_max":586,"o":"m 440 1047 q 586 993 524 1047 l 518 893 q 449 917 486 917 q 379 832 392 917 l 365 735 l 260 -17 q 365 -67 318 -33 l 324 -140 q 243 -106 276 -117 q 157 -249 217 -199 q 3 -300 97 -300 q -110 -261 -69 -300 q -151 -153 -151 -222 q -100 -26 -151 -72 q 31 19 -49 19 q 96 14 78 19 l 197 735 l 211 831 q 284 990 225 932 q 440 1047 343 1047 m -1 -201 q 54 -170 33 -201 q 83 -79 75 -139 l 85 -72 q 31 -67 63 -67 q -28 -89 -7 -67 q -49 -149 -49 -111 q -1 -201 -49 -201 z "},"ƪ":{"ha":457,"x_min":28,"x_max":494,"o":"m 494 -247 q 332 -301 426 -301 q 195 -253 244 -301 q 146 -117 146 -204 q 149 -74 146 -104 l 158 0 l 247 640 q 172 622 211 622 q 69 672 110 622 q 28 803 28 722 q 91 980 28 913 q 257 1047 154 1047 q 392 997 342 1047 q 442 856 442 946 q 439 808 442 825 l 326 0 l 315 -94 q 314 -117 314 -103 q 369 -172 314 -172 q 406 -166 390 -172 q 444 -147 422 -160 l 494 -247 m 219 746 q 263 754 240 746 l 276 851 q 279 878 279 871 q 242 924 279 924 q 192 889 208 924 q 175 801 175 854 q 219 746 175 746 z "},"ʅ":{"ha":550,"x_min":36,"x_max":514,"o":"m 514 35 q 351 -19 446 -19 q 215 29 264 -19 q 165 165 165 78 q 168 208 165 178 l 178 282 l 179 282 l 203 453 l 204 453 l 215 547 q 217 569 217 556 q 161 625 217 625 q 124 619 140 625 q 86 600 108 613 l 36 700 q 199 754 104 754 q 335 706 286 754 q 385 569 385 657 q 382 526 385 557 l 372 453 l 371 453 l 347 281 l 346 281 l 335 188 q 333 165 333 179 q 389 110 333 110 q 426 116 410 110 q 464 135 442 122 l 514 35 z "},"ɇ":{"ha":625,"x_min":39,"x_max":613,"o":"m 474 744 q 576 679 540 728 q 613 568 613 631 q 531 382 613 447 q 310 289 450 317 l 250 125 q 308 113 275 113 q 384 128 349 113 q 465 176 419 143 l 526 74 q 285 -21 414 -21 q 201 -10 243 -21 l 169 -100 l 113 -83 l 147 14 q 67 107 96 46 q 39 253 39 168 q 78 496 39 382 q 199 682 117 610 q 400 754 281 754 l 414 754 l 442 831 l 499 813 l 474 744 m 372 639 q 265 558 306 632 q 208 378 225 485 q 283 390 250 382 l 372 639 m 354 411 q 432 471 407 433 q 457 563 457 508 q 432 626 457 610 l 354 411 m 242 276 q 199 271 214 274 l 199 251 q 207 181 199 210 l 242 276 z "},"ẽ":{"ha":625,"x_min":39,"x_max":642,"o":"m 400 754 q 556 701 500 754 q 613 567 613 649 q 502 359 613 425 q 208 271 392 293 l 208 251 q 234 145 208 178 q 308 113 260 113 q 384 128 349 113 q 465 176 419 143 l 526 74 q 285 -21 414 -21 q 104 51 169 -21 q 39 254 39 122 q 78 497 39 382 q 199 683 117 611 q 400 754 281 754 m 219 383 q 392 442 336 397 q 447 563 447 486 q 383 633 447 633 q 276 562 317 633 q 219 383 236 490 m 489 897 q 449 907 467 897 q 408 935 431 917 q 380 955 392 949 q 357 961 368 961 q 324 947 339 961 q 290 900 310 932 l 213 947 q 283 1048 244 1010 q 365 1086 322 1086 q 408 1076 390 1086 q 450 1047 426 1067 q 476 1027 467 1033 q 499 1021 486 1021 q 528 1035 514 1021 q 564 1081 543 1049 l 642 1035 q 572 933 611 969 q 489 897 532 897 z "},"ǝ":{"ha":625,"x_min":13,"x_max":586,"o":"m 340 756 q 521 684 456 756 q 586 481 586 613 q 547 238 586 353 q 426 52 508 124 q 225 -19 344 -19 q 69 33 125 -19 q 13 168 13 86 q 123 376 13 310 q 417 464 233 442 l 417 483 q 391 590 417 557 q 317 622 365 622 q 241 607 276 622 q 160 558 206 592 l 99 661 q 340 756 211 756 m 242 101 q 349 173 308 101 q 406 351 389 244 q 233 293 289 338 q 178 172 178 249 q 242 101 178 101 z "},"ə":{"ha":625,"x_min":13,"x_max":586,"o":"m 340 756 q 521 684 456 756 q 586 481 586 613 q 547 238 586 353 q 426 52 508 124 q 225 -19 344 -19 q 69 33 125 -19 q 13 168 13 86 q 123 376 13 310 q 417 464 233 442 l 417 483 q 391 590 417 557 q 317 622 365 622 q 241 607 276 622 q 160 558 206 592 l 99 661 q 340 756 211 756 m 242 101 q 349 173 308 101 q 406 351 389 244 q 233 293 289 338 q 178 172 178 249 q 242 101 178 101 z "},"ɚ":{"ha":914,"x_min":13,"x_max":956,"o":"m 956 481 q 813 432 889 432 q 696 476 736 432 q 658 589 656 519 l 658 614 l 578 563 q 586 476 586 524 q 546 235 585 349 q 426 51 507 122 q 225 -19 344 -19 q 69 33 125 -19 q 13 168 13 86 q 123 376 13 310 q 417 464 233 442 l 417 483 q 391 590 417 557 q 317 622 365 622 q 241 607 276 622 q 160 558 206 592 l 99 661 q 340 756 211 756 q 460 730 408 756 q 543 656 513 704 l 669 735 l 810 735 l 793 617 q 802 569 789 585 q 842 553 815 553 q 878 558 861 553 q 917 574 894 564 l 956 481 m 242 101 q 349 173 308 101 q 406 351 389 244 q 233 293 289 338 q 178 172 178 249 q 242 101 178 101 z "},"ʒ":{"ha":571,"x_min":-85,"x_max":563,"o":"m 544 613 l 279 285 q 446 221 390 279 q 501 60 501 163 q 457 -130 501 -47 q 335 -257 413 -212 q 161 -301 257 -301 q 15 -267 75 -301 q -85 -167 -44 -233 l 18 -85 q 85 -149 53 -131 q 164 -168 118 -168 q 284 -106 239 -168 q 329 57 329 -43 q 298 153 329 125 q 201 181 267 181 l 99 181 l 100 182 l 115 289 l 367 603 l 64 603 l 82 735 l 563 735 l 544 613 z "},"ǯ":{"ha":571,"x_min":-85,"x_max":575,"o":"m 544 613 l 279 285 q 446 221 390 279 q 501 60 501 163 q 457 -130 501 -47 q 335 -257 413 -212 q 161 -301 257 -301 q 15 -267 75 -301 q -85 -167 -44 -233 l 18 -85 q 85 -149 53 -131 q 164 -168 118 -168 q 284 -106 239 -168 q 329 57 329 -43 q 298 153 329 125 q 201 181 267 181 l 99 181 l 100 182 l 115 289 l 367 603 l 64 603 l 82 735 l 563 735 l 544 613 m 515 1103 l 575 1033 l 390 861 l 288 861 l 151 1033 l 218 1103 l 349 985 l 515 1103 z "},"ʓ":{"ha":565,"x_min":-97,"x_max":558,"o":"m 542 613 l 279 292 q 442 228 388 286 q 497 64 497 169 q 434 -151 497 -61 q 263 -278 371 -240 l 285 -364 l 192 -394 l 169 -299 q 115 -301 136 -301 q -41 -255 15 -301 q -97 -125 -97 -208 q -50 3 -97 -46 q 64 53 -3 53 q 167 9 131 53 q 226 -143 204 -35 q 301 -64 276 -117 q 325 61 325 -11 q 294 156 325 128 q 194 185 263 185 l 96 185 l 111 289 l 364 603 l 60 603 l 79 735 l 558 735 l 542 613 m 22 -104 q 44 -151 22 -136 q 118 -167 67 -167 l 139 -167 q 108 -69 124 -94 q 67 -44 93 -44 q 34 -61 46 -44 q 22 -104 22 -78 z "},"ƹ":{"ha":574,"x_min":-31,"x_max":589,"o":"m 569 603 l 258 603 l 433 286 l 417 181 l 414 182 l 415 181 l 318 181 q 190 125 235 181 q 144 -28 144 69 q 173 -132 144 -97 q 254 -167 201 -167 q 341 -147 301 -167 q 428 -82 381 -126 l 507 -171 q 233 -301 396 -301 q 40 -229 110 -301 q -31 -35 -31 -157 q 53 195 -31 107 q 279 290 136 283 l 93 613 l 110 735 l 589 735 l 569 603 z "},"ƺ":{"ha":556,"x_min":-40,"x_max":550,"o":"m 108 -301 q -1 -224 39 -268 q -40 -124 -40 -179 q 12 -1 -40 -43 q 179 72 64 40 q 303 124 268 96 q 339 207 339 151 q 320 258 339 243 q 260 274 301 274 l 107 274 l 122 379 l 340 607 l 53 607 l 71 735 l 550 735 l 532 617 l 300 382 l 325 382 q 463 338 414 382 q 513 213 513 294 q 445 46 513 106 q 257 -44 378 -14 q 165 -73 196 -60 q 124 -99 135 -86 q 114 -132 114 -112 q 126 -168 114 -151 q 163 -203 138 -185 l 108 -301 z "}}}
